<?xml version="1.0" encoding="utf-8"?>
<!-- Generator: Adobe Illustrator 22.1.0, SVG Export Plug-In . SVG Version: 6.00 Build 0)  -->
<svg version="1.1" id="Layer_1" xmlns="http://www.w3.org/2000/svg" xmlns:xlink="http://www.w3.org/1999/xlink" x="0px" y="0px"
	 viewBox="0 0 1000 1000" style="enable-background:new 0 0 1000 1000;" xml:space="preserve">
<style type="text/css">
	.st0{display:none;fill:#00A651;}
	.st1{font-family:'HelveticaNeue-Bold';}
	.st2{font-size:187.4979px;}
	.st3{letter-spacing:-18;}
	.st4{fill:#F89728;}
</style>
<text transform="matrix(1 0 0 1 470.6665 753.6562)" class="st0 st1 st2 st3">*</text>
<polygon class="st4" points="500,950 50,500 500,50 950,500 "/>
<path d="M500,91.9L91.9,500l402.9,402.9l5.2,5.2l402.9-402.9l5.2-5.2L500,91.9z M102.3,500L500,102.3L897.7,500L500,897.7L102.3,500
	z"/>
<path d="M496.2,246.8c-0.4,1.7-2.5,3.7-3.7,5.1"/>
<path d="M492.5,149.3c1.2,3-1.7,6.6,1.9,8.5l-5.1,15.2l-24.2,74.6c-0.9,0.4,0,0.9-0.5,1.4c0.2,0.9,0.9,0.2,1.2-0.2
	c6.6-12.9,10.5-26.5,17.6-38.3c0.9-0.4,1.2,1.9,0.7,2.8c-5.8,8.4-8.9,20.5-13.2,30.5c-2.1,6.4-5.9,13.9-8.7,20.4l0.3,0.7
	c6.3-5.7,11.5-12.5,16.7-19.1l0.4,0.4c-7.3,12-14.6,18.4-24.2,30.8c2.3,0.7,2.1-1.9,3.7-2.3c11.8-12.4,25.6-31.1,35.3-41.6l0.5,0.5
	c-5.2,8.7-12,15.8-18.1,23.8c-5.9,6.6-10.4,13.4-17.2,21c-0.5,5.9-8.7,6.3-4.7,11.8c3.3-1,5.6-4.3,8.2-6.8c1.6-0.2,0.7,1,1.2,2.1
	c4.3-0.7,6.4-3,11-6.3l0.4,0c0,1.2-2.5,2.4-3.3,3.3c-2.8,2.4-8,6.1-10.1,10.4c-1.4,2.3-2.6,1.9-3.5,4.9c3.7,0.5,6.3-0.5,10.1-1.7
	c8.9-3.5,17.4-5.8,27.6-9.6c16.6-4.5,30.9-9,45.6-14.4c8.9-4.2,28.2-3,28.2-20.2c0.2-1.7,2.6-4.5,4.5-5c9,0,15.8,2.3,22.8,3.3
	c2.9-2.1,3.3-5.4,4.9-7.7l0.2,0.2c3.1-4.2,8.2,0.4,12.5-1.2c1.7-0.4,4-9.2,8.3-5.6c0.7,1.7,1.7,1.9,3.3,2.1l6.1,5.9
	c-7.3,6.4-19.5,5-25.9,11c-3.3,0-6.6,3.5-7.6,5.6l0,0.7c7-1.6,14.3-1.2,21.1-3.7l0.9,0.9l-2.6,2.3c5.7,1,11.7-2.8,16.7-2.3l0.5,0.9
	c-7.6,3.8-15,4.3-23.6,7c-1.2,1.2-3.3,0.2-5.1,1.2c-1.6,1.6-4.5,0.7-5.4,3.5c0,1.2,0.9,3.1,2.2,3.8c7.1-0.5,13.1-2.9,20-3.3
	c-16,7.3-32.2,9.2-49.6,15c-1.9,1.4,2.1,2.6,1.1,4.5c-1.1,4.2-8.2,4.7-6.8,9.9c-1.2,2.3-2.1,3.3-4.3,4.2c-5.4-0.2-8.7-6.1-13.7-6.9
	c-0.7-2.4-4.9-2.1-6.9-1.4c-0.5,0-2.6,1.9-4.3,0.9c-1.6-0.9-0.2-1.4,0-2.4c0.9-0.4,2.6-0.4,1.9-2.1c-1.2-0.9-3.7,1.2-3.8-1.4
	c0-1.6-0.5-2.4-0.4-4l-0.3-0.5c-27.8,6.3-52.1,12-76.8,20.9c0.2,1.4,1.9,0.5,2.3,0.7c36.5,0.2,78.7-0.3,115.6,0l0.3-0.3l-0.2,0.2
	c12.2,0.2,24.6-0.2,38.1-0.4v0.2c6.2-0.9,13.7,0,20.9,0c1.4,0.5,1.9,3.1,3.5,4.2c0.7,1.1-1.4,1.1-1,1.9c5.7,2.8,11.8,1.4,17.7,3.3
	c-5.6,3.7-9.7,3.8-15.7,1.4c-5.9,0.2-15.3,1.7-19-4.5c-8.4,3.1-16.4-1.6-25.9,1.1c-2.3-0.2-7.8,0.4-10.4-1.1
	c-5.6,1.1-13.4,4.3-19.2,2.1c-14.4-1.7-27-3-40.7,0.2c-6.5,1.1-12-1.9-18.3-0.9c-3.7-1.9-8.2,0.3-12.8,0.5
	c-9.2-2.4-15.8-0.7-24.9-1.7c-1.6,0.5-4.2-0.4-5.7,0.9c2.1,2.1,5.7,1.4,7.8,1.9c21.8,1.6,44.2,3.7,65.5,4.5v0.2
	c21.4,1.7,41.4,3.5,63.9,5v0.2c7.1,0,15.5,1.7,23.3,2.4l0.9,1.4c-5.2,0.4-10.6-1.1-16.2-0.4l-0.9-0.7c-12.2-0.5-24.4-1.6-36.2-2.2
	l-0.4,0.4c-2.6-1.1-6.8-0.4-8.9-1.4h-4.3c2.8,2.6,8,1.4,11.3,2.1l0,0.2c10.4,1.9,21,0.9,31.1,5.6c4.5,1.1,9.8,1.8,13.7,1.9l-0.2,0.2
	c3,0.3,6.4,1,8.9,2.4c-0.2,0-0.2,0.4-0.2,0.5c-7.3-0.5-16.7-1.2-23.5-2.6l-0.5,0.4l0.2-0.2c-43.5-5.4-87.3-11.1-130.5-14.8
	c-2.4-0.9-5.1-1.2-7.8-0.5c7.3,1.6,15.7,4.7,22.8,6.4c3.8,2.3,10.1,3.3,13.7,4.7c1.4-0.2,2.3,0,4,0.4c8.4,0.7,14.3,0.2,22.3-3
	c5.1,4,15.5,1.8,16.9,10.1c2.3,1,2.6,0.9,4.9,1v0.2c8.7-2.9,17.6,5.6,27,3.3l3.5-0.4c2.8,3.3,7.7,5.6,11.9,7
	c3.5,3.5,2.9,6.4,7.6,6.6c1.9,0.3,5.4,1.4,7,2.8l-0.3,0.7c-0.7,0.4-3.3,0-4.3,0.7v-0.2c-7.3,0.2-13.1-5.4-20,0
	c-24.2-6.6-46.1-15.5-73.4-23.1c0-0.9,1.4-1.2,1.4-2.1c-2.5-2.6-7.2-3.3-11.2-3.8c-0.3-1.4-1.9-0.2-3.1-0.7c1.7,3.3,4.9,1.4,7.3,3.8
	l0.2-0.2c0,0.2,1.2,0.5,1.1,1.4c-14.1-3.5-30.8-8.9-45.4-12.7l-0.9,0.9c4.9,4,13.2,7,19,9.7c11.8,5.4,22.4,8.7,34.1,13.7l0.2-0.2
	c36.4,15.3,68,28,100.7,43.8c-4.2,0.5-7.1-1.7-12-4c-2.6-0.5-7-3.1-11.7-1.6c-4.7-3-7.1-3.8-11.5-5.7l0.2-0.2
	c-4-2.3-10.6-3.3-15.8-6.1c-0.9,1.4-3.3,1.9-2.1,3.8l1.2,1.2l-0.5,0.5c-7.5-4.3-12.7-11.8-21.2-13.4c-3.5-3-7.1-3.8-10.4-6.4
	l-0.3,0.4l0.2-0.2c-2.5,0-4.5,1.6-7-0.9c-4.5,0-8.5-3.3-13.1-3.1c-5.1-2.8-9.8-2.6-13.9-6.2c-3.1-0.5-6.8-5.6-10.1-5.4
	c-5.7-4.7-13.9-9.8-20.9-11.5c-2.1-1.9-3.6-4.2-6.8-5.2l-1.4,2.1c1.5,1.6,5.7,0.2,6.6,3.5c-1.1,0.5-0.4,0.9-1,1.8
	c2.4,5.9,8.9,8.3,13,11.7c12,8.7,24.7,16.5,37.1,27c0.7-2.4-1.9-2.3-1-4.2c0.3-0.2,0.7-1.7,0-2.2c-3.5-3.3-5.9-4.9-9.6-8.2
	c5.4,2.4,11.4,4,15.5,9.6c3.5,3.1,10.5,4.3,13.6,8.5c-1.4,1.2-5.8,1.2-5.2,4.2c3.1,2.8,6.8,4,8.2,7.1
	c-27.2-15.1-44.2-30.1-69.5-47.1l-10.6-7.3c-3.6,2.8-6.8,6.3-11.5,8.9c-5.9,18.4-7,39.1-11.3,57.2c-0.5-0.2-0.9,1.7-2.2,1.2
	c-1.4-4.2,0.9-7.7,1.9-10.8c0.9-16.4,7.3-28.4,7.1-44.7l-1.1-0.5c-8,2.1-13.2,3-21.6,1.6c-22.1,21.6-32,32.7-54.5,57.2
	c-1.9,0-3.8,0.2-5.4-1.1c0.5-2.3,2.4-3.8,4.3-6.1c6.1-7.3,9.2-15.3,16.9-21.7c1.9-5.6,12.9-8.5,7.6-16c-5.4,2.6-11,3.8-15.1,9.7
	c-0.9,0.9-3.5,2.6-4.9,3.1c-1-0.7,0-2.1,0.2-3.5c3-4.3,5.6-5.4,8.9-9.2c-1-0.2-2.3-0.5-3.3-0.2l-11.3,10.8c-1.4-0.4-3-2.1-3.3-3.1
	c4.9-5,9.7-10.3,13.9-15.1l-0.2-0.7c-1.4,0.7-3.3,1.8-4.9,1.1c-8.7,7.5-16.5,16.7-25.4,23.8c-3.5-0.3-5.2,1.1-6.3-2.1
	c5.9-7.8,24.4-20.5,32.2-30.3V344c-16.9,2.6-34.3,9.6-50.1,13.4c-3.5,2.3-10.9,4-14.6,3.5c0.2-1.6,2.8-2.6,3.1-3.1
	c16.9-6.8,34.5-14.3,49.2-20.2c2.4-2.2-3.5-4.7,0.4-6.4c1.8-1.6,2.8-0.5,4.2-2.6c-2.1-1.2-2.3,0.9-4.2,0.4c-1.6,1.2-4.7,0.7-6.6,0.7
	c-1.2-1.1,1.4-1.7,1.9-3.5c-1.2-0.5-2.4-0.2-3.1-0.2l-0.4,0.2c-3.6-0.2-11.5-0.4-13,3.1c-1.7,0.9,0.5,3,1.1,4l-1.2,3.7
	c-5.8,3.1-10.8,9.9-16.4,7.7c0.2-1.2,1.6-2.4,2.4-3.5c0.2-0.9-1.4-1.2-2.3-1.6c0-0.9,0-1.6-0.3-2.2c-7.7-1.8-11.7-0.9-17.4-6.8
	c1.9-2.6,5.4-1.6,8.9-2.4c19.1-3.6,40.7-3.5,61-9c0.9,0.9,2.1-0.7,3,0.2c0.7-0.6,1.6,0,1-1.4c-1.9-1.1-4-0.2-6.3-0.7
	c-18.6-1.2-33.8-2.4-52.6-3.5c-1.7-0.7-0.5-2.1,0.4-2.4c3.8,0,6.8,0.5,9.7,0.3v0.2c15.3,0.7,39.5,2.1,57.4,2.8
	c0.7,0.5,1.4,0,1.9-0.5c-1-3.3-8.5-1.6-11.8-2.6c-17.8-3.8-34.6-6.6-49.2-13.1l-0.7-0.7c5.2-3.5,10.6,0.9,15.5,1.1
	c2.3,0.7,4.9,0,6.3,1.7c3.8-0.5,9,2.1,12.5,0.9c-7.8-2.6-16.4-4.5-21.6-9.6c0.9-2.6,6.4,0.4,6.8-2.9c5.6-0.9,4.4,3.6,8.5,1.6
	c-2.1-1.6-4.4-3-6.1-3.7c0.5-1.9,4.9-0.2,3.1-3.3c2.1-2.6,5.7,1.4,8.3,1.2c2.3-0.4,0-2.8-0.7-4c-2.8-2.8-4.7-2.5-6.8-6.6
	c2.1-1.2,2.8,0.7,5-0.2c0.5-1.9-2.3-6.3,2.4-6.4c4.4,2.6,7.1-4.7,10.3,1.2c2.4-0.9,0.4-3.5-0.2-5c0-0.9-4.5-4.5-2.6-5.6
	c10.3,6.3,15.5,19.9,25.6,27.3h1.2c2.4-4,6.6-8.3,11-11.7c1.7-1.4,0.2-3.3-0.7-4.9c-2.8-3.3-5.7-7.8-7.1-10.8
	c-2.8-5.1-8-12.7-9.4-17.7c7.1,0.7,7.1,10.8,12,14.3c1.4-0.2,0.9-1.6,0.9-3.1c-0.3-4.5-2.1-8-0.2-11.8c1-1.4,2.1-0.9,2.9-0.3
	c1.8,1.4,0.9,3.8,2.3,5.7c1.4-2.4,0.7-4.7,1.2-7.1c3.1,5.9,2.8,13,3.6,18.8c0.2,0.5,0.7,0.7,1.2,0.7H400c4,2.3,0.3,7.5,3.3,11.1
	c2.9-1.2,7-1.9,9.8-2.1l1.9-1.9c-2.1-17.2-4.2-32.2-5.4-48.7c0.5-0.7,1.9-0.5,2.4,0.5c3.3,6.6,3.7,11.5,6.3,17.2
	c0.9,5,2.8,10.1,0.7,15.3c1.4,3.8,4.9,5.6,4.4,9.7c2.2,2.1,0.2,5,0.3,7.8c0.7,0.2,2.3-0.3,2.4-1.6c-0.4-3.8,0.5-6.3,0-9.8
	c0.5-19-1.9-35.5-2.6-53.8c-0.4-4.9-1.1-9-0.2-13.2l12.5-12.5c1.4,2.1,1.9,3.3,1.9,5.6c-1.6,9.6-12.4,20.2-4.2,29.6
	c3-1.4,3.3-5.4,7.8-3.8c4.2,3.3-2.2,9.6,3.5,10.6c1.6,1.6-0.5,3.5,0.5,4.3c-0.5,1.9,0.2,3.8,0.2,5.6c-10.1,13-12.4,28-10.4,42.1
	c5.6,3.3,11.8,8.2,15.5,12.7c-0.4-0.2,1.6-0.5,1.2-1.2c5.9-16.2,7.1-33.2,13.2-50.8c0-1.4-1.6-1.4-1.9-2.4c-0.4-2.5,2.1-5.4-0.5-7.8
	c0.5-7.3,17.4-13.4,6.6-21.8c-0.7-1.6-0.3-3.5-1-4.5c-7.5,7.5-4.9,21.2-10.3,30.6c-0.7,1.4-1.8,0.3-2.3-0.6c-1-0.7-1.4-4.2-2.9-4.9
	c-2.1,1.8-3.8,4.9-5.4,3.6l-0.7-0.7c-0.4-4.5,0.7-9.2,2.4-13.4c1.9-4.4,2.4-9.2,1-13.6l3.5-4.7c4.5,4.4-3.5,17.2,6.3,13.6
	c4.3-8.7,8-20.2,12.7-30.1c1.2,3.8-3.5,10.3,2.1,13.1c1-0.5,4.3,0.7,4-2.1c0.5-3.1,1.6-7.3-0.7-10.6l2.4-22.1
	c0.7-2.9,3.3-3.6,4.9-5.9C487.7,147.8,490.8,146.6,492.5,149.3 M442.7,283.1c-4.3,0.2-8.7-2.4-13.2,2.3c-1.7,3.1-1,6.6-0.7,9.4
	c3.7,6.4,0.4,13.6,1.4,21.6c-2.8,1.7-2.9,5-6.3,5.2c-1-1.9-1.2-3.8-3.1-5.4c-4.7-5.7-11-8.2-16.7-13.1c-4-4-8.9-3.6-13.7-3.1
	c-2.4,0.4-5.2,3.7-7.5,2.1c-4.2,0.2,0,3-1.4,4.7c0.7,1.4,0.9,4.5,3.5,3.7v0.2c2.8-0.7,4.9-1.7,7.5-1.6c1,0,2.8,1.2,2.4,3
	c-3.7,3.3-8.4,4.2-11.8,7.8c-0.4,2.6,4,4.3,4.7,6.3c3.1-1.6,5.4-1.6,8.4-3.1c4.3,2.8,7.3-4,9.4-5.2c3.3-1.4,6.6-2.4,10.3-1.4
	c2.4,4.7,6.1,5.6,10.3,7.7l6.1-5.6c0.9-2.1,0.2-4.7,1.9-5.7c1.4-0.9,3.1,0.2,4.5,0.5c3.7-2.3,7.3-1.9,10.6-1.7
	c1.1-0.5,3.3-2.3,2.1-3.1c-5.1-0.7-9.2,3.3-14.5,1.7c-0.2-1.9-0.9-3.3-0.3-5.2c4.4-4.7,7.8-8.4,12.4-12c0.9-1.2,0.3-3.7-1.2-4.7
	C447.4,285.9,445,282.9,442.7,283.1"/>
<path d="M528.2,176.2l-12,16.9c1.7,5.3-4.1,7.7-3.8,12.7c1.7,1.6,2.5-2,3.4,0.2c-6.1,8.7-10.7,13.6-16.4,20.6
	c3.1-6.4,8.1-11.2,11.3-17.2c-2.3-0.2-3,2.8-4.3,4.2c-4.7,6.4-8.1,12-12.2,17.1c-0.9,0.3-0.6-0.9-0.9-1.3c0.3-3.4,4.1-5.3,5.4-8.5
	c3.8-6.3,6.7-9.2,10.3-16.2l-0.1-0.3c-7.1,8.8-15,21.9-22.9,31c1.1-2.8,3.8-6.2,5.7-9.2c12.7-18.3,22.1-31.8,35-51.2
	C527.5,174.1,528.9,175.6,528.2,176.2"/>
<path d="M452.8,177.1c1.4,2.1,1.3,6.1,0.7,8.7"/>
<path d="M566,211.9c-1.7,4.7-7.1,7.4-10.9,10.5c-17.3,13-33.8,26.2-52.6,40.8v1c4.7,1.3,9.4-1.7,14.1-1.3
	c14.6-7.8,25.2-12.4,39.7-19.7c10.2-5.7,16.8-8.3,28.9-14.8l1.1,1.1c-15.6,7.9-34.4,17.9-49.7,25.7c-0.2,0.3,0.3,0.3,0.3,0.4
	c17.1-6.8,36-13.6,53.7-21.9l1.3,1.1c-13.1,5.4-25.7,10.9-38.1,16.3c-11.9,3.7-24,10.1-37.8,15.5c-3.1,6.4-9.8,14.2-19.5,13.9
	c-1.1,0.9-2.9,1.6-4.1,0.9c-1.4-2-3.7-3.4-5-5.1c-3.7,0.3-6.8,3.6-10.7,6V281l14.1-11.4l0.3,0.2c1.1-1.4,3-2,4-4
	c-1,0.2-2.3,1.1-3.1,1.7l1.4-2.1l0.3,0.2l8.2-7.4v-0.4c-4.3,1.7-6.4,5.3-9.9,6.5l-0.4-0.3c2.8-3.3,6.4-4.7,9.1-8.4l-0.4-0.3
	c-2.6,1.7-7.1,5.7-9.5,7c-2-0.2-3.4,1.1-4.1,2.3l-5.1,4.7v-0.7c15.2-17.2,31.3-32.9,46.4-47.2c-7,10.5-12.9,12.4-19.3,23.2
	c2.7,2.7-3,5.1-1.7,7.3c0,1.4-2,1.6-0.6,2.7c4.7-4.1,9.3-7.4,13.5-10.4l2.1-0.6c-2,2.7-5.7,4.4-7.2,6.5c0.3,0.1-0.2,0.4,0.4,0.6
	c10.4-8.5,18.5-13,25.9-22.5c4-2.7,6.9-3,9.7-7.5c4.4-3.8,10.7-6.4,15.1-8.8C565.6,211.9,565.7,211.9,566,211.9"/>
<g>
	<path d="M516.4,847.5H496v-65.3h-25.3v-15.4c14.3,0.3,27.3-4.6,29.5-20h16.2V847.5z"/>
</g>
<g>
	<path d="M479.9,558.2h-20.4v-65.3h-25.3v-15.4c14.2,0.3,27.3-4.6,29.5-20h16.2V558.2z"/>
	<path d="M499.1,536h22.6v22.2h-22.6V536z"/>
	<path d="M560.4,558.2H540v-65.3h-25.3v-15.4c14.2,0.3,27.3-4.6,29.5-20h16.3V558.2z"/>
</g>
<g>
	<path d="M511.8,634.5c0-13.7-2.8-19.6-11.3-19.6c-9.6,0-11.8,9.6-11.8,36.2c0,28.4,3.9,33.6,12.1,33.6c6.8,0,11.8-3.6,11.8-23.8h19
		c0,20.3-5,37.8-29.9,37.8c-28.4,0-32-20.3-32-48.8c0-28.6,3.6-48.8,32-48.8c27.1,0,29.1,19.9,29.1,33.6H511.8z"/>
</g>
</svg>
