<?xml version="1.0" encoding="utf-8"?>
<!-- Generator: Adobe Illustrator 22.1.0, SVG Export Plug-In . SVG Version: 6.00 Build 0)  -->
<svg version="1.1" id="Layer_1" xmlns="http://www.w3.org/2000/svg" xmlns:xlink="http://www.w3.org/1999/xlink" x="0px" y="0px"
	 viewBox="0 0 1000 1000" style="enable-background:new 0 0 1000 1000;" xml:space="preserve">
<style type="text/css">
	.st0{fill:#F89728;}
</style>
<g>
	<polygon class="st0" points="500,950 50,500 500,50 950,500 	"/>
	<path d="M500,91.9L91.9,500l402.9,402.9l5.2,5.2l402.9-402.9l5.2-5.2L500,91.9z M102.3,500L500,102.4L897.7,500L500,897.7
		L102.3,500z"/>
	<g>
		<path d="M429.1,402.3h-35v-112h-43.4v-26.4c24.4,0.5,46.9-7.9,50.6-34.3h27.9V402.3z"/>
		<path d="M450.3,364.3H489v38h-38.8V364.3z"/>
	</g>
	<g>
		<path d="M581,362.3h-73v-32.1l75-100.7h31.3v103.9h22.9v28.9h-22.9v40H581V362.3z M581,273.5h-0.7l-44.7,60H581V273.5z"/>
	</g>
	<g>
		<path d="M516.5,847.4H496v-65.3h-25.3v-15.4c14.2,0.3,27.3-4.6,29.5-20h16.3V847.4z"/>
	</g>
</g>
<g>
	<path d="M471.6,602.7h31.7c15.5,0,26.7,5.8,26.7,23.8c0,10.1-4.9,17.9-14.2,20.5v0.3c10.4,1.4,17.1,9.3,17.1,21.9
		c0,14.7-7.2,27.5-29.4,27.5h-32V602.7z M490.6,641.3h5.4c10.4,0,15.1-3.6,15.1-12.4c0-9-4.3-12.2-13.7-12.2h-6.8V641.3z
		 M490.6,682.8h7.4c9.1,0,15.3-3.3,15.3-14.2c0-10.9-6.2-14.1-14.5-14.1h-8.2V682.8z"/>
</g>
</svg>
