<?xml version="1.0" encoding="utf-8"?>
<!-- Generator: Adobe Illustrator 22.1.0, SVG Export Plug-In . SVG Version: 6.00 Build 0)  -->
<svg version="1.1" id="Layer_1" xmlns="http://www.w3.org/2000/svg" xmlns:xlink="http://www.w3.org/1999/xlink" x="0px" y="0px"
	 viewBox="0 0 1000 1000" style="enable-background:new 0 0 1000 1000;" xml:space="preserve">
<style type="text/css">
	.st0{fill:#F89728;}
</style>
<g>
	<polygon class="st0" points="500,950 50,500 500,50 950,500 	"/>
	<path d="M500,91.9L91.9,500l402.9,402.9l5.2,5.2l402.9-402.9l5.2-5.2L500,91.9z M102.3,500L500,102.4L897.7,500L500,897.7
		L102.3,500z"/>
	<g>
		<path d="M429.1,402.3h-35v-112h-43.4v-26.4c24.4,0.5,46.9-7.9,50.6-34.3h27.9V402.3z"/>
		<path d="M450.3,364.3H489v38h-38.8V364.3z"/>
	</g>
	<g>
		<path d="M581,362.3h-73v-32.1l75-100.7h31.3v103.9h22.9v28.9h-22.9v40H581V362.3z M581,273.5h-0.7l-44.7,60H581V273.5z"/>
	</g>
	<g>
		<path d="M516.5,847.4H496v-65.3h-25.3v-15.4c14.2,0.3,27.3-4.6,29.5-20h16.3V847.4z"/>
	</g>
</g>
<g>
	<path d="M511.8,634.5c0-13.7-2.8-19.6-11.3-19.6c-9.6,0-11.8,9.6-11.8,36.2c0,28.4,3.9,33.6,12.1,33.6c6.8,0,11.8-3.6,11.8-23.8h19
		c0,20.3-5,37.8-29.9,37.8c-28.4,0-32-20.3-32-48.8c0-28.6,3.6-48.8,32-48.8c27.1,0,29.1,19.9,29.1,33.6H511.8z"/>
</g>
</svg>
