<?xml version="1.0" encoding="utf-8"?>
<!-- Generator: Adobe Illustrator 22.1.0, SVG Export Plug-In . SVG Version: 6.00 Build 0)  -->
<svg version="1.1" id="Layer_1" xmlns="http://www.w3.org/2000/svg" xmlns:xlink="http://www.w3.org/1999/xlink" x="0px" y="0px"
	 viewBox="0 0 1000 1000" style="enable-background:new 0 0 1000 1000;" xml:space="preserve">
<style type="text/css">
	.st0{fill:#F89728;}
	.st1{enable-background:new    ;}
</style>
<g>
	<polygon class="st0" points="500,950 50,500 500,50 950,500 	"/>
	<path d="M500,91.9L91.9,500l402.9,402.9l5.2,5.2l402.9-402.9l5.2-5.2L500,91.9z M102.3,500L500,102.4L897.7,500L500,897.7
		L102.3,500z"/>
	<g>
		<path d="M429.1,402.3h-35v-112h-43.4v-26.4c24.4,0.5,46.9-7.9,50.6-34.3h27.9v172.7H429.1z"/>
		<path d="M450.3,364.3H489v38h-38.8L450.3,364.3L450.3,364.3z"/>
	</g>
	<g>
		<path d="M581,362.3h-73v-32.1l75-100.7h31.3v103.9h22.9v28.9h-22.9v40H581V362.3z M581,273.5h-0.7l-44.7,60H581V273.5z"/>
	</g>
	<g>
		<path d="M516.5,847.4H496v-65.3h-25.3v-15.4c14.2,0.3,27.3-4.6,29.5-20h16.3V847.4z"/>
	</g>
</g>
<g class="st1">
	<path d="M513.3,630.7c0-7-3.2-15.8-10.8-15.8c-9.2,0-12.9,9.5-12.9,32.9c0,22.6,2.1,36.9,13,36.9c4.5,0,11.7-4.9,11.7-15V660h-12.5
		v-14h30.7v50.7h-14V688h-0.3c-4.5,7.4-10.9,10.5-19.7,10.5c-23.3,0-27.9-17.4-27.9-49.9c0-31.6,7.4-47.8,31.6-47.8
		c20.8,0,29.2,10.7,29.2,29.8H513.3z"/>
</g>
</svg>
