<?xml version="1.0" encoding="utf-8"?>
<!-- Generator: Adobe Illustrator 22.1.0, SVG Export Plug-In . SVG Version: 6.00 Build 0)  -->
<svg version="1.1" id="Layer_1" xmlns="http://www.w3.org/2000/svg" xmlns:xlink="http://www.w3.org/1999/xlink" x="0px" y="0px"
	 viewBox="0 0 1000 1000" style="enable-background:new 0 0 1000 1000;" xml:space="preserve">
<style type="text/css">
	.st0{fill:#F89728;}
	.st1{enable-background:new    ;}
</style>
<g>
	<polygon class="st0" points="500,950 50,500 500,50 950,500 	"/>
	<path d="M500,91.9L91.9,500l402.9,402.9l5.2,5.2l402.9-402.9l5.2-5.2L500,91.9z M102.3,500L500,102.4L897.7,500L500,897.7
		L102.3,500z"/>
	<g>
		<path d="M429.1,402.3h-35v-112h-43.4v-26.4c24.4,0.5,46.9-7.9,50.6-34.3h27.9v172.7H429.1z"/>
		<path d="M450.3,364.3H489v38h-38.8L450.3,364.3L450.3,364.3z"/>
	</g>
	<g>
		<path d="M581,362.3h-73v-32.1l75-100.7h31.3v103.9h22.9v28.9h-22.9v40H581V362.3z M581,273.5h-0.7l-44.7,60H581V273.5z"/>
	</g>
	<g>
		<path d="M516.5,847.4H496v-65.3h-25.3v-15.4c14.2,0.3,27.3-4.6,29.5-20h16.3V847.4z"/>
	</g>
</g>
<g class="st1">
	<path d="M486.9,667.4v2.8c0,8.8,2.5,14.5,12.5,14.5c5.8,0,11.3-3.7,11.3-11.6c0-8.6-4.3-11.7-16.9-16.1
		c-16.8-5.8-24.6-12.8-24.6-28.4c0-18.3,11.2-27.6,29.1-27.6c16.8,0,29.1,7.2,29.1,25.3v2.6h-18.2c0-8.8-3-14-10.3-14
		c-8.6,0-10.8,5.4-10.8,10.9c0,5.8,1.7,9.3,9.7,12.8l14.6,6.3c14.2,6.2,17.9,13.4,17.9,24.9c0,19.9-12.1,28.8-32.6,28.8
		c-21.5,0-29.9-10-29.9-27.4v-3.8H486.9z"/>
</g>
</svg>
