<?xml version="1.0" encoding="utf-8"?>
<!-- Generator: Adobe Illustrator 22.1.0, SVG Export Plug-In . SVG Version: 6.00 Build 0)  -->
<svg version="1.1" id="Layer_1" xmlns="http://www.w3.org/2000/svg" xmlns:xlink="http://www.w3.org/1999/xlink" x="0px" y="0px"
	 viewBox="0 0 1000 1000" style="enable-background:new 0 0 1000 1000;" xml:space="preserve">
<style type="text/css">
	.st0{fill:#F89728;}
</style>
<g>
	<polygon class="st0" points="500,950 50,500 500,50 950,500 	"/>
	<path d="M500,91.9L91.9,500l402.9,402.9l5.2,5.2l402.9-402.9l5.2-5.2L500,91.9z M102.3,500L500,102.3L897.7,500L500,897.7
		L102.3,500z"/>
	<path d="M398.1,375.2V274.1h-39.2v-23.9c5.5,0.2,10.8-0.2,15.9-1.2c5.1-0.9,9.7-2.7,13.8-5.1c4.1-2.4,7.5-5.7,10.3-9.7
		c2.8-4,4.7-9,5.6-14.9h25.2v155.9H398.1z"/>
	<rect x="448.9" y="340.9" width="35" height="34.3"/>
	<path d="M544.5,245.3l-6.2,35.4l0.4,0.5c4.3-4.3,8.9-7.4,13.8-9.2c4.9-1.9,10.5-2.8,16.7-2.8c7.7,0,14.5,1.4,20.5,4.2
		c5.9,2.8,10.9,6.6,15,11.4c4.1,4.8,7.2,10.3,9.4,16.8c2.2,6.5,3.2,13.3,3.2,20.6c0,8-1.6,15.5-4.7,22.4
		c-3.1,6.9-7.3,12.9-12.6,17.9c-5.3,5.1-11.4,9-18.4,11.7c-7,2.7-14.4,4-22.3,3.9c-7.6,0-14.8-1-21.7-3c-6.9-2-13-5.1-18.4-9.2
		c-5.4-4.1-9.6-9.3-12.8-15.5c-3.2-6.2-4.9-13.3-5-21.5h31.6c0.7,7.1,3.4,12.8,8,17c4.6,4.2,10.5,6.3,17.6,6.3
		c4.1,0,7.9-0.9,11.2-2.6c3.3-1.7,6.2-3.9,8.5-6.7c2.3-2.7,4.1-5.9,5.4-9.6c1.3-3.6,1.9-7.4,1.9-11.2c0-4-0.6-7.8-1.8-11.4
		c-1.2-3.6-3-6.7-5.4-9.4c-2.4-2.7-5.2-4.8-8.5-6.3c-3.3-1.5-7.1-2.2-11.4-2.2c-5.7,0-10.3,1-13.8,3c-3.6,2-6.9,5.2-10,9.5h-28.5
		l15.4-86.2h87.1v26.1H544.5z"/>
	<path d="M496.2,847.4v-65.3h-25.3v-15.4c3.6,0.1,7-0.2,10.3-0.8c3.3-0.6,6.3-1.7,8.9-3.3c2.6-1.6,4.9-3.7,6.7-6.3
		c1.8-2.6,3-5.8,3.6-9.6h16.3v100.7H496.2z"/>
	<path d="M503.8,620.4c6.6,0,12.8,1.1,18.5,3.2c5.7,2.1,10.7,5.3,14.8,9.5c4.2,4.2,7.4,9.5,9.8,15.8c2.4,6.3,3.5,13.8,3.5,22.3
		c0,7.5-1,14.4-2.9,20.7c-1.9,6.3-4.8,11.8-8.7,16.4c-3.9,4.6-8.7,8.2-14.6,10.9c-5.8,2.6-12.6,4-20.5,4h-44.3V620.4H503.8z
		 M502.2,704.1c3.3,0,6.4-0.5,9.5-1.6c3.1-1.1,5.8-2.8,8.2-5.3c2.4-2.4,4.3-5.6,5.8-9.5c1.4-3.9,2.2-8.7,2.2-14.4
		c0-5.2-0.5-9.8-1.5-14c-1-4.2-2.7-7.7-4.9-10.7c-2.3-3-5.4-5.2-9.1-6.8c-3.8-1.6-8.5-2.3-14-2.3h-16.1v64.7H502.2z"/>
</g>
</svg>
