<?xml version="1.0" encoding="utf-8"?>
<!-- Generator: Adobe Illustrator 22.1.0, SVG Export Plug-In . SVG Version: 6.00 Build 0)  -->
<svg version="1.1" id="Layer_1" xmlns="http://www.w3.org/2000/svg" xmlns:xlink="http://www.w3.org/1999/xlink" x="0px" y="0px"
	 viewBox="0 0 1000 1000" style="enable-background:new 0 0 1000 1000;" xml:space="preserve">
<style type="text/css">
	.st0{fill:#F89728;}
</style>
<g>
	
		<rect x="181.8" y="181.8" transform="matrix(0.7071 -0.7071 0.7071 0.7071 -207.1087 499.9943)" class="st0" width="636.4" height="636.4"/>
	<path d="M500,91.9L91.9,500l402.9,402.9l5.2,5.2l402.9-402.9l5.2-5.2L500,91.9z M102.3,500L500,102.3L897.7,500L500,897.7
		L102.3,500z"/>
	<g>
		<path d="M518,847.4h-20.4v-65.3h-25.3v-15.4c14.2,0.3,27.3-4.6,29.5-20H518V847.4z"/>
	</g>
	<g>
		<path d="M460.9,620.5h22.4l42.8,68.9h0.3v-68.9h21.1v102.7h-22.6l-42.7-68.7h-0.3v68.7h-21.1V620.5z"/>
	</g>
	<g>
		<path d="M429,402.3h-35v-112h-43.4v-26.4c24.4,0.5,46.9-7.9,50.6-34.3H429V402.3z"/>
		<path d="M450.2,364.3h38.7v38h-38.7V364.3z"/>
	</g>
	<g>
		<path d="M599.7,274c-2.2-11.6-11.1-21.5-23.2-21.5c-25.4,0-32.1,33.3-33.1,52.6l0.5,0.5c9.6-13.6,22.2-19.2,39-19.2
			c14.8,0,29.9,6.9,39.7,17.8c9.1,10.6,13.3,24.9,13.3,38.5c0,35.3-24.4,63.2-60.5,63.2c-52.3,0-66.4-45.7-66.4-89.3
			c0-42.2,18.8-90.3,67.9-90.3c29.9,0,52.1,17.5,56,47.9H599.7z M546.7,344.8c0,16,10.4,32.1,27.9,32.1c16.8,0,26.4-16,26.4-31.6
			c0-16.3-8.4-32.6-26.4-32.6C555.8,312.7,546.7,327.8,546.7,344.8z"/>
	</g>
</g>
</svg>
