<?xml version="1.0" encoding="utf-8"?>
<!-- Generator: Adobe Illustrator 22.1.0, SVG Export Plug-In . SVG Version: 6.00 Build 0)  -->
<svg version="1.1" id="Layer_1" xmlns="http://www.w3.org/2000/svg" xmlns:xlink="http://www.w3.org/1999/xlink" x="0px" y="0px"
	 viewBox="0 0 1000 1000" style="enable-background:new 0 0 1000 1000;" xml:space="preserve">
<style type="text/css">
	.st0{fill:#008066;}
	.st1{fill:#FFFFFF;}
</style>
<g>
	<polygon class="st0" points="500,950 50,500 500,50 950,500 	"/>
	<path class="st1" d="M500,91.8L91.8,500l402.9,402.9l5.2,5.2l402.9-402.9l5.3-5.2L500,91.8z M102.3,500L500,102.3L897.7,500
		L500,897.7L102.3,500z"/>
	<path class="st1" d="M655.3,282.3c1.8,6.5-3,10.7-5.9,12.5c-1.1,0.7-2.6,1.2-2.6,1.2l-36.6,9.5c0,0-4.1,1-6,3.3
		c-12.8,15.9-32.1,22.2-32.1,22.2s-276.2,76.3-284,76.1c-7.8-0.2-9.9-6-9.9-6l-8.8-33.5c0,0-1-6,5.6-10.1c6.7-4.1,284-76.1,284-76.1
		s19.8-4.3,38.9,3.1c2.7,1,6.8-0.1,6.8-0.1l36.5-10.1c0,0,1.4-0.2,2.7-0.2c3.4,0.2,9.6,1.4,11.3,8V282.3z"/>
	<g>
		<path class="st1" d="M465.3,785.4c-0.7-23,12.4-40.7,36.5-40.7c18.4,0,34.5,11.8,34.5,31.5c0,15.1-8.1,23.5-18,30.5
			c-9.9,7.1-21.7,12.8-29.1,23.2H537v17.6h-74c0.1-23.3,14.4-33.2,31.8-45c8.9-6,21-12.2,21.2-24.6c0-9.5-6.3-15.5-15.1-15.5
			c-12.1,0-16,12.5-16,23.2H465.3z"/>
	</g>
</g>
</svg>
