<?xml version="1.0" encoding="utf-8"?>
<!-- Generator: Adobe Illustrator 22.1.0, SVG Export Plug-In . SVG Version: 6.00 Build 0)  -->
<svg version="1.1" id="Layer_1" xmlns="http://www.w3.org/2000/svg" xmlns:xlink="http://www.w3.org/1999/xlink" x="0px" y="0px"
	 viewBox="0 0 1000 1000" style="enable-background:new 0 0 1000 1000;" xml:space="preserve">
<style type="text/css">
	.st0{fill:#FFDD00;}
	.st1{fill-rule:evenodd;clip-rule:evenodd;}
</style>
<g>
	<polygon class="st0" points="500,950 50,500 500,50 950,500 	"/>
	<path d="M500,91.9L91.8,500l402.9,402.9l5.2,5.2l402.9-402.9l5.2-5.2L500,91.9z M102.3,500L500,102.3L897.7,500L500,897.7
		L102.3,500z"/>
	<path class="st1" d="M582.9,377.2c0,47-38.1,85-85,85s-85-38.1-85-85c0-7.6,2.2-18.9,2.2-18.9c-9.2-3.8-10.4-16.7-11.3-19.8
		c-6.2-21.8,14.9-43.8,1.4-71.7c10.1-2.1,16.3,12.4,18.3,14.6c21.9-41.9,2.3-67.1,3.2-69c13.2-1.5,19.5,18.4,21.2,22.6
		c17.1-17.6,18.1-53.1,6.6-66c12-5.3,32,18.1,32.9,17.9c0,0,16.4-36.4,6.2-53.7c27.9,2,33.6,58.5,34.7,71.7c0.3,0.2,9.1-14-0.2-33.6
		c26.2,10,25.8,60.2,23.5,67.9c3.5-0.4,15.8-13.7,4.1-36.1c35.4,15.3,17.4,66.5,14.4,85.3c7.1-5.7,13.2-8.5,21.9-7.8
		c0.3,1.2-18.2,10.9-8.5,35.4c0.2,0.5,12.8,29.8-1.8,42.7C581.8,358.7,582.9,369.8,582.9,377.2 M546.6,299.5c2.3-4,6.1-9.1,1.8-14.2
		C546.5,287.7,541.6,296.5,546.6,299.5 M491.9,270.9c1.1,10.3,4.2,19.3,5.8,21.2c0.9-0.1,1.7-0.3,1.8-0.5c7.1-7.3,5.6-44.6-6.7-47.3
		C491.7,250.1,490.9,261.1,491.9,270.9 M521,278c-2.4,1.9-4.4,10.3,0.5,13.2C526,288.6,521.7,279.2,521,278 M556,316.1
		c0.4,1.3,1.9,1.3,3-0.2C557.9,314.8,557,315,556,316.1 M473.3,284.2c0.1,1.3,1.7,8.5,4.1,8.2c6.1-0.8,2.5-12-3-11.7
		C473.2,282.3,473.2,283.6,473.3,284.2 M448.3,289c-1.2,5.6,2.1,13,6.4,15.1C460.5,299.9,454.9,288.7,448.3,289 M428.5,323.9
		c0.2,1.6,0.5,3.6,2.5,3C433.2,325.6,431.4,321.2,428.5,323.9 M569,378c0,39.3-31.9,71.1-71.1,71.1c-39.3,0-71.1-31.8-71.1-71.1
		c0-39.3,31.8-71.1,71.1-71.1C537.1,306.9,569,338.7,569,378 M597.9,472.8H397.4V487h200.5V472.8z"/>
	<g>
		<path d="M465.3,785.4c-0.7-23,12.4-40.7,36.5-40.7c18.4,0,34.5,11.8,34.5,31.5c0,15.1-8.1,23.5-18,30.5
			c-9.9,7.1-21.7,12.8-29.1,23.2h47.6v17.6h-74c0.1-23.3,14.4-33.2,31.8-45c8.9-6,21-12.2,21.2-24.6c0-9.5-6.3-15.5-15.1-15.5
			c-12.1,0-16,12.5-16,23.2H465.3z"/>
	</g>
</g>
</svg>
