<?xml version="1.0" encoding="utf-8"?>
<!-- Generator: Adobe Illustrator 22.1.0, SVG Export Plug-In . SVG Version: 6.00 Build 0)  -->
<svg version="1.1" id="Layer_1" xmlns="http://www.w3.org/2000/svg" xmlns:xlink="http://www.w3.org/1999/xlink" x="0px" y="0px"
	 viewBox="0 0 1000 1000" style="enable-background:new 0 0 1000 1000;" xml:space="preserve">
<style type="text/css">
	.st0{fill:#FFFFFF;}
	.st1{fill-rule:evenodd;clip-rule:evenodd;}
	.st2{fill-rule:evenodd;clip-rule:evenodd;fill:#FFFFFF;}
</style>
<g>
	<polygon class="st0" points="51.3,500 500,51.3 948.7,500 500,948.7 	"/>
	<path d="M500,53.4L946.6,500L500,946.6L53.4,500L500,53.4 M500,49.1L49.2,500L500,950.9l450-450l0.9-0.9L500,49.1L500,49.1z"/>
</g>
<path d="M500,91.1L91.1,500l403.7,403.7l5.3,5.3l403.7-403.7l5.3-5.3L500,91.1z M101.6,500L500,101.6L898.4,500L500,898.4L101.6,500
	z"/>
<path class="st1" d="M569.8,345.1c8.8-2.3,18.7-7.2,26.8-12.2c2.4-1.5,9.2-6,12.2-8.3c10-7.9,13.7-18.4,22.8-26.3
	c9.2-7.3,26.9-3,27.1,4.8c0.2,7.8,1.6,15.7,3.2,16.4c8.3,3.8,19.8,42.2-6.5,42.6c-0.2,0-22.8-7.2-38-3.2
	c-6.9,1.8-13.1,6.7-21.5,10.5c-4.2,2-29,12-33.9,15.4c-1.4,1-1.5,2-2.4,2.8c1.3,8.7,13.6,9.3,19.3,13.4c0.1,0.1,17.1,9.4,17.3,9.4
	c8.1,4.2,18.8,6,21.7,5.8c0.5,0,7.5-1.6,11.4-2.7c16.8-4.9,26.2,2,27.1,2.7c9.1,6.9,16.1,31.7-9.5,38.7c-1.1,7.4-1.7,14.6-7.3,20.7
	c-0.2,0.2-15.7,12.5-28.9,1.3c-7-6-10.7-23.7-10.7-24.1c-1.1-10.5-11.3-14.2-20.4-19.6c-5-3-9.3-5.9-13.4-7.9
	c-0.5-0.2-14.9-7.8-24.4-8.6c-10.2-0.9-23.8,7-31.1,10.2c-26.2,5.1-30.5-10.1-44.5-9.1c-10.7,0.8-25.1,9.6-33.8,14.2
	c-1.3,0.7-15.7,6.9-18.9,11.8c0,0.1-9.6,11.1-11.8,15.7c-2.8,6-7.1,12.5-11.8,15.3c-1.6,0.9-13.8,9.6-21.6,2.4
	c-6.4-6.5-6.6-21.5-6.8-21.6c-3.9-3.5-11.3-9.1-12.6-12.4c-6-15.1,3.7-27.7,15.4-27c2.5,0.2,16.8,7.5,32.9-3.9
	c0.3-0.2,30.4-12.1,41.9-17.7c5.9-2.9,7-5.4,7.5-5.5c-11.7-8.8-26.7-15.4-41.7-20c-8.4-3-20-10.5-33.4-9.8c-11,0.6-27.4,8.8-39-0.8
	c-1.6-1.3-11.3-18.5,5.1-31.1c-0.9-9.9-6.5-13.1-6.3-21.2c0.3-10.5,19.8-17.7,32.1-6.8c4.9,4.4,11.6,10,12.7,11.5
	c9,12.1,39.8,30.1,43.3,32.3c6.9,2.3,14.3,6.1,20.1,7.5c-7.2-7.1-15.8-8.2-20.9-14.2c-3.2-3.7-5-12-5.9-17.7c-1-6.6,0.3-17.1,0-24
	c-1.6-2.9-23.1-42.4-14.2-68.1c6.9-19.9,61.8-53,70.4-55.9c10.2-5.2,22.8-9.5,38.2-9.8c11.9-0.2,43.7,19.8,51.2,26.4
	c15.3,10.5,33,22.8,41.7,37.3c8,10.1-0.4,40.8-0.4,40.5c0.9,0.2-11.8,27.5-9.8,39.4c1.3,7.5,0.2,20.5-7.1,28.7
	C578.9,337.7,573.8,340,569.8,345.1"/>
<path class="st2" d="M592.7,252.2c0.4-1.8,1-5.6,1.2-8.3c1.6-23.5-28.9-39.2-49.2-52.7c-1.7-1.2-28.2-19.1-44.9-17.7
	c-20.3,1.7-44.5,16.5-63.3,30.7c-3.4,2.5-11.1,7.6-16.1,11.8c-1.4,1.1-3.4,3.1-3.9,3.9c-2.9,4.5-5.7,9.2-6.7,16.1
	c-1.7,11.5,2.5,25.6,7.5,35.8c0.1-0.5,0.5-12.1,0.8-24.8c0.1-5.9,7-16.8,7.5-17.3c2.3-2.5,6.8-8.1,10.6-7.5
	c-6.1,7.6-7.6,13.7-8.7,23.6c-1.4,13.1,1.1,35.1,1.1,35.9c-0.6,7-5.1,15.1-5.4,20.3c-0.8,8.4-1.1,9.2,0.4,16.5
	c2.7,5.7,4.6,10.4,8.3,13.8c1.9,1.7,7.4,5.6,7.9,5.9c4.9,3.4,25.9,15.4,26.4,15.7c6.5,5.1,0.9,12.1,5.5,18.1
	c4,2.5,21.2,3.9,27.1,3.9c1.9,0,19.2-1.5,19.7-1.6c21.3-1.4,8.8-17.1,12.2-20.9c0.9-1,3-3.9,3.9-4.7c4.3-3.7,9.6-4.3,14.6-7.1
	c7.6-4.3,29-10.7,28.3-34.6c-0.2-5.9-2-12.4-2.8-18.1c-1.1-8.1,2.8-17.1,2.8-18.1c1.9-13.2,0.7-34.6-7.5-41.7c0-0.2-4.2-4.8-4.3-6.7
	c5.8,1.9,10.9,3.6,14.5,7.9c7.2,8.4,7.7,23.1,7.1,32.3c-0.1,1.6-1.2,2.7-0.1,3.8c0,0,0.1,0.1,0.1,0.1
	C586.7,266.9,591.6,257.1,592.7,252.2"/>
<path class="st2" d="M435.3,360c-6.4-2.3-11.9-6.2-18.9-8.7c-17.8-9-53.2-40.3-56.6-43.3c-2.1-1.8-4.4-5.2-8.3-5.9
	c-5.2-1-11.3,2.7-11.4,8.7c0,2.2,2.9,9.5,6.7,8.3c1.4-0.5,1.2-2.7,3.5-2.4c7.8,12.3-15,16.8-15,29.1c1.4,4.9,4.2,7.4,7.5,8.3
	c2.2,0.6,12-0.5,12.6-0.8c5.3-3,7.9-4.4,13.8-4.7c11.6-0.6,59,21.8,59.7,22c5.5,1.6,8.5,7.1,15,7.5c0.6-5.1,2.4-6.9,1.2-14.6
	C443.1,362.2,436.8,360.5,435.3,360"/>
<path class="st2" d="M663.5,343.5c0.2-1.4,0.6-10.9-2.8-11c-5.3-0.2-1.3,10.1-9.1,7.9c-1.9-6-0.6-14.3,0.4-23.2
	c0.3-2.9,0.1-15.3-10.6-13.4c-3.5,0.6-7,4.3-9.4,7.5c-2.8,3.5-4.3,9.5-7.5,13.8c-5.9,7.8-50.9,29.6-64.5,36.6
	c0.9,6.4-0.6,9.3,1.2,14.2c10.3-4.5,57.6-27.3,58.2-27.1c7.2-3.1,30.9,2.1,36.6,4.1C656.8,353,662.4,350.2,663.5,343.5"/>
<path class="st2" d="M457.4,388.2c1.3,8.4,17.1,20.9,29.1,25.7c10.6,4.3,21.1,3.1,28.3,0.4c-0.2,0,17.1-7.5,22-11.4
	c6.7-5.3,12.3-12.4,13.7-20.2c0-0.2,1.5-11.9,0.5-24.7c-0.1-0.7-1.2-3-3.9-1.6c-2,16.1,0.1,25.5-13,33c-3.7,2.1-11.6,5-15.8,6.7
	c-14.8,4.2-38.3,1.3-51.5-9.4c-2.3-1.8-4-4.5-4.3-7.5c-2.2-18.4-4.5-20-5.9-19.3C454.1,371.7,457.3,387.5,457.4,388.2"/>
<path class="st2" d="M373.2,470.6c2.4,0.1,4.3-0.1,6.3-0.4c8.4-4.1,14.6-13.3,19.7-21.2c2.4-3.7,4.6-8.8,8.2-11.4
	c7.2-5.1,32.6-18.1,32.7-18.5c6-2.7,11.6-5.7,16.1-9.8c0.1-2.2-2.7-6.2-5.5-7.9c-9.7,0.9-14.9,4-24,7.5
	c-15.1,5.8-32.3,14.3-44.5,19.3c-5,0.2-9.3-2.9-13.8-3.5c-6.9-1-13.6,4.2-13,11c0.5,5,5.5,9.1,7.9,10.6c5.5,2.8,0.6-10,7.9-8.7
	C374.5,439.9,366.4,467,373.2,470.6"/>
<path class="st2" d="M648,443.8c1.2,0.1,2.7,0.4,3.6,0c11.9-4.4,2.7-18.1,2-18.9c-1-1.2-4.4-2.9-4.6-2.9
	c-10.5-2.7-23.8,2.6-31.2,3.3c-7.4,0.7-14.7-0.7-22.8-5.1c-0.2-0.1-4.6-3-5.9-3.9c-7.2-4.3-32.4-23.8-40.5-9
	c8.9,5,19.4,9.3,27.5,13.8c7.2,4,17.3,11.1,26.4,20.1c1.4-2.5,2.2-5.7,5.5-6.3c1.9,10.1,0.6,10.2,1.6,20.5
	c-0.5,13.1,8.8,16.8,9.4,16.9c2.3,0.2,7.6,1,10.3,0c5.3-2,8.9-9.2,9.1-12.8c0-0.8,1.3-10.2,1.6-14.3c0.1-2-0.5-4.4,0-6.3
	c1.5-5.4,10-3.9,10.2-3.5C649.2,437.9,647.8,443.7,648,443.8"/>
<path class="st1" d="M464.2,282.7c5.3,0.6,14.7,2.9,19.5,4.6c1.9,0.6,1.4,5.9,1.1,6.5c-3.9,9-12.7,23.8-25.7,23.1
	c-14.5-0.8-18.7-20.5-18.5-22.4C442,281.8,464.5,282.7,464.2,282.7"/>
<path class="st1" d="M566.5,293.3c3.2,7.3-5,17.3-12.2,24.2c-3.8,3.8-13.3,1.7-14.1,1.4c-13.5-5.2-24.8-17.6-22.1-27.9
	c1-4,12.5-5,13.8-5.1C533.2,285.7,562.5,284.4,566.5,293.3"/>
<path class="st1" d="M497.3,324.2c1.7-1.8,8.1-0.2,7.9-0.2c9.4,1.6,12.2,30.1,12.2,29.9c-1.2,3.2-4.8,4.2-8.7,4.3
	c-4.7,0.1-7.7-4.5-12.6-3.1c-3.9,1.1-4.5,4.5-9.4,2.4C482.8,347.5,488.6,330.4,497.3,324.2"/>
<g>
	<path d="M465.2,785.9c-0.7-23.1,12.4-40.8,36.6-40.8c18.5,0,34.6,11.8,34.6,31.6c0,15.1-8.1,23.5-18,30.6
		c-9.9,7.1-21.8,12.8-29.1,23.2H537V848h-74.1c0.1-23.4,14.4-33.3,31.9-45.1c8.9-6.1,21-12.3,21.2-24.6c0-9.5-6.3-15.6-15.1-15.6
		c-12.1,0-16,12.5-16,23.2H465.2z"/>
</g>
</svg>
