<?xml version="1.0" encoding="utf-8"?>
<!-- Generator: Adobe Illustrator 22.1.0, SVG Export Plug-In . SVG Version: 6.00 Build 0)  -->
<svg version="1.1" xmlns="http://www.w3.org/2000/svg" xmlns:xlink="http://www.w3.org/1999/xlink" x="0px" y="0px"
	 viewBox="0 0 1638 1000" style="enable-background:new 0 0 1638 1000;" xml:space="preserve">
<style type="text/css">
	.st0{fill:#FFFFFF;}
	.st1{fill-rule:evenodd;clip-rule:evenodd;}
	.st2{fill-rule:evenodd;clip-rule:evenodd;fill:#FFFFFF;}
	.st3{fill:none;stroke:#000000;stroke-width:1.2344;}
	.st4{fill-rule:evenodd;clip-rule:evenodd;fill:#FFFFFF;stroke:#000000;stroke-width:1.6444;}
	.st5{fill:#008066;}
	.st6{fill:none;stroke:#000000;stroke-width:7.11;stroke-miterlimit:10;}
</style>
<g id="Placard">
	<g>
		<path class="st0" d="M50.9,500.5c0.9,0.9,448.2,448.3,449.1,449.1c0.9-0.9,448.3-448.2,449.1-449.1
			C948.3,499.6,500.9,52.2,500,51.4C499.1,52.2,51.7,499.6,50.9,500.5"/>
		<path d="M500,50.5l-450,450l450,450l449.1-449.1l0.9-0.9L500,50.5z M51.7,500.5L500,52.3l448.3,448.2L500,948.8L51.7,500.5z"/>
		<path d="M500,92.4L91.9,500.5l402.9,402.9l5.2,5.2l402.9-402.9l5.2-5.2L500,92.4z M102.3,500.5L500,102.8l397.7,397.7L500,898.2
			L102.3,500.5z"/>
		<path class="st1" d="M544.4,283.7c6-1.5,12.7-4.9,18.2-8.3c1.6-1,6.3-4.1,8.3-5.6c6.8-5.3,9.3-12.5,15.5-17.9
			c6.3-5,18.3-2,18.5,3.3c0.2,5.3,1.1,10.7,2.2,11.1c5.6,2.6,13.4,28.7-4.4,29c-0.2,0-15.5-4.9-25.8-2.2c-4.8,1.3-8.9,4.6-14.6,7.2
			c-2.9,1.3-19.8,8.1-23.1,10.5c-1,0.7-1,1.3-1.6,1.9c0.9,5.9,9.3,6.3,13.1,9.1c0,0.1,11.7,6.3,11.8,6.4c5.5,2.9,12.8,4.1,14.8,3.9
			c0.3,0,5.1-1,7.8-1.8c11.5-3.4,17.8,1.3,18.4,1.8c6.2,4.7,11,21.6-6.5,26.3c-0.8,5.1-1.2,9.9-5,14.1c-0.2,0.2-10.7,8.5-19.6,0.9
			c-4.8-4.1-7.3-16.1-7.3-16.4c-0.7-7.1-7.6-9.6-13.8-13.3c-3.4-2-6.4-4-9.1-5.3c-0.4-0.2-10.1-5.3-16.6-5.9c-7-0.6-16.2,4.8-21.1,7
			c-17.9,3.5-20.8-6.9-30.2-6.2c-7.3,0.5-17.1,6.5-23,9.6c-0.9,0.5-10.6,4.7-12.8,8c0,0.1-6.6,7.5-8,10.7c-1.9,4.1-4.9,8.5-8,10.4
			c-1,0.7-9.3,6.6-14.7,1.6c-4.3-4.4-4.5-14.6-4.6-14.7c-2.7-2.4-7.7-6.2-8.6-8.4c-4.1-10.3,2.6-18.9,10.5-18.3
			c1.7,0.1,11.4,5.1,22.4-2.7c0.2-0.1,20.7-8.2,28.5-12.1c4-2,4.8-3.7,5.1-3.8c-8-6-18.2-10.5-28.4-13.6c-5.8-2-13.6-7.2-22.8-6.7
			c-7.5,0.4-18.7,6-26.5-0.5c-1.1-0.9-7.7-12.6,3.4-21.1c-0.6-6.8-4.4-8.9-4.3-14.5c0.2-7.1,13.5-12.1,21.9-4.6
			c3.4,3,7.9,6.8,8.7,7.8c6.1,8.2,27.1,20.5,29.5,22c4.7,1.6,9.7,4.1,13.6,5.1c-4.9-4.8-10.7-5.6-14.2-9.6c-2.2-2.5-3.4-8.2-4-12.1
			c-0.7-4.5,0.2-11.6,0-16.3c-1.1-2-15.7-28.8-9.6-46.3c4.7-13.5,42.1-36.1,47.9-38c6.9-3.6,15.5-6.5,26-6.7
			c8.1-0.2,29.7,13.5,34.8,17.9c10.4,7.2,22.4,15.5,28.4,25.5c5.4,6.8-0.3,27.7-0.3,27.6c0.6,0.2-8.1,18.7-6.7,26.8
			c0.9,5.1,0.2,13.9-4.9,19.6C550.6,278.7,547.1,280.2,544.4,283.7"/>
		<path class="st2" d="M560,220.5c0.2-1.2,0.7-3.8,0.8-5.6c1.1-16.1-19.7-26.7-33.5-35.9c-1.2-0.8-19.2-13-30.5-12.1
			c-13.8,1.2-30.3,11.3-43.1,20.9c-2.3,1.7-7.5,5.2-11,8c-0.9,0.8-2.3,2.1-2.7,2.7c-2,3.1-3.9,6.2-4.6,11
			c-1.1,7.8,1.7,17.4,5.1,24.4c0-0.3,0.4-8.2,0.6-16.8c0.1-4,4.8-11.5,5.1-11.8c1.5-1.7,4.6-5.5,7.2-5.1c-4.1,5.2-5.2,9.3-5.9,16.1
			c-0.9,8.9,0.8,23.9,0.7,24.4c-0.4,4.8-3.4,10.3-3.7,13.8c-0.6,5.7-0.8,6.3,0.3,11.3c1.8,3.9,3.1,7.1,5.6,9.4
			c1.3,1.2,5.1,3.8,5.4,4c3.3,2.3,17.6,10.5,17.9,10.7c4.5,3.4,0.6,8.2,3.8,12.3c2.7,1.7,14.4,2.7,18.5,2.7c1.3,0,13.1-1,13.4-1.1
			c14.5-0.9,6-11.7,8.3-14.2c0.6-0.7,2-2.7,2.7-3.2c3-2.5,6.5-2.9,9.9-4.8c5.2-2.9,19.8-7.3,19.3-23.6c-0.1-4-1.3-8.4-1.9-12.3
			c-0.8-5.5,1.9-11.6,1.9-12.3c1.3-9,0.5-23.6-5.1-28.4c0-0.1-2.9-3.3-3-4.5c4,1.3,7.4,2.4,9.9,5.4c4.9,5.7,5.2,15.7,4.8,21.9
			c-0.1,1.1-0.8,1.8-0.1,2.6c0,0,0.1,0,0.1,0.1C555.9,230.5,559.2,223.9,560,220.5"/>
		<path class="st2" d="M452.9,293.9c-4.4-1.6-8.1-4.2-12.8-5.9c-12.1-6.1-36.2-27.4-38.5-29.4c-1.4-1.3-3-3.5-5.6-4
			c-3.5-0.7-7.7,1.8-7.8,5.9c0,1.5,2,6.4,4.5,5.6c0.9-0.3,0.8-1.8,2.4-1.6c5.3,8.4-10.2,11.4-10.2,19.8c1,3.3,2.8,5,5.1,5.6
			c1.5,0.4,8.2-0.3,8.6-0.5c3.6-2,5.4-3,9.4-3.2c7.9-0.5,40.1,14.8,40.6,15c3.8,1.1,5.8,4.8,10.2,5.1c0.4-3.5,1.6-4.7,0.8-9.9
			C458.1,295.4,453.9,294.2,452.9,293.9"/>
		<path class="st2" d="M608.1,282.7c0.2-1,0.4-7.4-1.9-7.5c-3.6-0.1-0.9,6.9-6.2,5.3c-1.3-4.1-0.4-9.7,0.3-15.8
			c0.2-2,0.1-10.5-7.2-9.1c-2.4,0.4-4.8,2.9-6.4,5.1c-1.9,2.4-2.9,6.5-5.1,9.4c-4,5.4-34.7,20.1-43.9,24.9c0.6,4.4-0.4,6.3,0.8,9.6
			c7-3.1,39.2-18.6,39.6-18.5c4.9-2.2,21.1,1.4,24.9,2.8C603.6,289.1,607.4,287.2,608.1,282.7"/>
		<path class="st2" d="M467.9,313c0.9,5.7,11.6,14.2,19.8,17.5c7.2,2.9,14.3,2.1,19.3,0.2c-0.2,0,11.6-5.1,15-7.8
			c4.5-3.6,8.4-8.4,9.3-13.7c0-0.2,1-8.1,0.3-16.8c0-0.5-0.8-2-2.7-1.1c-1.4,11,0.1,17.4-8.8,22.5c-2.5,1.4-7.9,3.4-10.7,4.5
			c-10.1,2.9-26,0.9-35.1-6.4c-1.6-1.3-2.7-3.1-2.9-5.1c-1.5-12.5-3.1-13.6-4-13.1C465.7,301.8,467.8,312.6,467.9,313"/>
		<path class="st2" d="M410.6,369.1c1.6,0.1,3-0.1,4.3-0.3c5.7-2.8,9.9-9,13.4-14.4c1.6-2.5,3.1-6,5.6-7.8
			c4.9-3.5,22.2-12.4,22.2-12.6c4.1-1.8,7.9-3.8,11-6.7c0.1-1.5-1.9-4.2-3.8-5.3c-6.6,0.6-10.1,2.7-16.3,5.1
			c-10.3,3.9-22,9.7-30.2,13.1c-3.4,0.1-6.3-2-9.4-2.4c-4.7-0.7-9.3,2.9-8.9,7.5c0.3,3.4,3.7,6.2,5.4,7.2c3.8,1.9,0.4-6.8,5.3-5.9
			C411.5,348.3,406,366.7,410.6,369.1"/>
		<path class="st2" d="M597.6,350.9c0.8,0.1,1.9,0.2,2.5,0c8.1-3,1.8-12.3,1.3-12.8c-0.7-0.8-3-2-3.1-2c-7.2-1.8-16.2,1.8-21.2,2.3
			c-5,0.5-10-0.5-15.5-3.5c-0.1-0.1-3.1-2-4-2.7c-4.9-2.9-22.1-16.2-27.6-6.1c6,3.4,13.2,6.3,18.7,9.4c4.9,2.7,11.8,7.5,17.9,13.6
			c1-1.7,1.5-3.8,3.8-4.3c1.3,6.8,0.4,7,1.1,13.9c-0.3,8.9,6,11.5,6.3,11.5c1.6,0.1,5.2,0.7,7,0c3.6-1.4,6-6.3,6.2-8.7
			c0-0.5,0.9-6.9,1-9.7c0.1-1.4-0.3-3,0-4.3c1-3.7,6.8-2.6,7-2.4C598.4,346.9,597.5,350.9,597.6,350.9"/>
		<path class="st1" d="M472.6,241.3c3.6,0.4,10,2,13.2,3.1c1.3,0.5,1,4,0.8,4.4c-2.6,6.2-8.6,16.3-17.5,15.7
			c-9.9-0.5-12.7-13.9-12.6-15.2C457.4,240.7,472.7,241.3,472.6,241.3"/>
		<path class="st1" d="M542.2,248.5c2.2,4.9-3.4,11.7-8.3,16.4c-2.6,2.6-9.1,1.2-9.6,1c-9.2-3.5-16.9-12-15.1-19
			c0.7-2.7,8.5-3.4,9.4-3.5C519.5,243.3,539.4,242.4,542.2,248.5"/>
		<path class="st1" d="M495,269.5c1.2-1.2,5.5-0.2,5.4-0.1c6.4,1.1,8.3,20.5,8.3,20.3c-0.8,2.2-3.3,2.9-5.9,3
			c-3.2,0.1-5.3-3.1-8.6-2.1c-2.7,0.7-3.1,3-6.4,1.6C485.2,285.3,489.2,273.7,495,269.5"/>
		<g>
			<path d="M465.3,785.9c-0.7-23,12.4-40.7,36.5-40.7c18.4,0,34.5,11.8,34.5,31.5c0,15.1-8.1,23.4-18,30.5c-9.9,7-21.7,12.8-29,23.1
				h47.6v17.5H463c0.1-23.3,14.4-33.2,31.8-45c8.9-6,21-12.2,21.1-24.6c0-9.5-6.3-15.5-15.1-15.5c-12.1,0-16,12.5-16,23.1H465.3z"/>
		</g>
		<rect x="249.5" y="384" class="st0" width="501.1" height="233.1"/>
		<rect x="249.5" y="384" class="st3" width="501.1" height="233.1"/>
	</g>
</g>
<g id="UN_Number">
	<g>
		<path d="M297.3,461.8h-35.8v-23.9h3.3c12.2,0,21.8-2.3,28.8-6.9c7-4.6,11.5-11.9,13.3-22.1h26.9v179.7h-36.5V461.8z"/>
	</g>
	<g>
		<path d="M382.3,468.9c0.8-11.5,3.1-21.7,6.9-30.6c3.7-8.9,9.3-16,16.9-21.3c7.5-5.3,18-8,31.3-8c11,0,20.1,1.6,27.3,4.7
			c7.2,3.1,12.9,8.2,17.3,15.1c4.3,6.9,7.4,15.9,9.1,27c1.8,11.1,2.7,24.6,2.7,40.5c0,12.5-0.4,24.5-1.3,36
			c-0.8,11.5-3.1,21.7-6.9,30.6c-3.7,8.9-9.4,15.9-16.9,20.9c-7.5,5.1-18,7.6-31.3,7.6c-10.8,0-19.9-1.4-27.2-4.3
			c-7.3-2.9-13.1-7.8-17.4-14.7c-4.3-6.9-7.4-15.9-9.1-27c-1.8-11.1-2.7-24.6-2.7-40.5C381,492.4,381.5,480.4,382.3,468.9z
			 M418.5,540.6c0.6,7.2,1.6,12.9,3.2,17c1.5,4.1,3.6,7,6.1,8.5c2.5,1.5,5.7,2.3,9.6,2.3c4.1,0,7.4-1,9.9-2.9c2.5-1.9,4.5-5.2,6-9.9
			c1.4-4.7,2.5-10.9,3-18.7c0.6-7.8,0.9-17.4,0.9-28.9v-19.5c0-11.3-0.3-20.6-0.9-27.8c-0.6-7.2-1.6-12.9-3.2-17
			c-1.5-4.1-3.6-7-6.1-8.5c-2.5-1.5-5.8-2.3-9.6-2.3c-4.1,0-7.4,1-9.9,2.9c-2.5,1.9-4.5,5.2-6,9.9c-1.4,4.7-2.5,10.9-3,18.7
			c-0.6,7.8-0.9,17.4-0.9,28.9v19.5C417.6,524.1,417.9,533.4,418.5,540.6z"/>
	</g>
	<g>
		<path d="M507.4,468.9c0.8-11.5,3.1-21.7,6.9-30.6c3.7-8.9,9.3-16,16.9-21.3c7.5-5.3,18-8,31.3-8c11,0,20.1,1.6,27.3,4.7
			c7.2,3.1,12.9,8.2,17.3,15.1c4.3,6.9,7.4,15.9,9.1,27c1.8,11.1,2.7,24.6,2.7,40.5c0,12.5-0.4,24.5-1.3,36
			c-0.8,11.5-3.1,21.7-6.9,30.6c-3.7,8.9-9.4,15.9-16.9,20.9c-7.5,5.1-18,7.6-31.3,7.6c-10.8,0-19.9-1.4-27.2-4.3
			c-7.3-2.9-13.1-7.8-17.4-14.7c-4.3-6.9-7.4-15.9-9.1-27c-1.8-11.1-2.7-24.6-2.7-40.5C506.2,492.4,506.6,480.4,507.4,468.9z
			 M543.6,540.6c0.6,7.2,1.6,12.9,3.2,17c1.5,4.1,3.6,7,6.1,8.5c2.5,1.5,5.8,2.3,9.6,2.3c4.1,0,7.4-1,9.9-2.9c2.5-1.9,4.5-5.2,6-9.9
			c1.4-4.7,2.5-10.9,3-18.7c0.6-7.8,0.9-17.4,0.9-28.9v-19.5c0-11.3-0.3-20.6-0.9-27.8c-0.6-7.2-1.6-12.9-3.2-17
			c-1.5-4.1-3.6-7-6.1-8.5c-2.5-1.5-5.8-2.3-9.6-2.3c-4.1,0-7.4,1-9.9,2.9c-2.5,1.9-4.5,5.2-6,9.9c-1.4,4.7-2.5,10.9-3,18.7
			c-0.6,7.8-0.9,17.4-0.9,28.9v19.5C542.7,524.1,543,533.4,543.6,540.6z"/>
	</g>
	<g>
		<path d="M668.7,441l-3.8,40.9h0.5c3.4-4.7,7.8-8.2,13.2-10.3c5.4-2.1,12-3.2,19.8-3.2c8.6,0,15.8,1.6,21.4,4.9
			c5.7,3.3,10.2,7.7,13.5,13.1c3.3,5.4,5.6,11.5,7,18.4c1.4,6.9,2,13.8,2,20.9c0,10-0.8,19-2.5,27.2c-1.7,8.1-4.7,15.1-9,20.9
			s-10.2,10.2-17.6,13.2c-7.4,3-16.9,4.4-28.4,4.4c-11.3,0-20.5-1.5-27.5-4.6c-7-3-12.4-7.1-16.1-12.1c-3.7-5-6.2-10.4-7.5-16.2
			c-1.3-5.8-1.9-11.3-1.9-16.4v-4.8h35c0,3,0.2,6.3,0.5,9.6c0.3,3.4,1.1,6.6,2.4,9.5c1.3,3,3.1,5.4,5.5,7.4c2.4,1.9,5.5,2.9,9.4,2.9
			c7.6,0,13.1-2.9,16.4-8.8s4.9-14.6,4.9-26.3c0-7.4-0.3-13.6-1-18.5c-0.7-4.9-1.8-8.8-3.4-11.7c-1.6-2.9-3.8-4.9-6.5-6.1
			c-2.7-1.2-6.1-1.8-10.2-1.8c-5.2,0-9.3,1.5-12.1,4.4c-2.8,3-4.5,7-5.2,12.1h-32.7l6.6-97.7h93.6V441H668.7z"/>
	</g>
	<g>
		<polygon class="st0" points="1390.5,630.7 890.4,632.2 887.3,396.9 1387.3,395.4 		"/>
		
			<rect x="819.8" y="181.8" transform="matrix(0.7071 -0.7071 0.7071 0.7071 -20.2405 951.1353)" class="st4" width="636.4" height="636.4"/>
		<g>
			<path class="st5" d="M1115.2,260.9"/>
		</g>
		<path class="st1" d="M1218.6,241.9l22.9-5.3l0,0c0,0,10.7-2.5,12.8,6.9c2.2,9.7-8.4,12.2-8.4,12.2l-23,5.3l-0.2,0.3
			c-2.2,6.1-7.5,10.9-14.4,12.1l-222.5,51.4c-10.2,1.8-19.9-5-21.7-15.2c-1.8-10.2,5-19.9,15.2-21.7l222.5-51.4
			c6.2-1.1,12.3,1,16.4,5.1L1218.6,241.9z"/>
		<g>
			<path d="M1106.9,752.7c0-30.1,22-32.7,30.2-32.7c17.7,0,31.8,10.4,31.8,29.2c0,15.9-10.3,24-19.3,30.1
				c-12.2,8.6-18.6,12.8-20.7,17.1h40.1l0,16.2h-63.2c0.7-10.8,1.4-22.1,21.5-36.7c16.7-12.1,23.3-16.8,23.3-27.2
				c0-6.1-3.9-13.2-12.8-13.2c-12.8,0-13.2,10.5-13.3,17.3H1106.9z"/>
		</g>
		
			<rect x="853.8" y="215.8" transform="matrix(0.7071 -0.7071 0.7071 0.7071 -20.2393 951.138)" class="st6" width="568.3" height="568.3"/>
		<g>
			<path d="M902.8,438.3h4.4c29.5,0,37.4-21.9,38.1-38.4l25.2,0l0,221.8h-30.6V468.9l-37,0L902.8,438.3z"/>
		</g>
		<g>
			<path d="M1050.9,397.3c41.7,0,61.5,35.9,61.5,113.7c0,77.8-19.7,114-61.5,114c-41.7,0-61.5-36.2-61.5-114
				C989.4,433.2,1009.2,397.3,1050.9,397.3z M1050.9,590c20,0,25.5-21.9,25.5-79c0-57.2-5.5-78.7-25.5-78.7
				c-20,0-25.5,21.6-25.5,78.7C1025.4,568.2,1030.9,590,1050.9,590z"/>
			<path d="M1189.9,397.3c41.7,0,61.5,35.9,61.5,113.7c0,77.8-19.7,114-61.5,114c-41.7,0-61.5-36.2-61.5-114
				C1128.4,433.2,1148.2,397.3,1189.9,397.3z M1189.9,590.1c20,0,25.5-21.9,25.5-79c0-57.2-5.5-78.7-25.5-78.7
				c-20,0-25.5,21.6-25.5,78.7C1164.4,568.2,1169.9,590.1,1189.9,590.1z"/>
			<path d="M1297.4,486c5.7-5.6,12.7-12.2,27.8-12.2c20.8,0,47,20.6,47,71.5c0,30.3-10.7,79.7-56.4,79.7c-24.3,0-49-20.6-50.5-65.3
				l30.6,0c1.3,18.1,8.1,30.3,21.7,30.3c14.7,0,23.2-17.8,23.2-41.6c0-19.7-6.6-39.7-22.7-39.7c-4.2,0-14.7,0.3-20.6,15.9l-27.3-1.9
				l10.7-121.9l85.3,0v36.9h-63.2L1297.4,486z"/>
		</g>
	</g>
</g>
</svg>
