<?xml version="1.0" encoding="utf-8"?>
<!-- Generator: Adobe Illustrator 22.1.0, SVG Export Plug-In . SVG Version: 6.00 Build 0)  -->
<svg version="1.1" id="Layer_1" xmlns="http://www.w3.org/2000/svg" xmlns:xlink="http://www.w3.org/1999/xlink" x="0px" y="0px"
	 viewBox="0 0 1000 1000" style="enable-background:new 0 0 1000 1000;" xml:space="preserve">
<style type="text/css">
	.st0{fill:#FFFFFF;}
	.st1{fill:#E31837;}
</style>
<rect x="181.7" y="181.7" transform="matrix(0.7071 -0.7071 0.7071 0.7071 -207.1666 499.9156)" class="st0" width="636.2" height="636.6"/>
<polygon class="st1" points="118.6,431.4 118.6,568.8 49,500 "/>
<polygon class="st1" points="187.5,362.6 257.1,292.9 257.1,707.4 187.5,637.8 "/>
<polygon class="st1" points="326.3,223.3 395.7,153.9 395.7,846.2 326.4,776.9 "/>
<polygon class="st1" points="465.1,84.5 500.2,50.3 534.4,85.3 534.4,915.5 500,949.9 464.9,914.9 "/>
<polygon class="st1" points="672.3,223.3 602.9,153.9 602.9,846.2 672.2,776.9 "/>
<polygon class="st1" points="810.4,362.6 740.8,292.9 740.8,707.4 810.4,637.8 "/>
<polygon class="st1" points="881.4,431.4 881.4,568.8 951,500 "/>
<g>
	<path d="M500,53.3L946.7,500L500,946.7L53.3,500L500,53.3 M500,49L49,500l451,451l450.1-450.1l0.9-0.9L500,49L500,49z"/>
</g>
<path d="M483.5,444.8c-37.8-7-68.7-31.7-81.3-66.4c-6.1-16.7-4-34.9-12.1-50.8c-2.4-4.7-7.2-8.1-9.5-13.2
	c15.2-1,19.6,15.8,31.5,21.8c2.6,1.3,5.4-1.2,5.8-4.3c0.8-6.3-1.7-11.9-0.1-18.3c2.2-8.6,6-15.9,4-25.1c-2-8.8-8.8-14.9-9.4-23.7
	c-0.1-1.5,2.4-0.9,3.3-0.5c14.7,6.4,20.7,21.7,31.6,32.3c1.3,1.3,2.8-0.9,3.3-2.1c8.3-20.2,8.5-41,5.4-63.2
	c-0.4-3.2-1.4-6.8-3.9-8.2c-15.6-8.7-17.5-27.4-15-26.1c4,2.1,5.5,6.5,8.9,9.5c6.6,5.7,14.3,7.9,21.6,11.9
	c10,5.5,10.1,19.5,20.2,23.6c2.3,0.9,5.1-2.2,5.6-5.5c3.3-20.3-9.7-34.9-15.5-52.7c-3.1-9.5-2.4-19.2,0.3-28.7
	c2.8-10.2,6-26.9,18.4-26.1c0.5,0,1.6,3.9,0.6,6c-3.9,8.9-2.1,18.7,1.7,26.4c11.3,22.6,28.2,42.6,29.4,69c0.7,16.1-8.9,30-7.9,45.7
	c0.3,4.4,6,6.9,10.4,3.6c9-6.7,11.9-17.3,14.5-28c2.9-12.2-6.1-22.4-3.7-34.3c15.9,0.3,22.6,17.7,24.7,31.3
	c3.1,20.9-4.2,38.9-12.1,57.3c-2.1,4.9-5.8,13,1.3,14.3c8.9,1.6,13.7-6.5,18.6-12.4c11.2-13.2,13.8-30.6,21.6-45.5
	c20.7,25.2,2.6,58.2-13.9,82c-2.4,3.4-5.3,8-4,12.4c1.3,4.4,6.5,5.4,10,2.8c14.1-10.3,20.9-26,26.4-42.3c0.2-0.4,1.8-0.3,1.9,0.7
	c3.1,23.4-2.5,45.1-12.4,65.4c-15.1,30.8-42.4,58.2-78.1,60.4c0-1-0.3-2.5,0.2-2.8c8.7-5.6,13.8-13.7,19.1-22
	c8.4-13.3,11.7-27.4,14.7-43.2c1.1-5.5-1.1-16.9-8.4-13c-9.1,4.9-13.9,15.6-24,19.9c3.8-8.4,15.4-22.2,6.2-26.9
	c-4.8-2.4-9.6,7.7-16.8,8.5c2.8-16.6,14.7-32.2,6.8-49.5c-5.5-12-10.7-26.1-22.6-29.7c-6.7-2.1-9,11.3-6.7,18.1
	c2.6,7.5,8.3,13.7,9.5,21.6c1.1,6.8,3.2,23.4-4.1,20.6c-10-3.9-12-17.5-11.9-29.1c0-1.2-2.2-4.6-4.6-3.5c-4,1.9-6.5,5.9-7.5,10.4
	c-4.2,20.1,2.8,38.3,6.5,57.1c-13.3-9.7-12.3-28.9-17.8-43.4c-1.7-4.5-3.6-8.9-8.9-8.9c-2.5,0-5.2,1.9-5.7,4.3
	c-2.5,10.4,5.9,21.4,0,29.6c-2.2,3-8.9-2.1-14.1-1.9c-5.4,0.2-9.5,5.1-7.3,10.2c4.4,10.3,16.3,13.7,22.9,22.5
	c2.4,3.2,5.1,6.2,6.9,9.8c3.8,7.4,5.4,15.4,9.8,22.5c4.6,7.5,13.1,11.3,17.2,19.3C484.5,444.8,484,444.9,483.5,444.8 M506.3,276.3
	c7.7-0.9,9.8-9.8,10.9-16.9c1.7-11.4,0.2-24.6-8-32.4c-1.3-1.3-2.9,1-3.3,2.1c-3.7,13.3-9.8,25.8-8.5,39.5
	C497.7,271.9,502.2,276.8,506.3,276.3 M598.8,455.9H398.5v14.2h200.3V455.9z"/>
<path d="M500,91L91,500l403.8,403.8l5.2,5.2l403.8-403.8l5.2-5.2L500,91z M101.5,500L500,101.5L898.5,500L500,898.5L101.5,500z"/>
<g>
	<path d="M504.9,824.8h-42.7v-18.7l43.8-58.8h18.3v60.7h13.4v16.9h-13.4v23.4h-19.5V824.8z M504.9,772.9h-0.4l-26.1,35h26.5V772.9z"
		/>
</g>
</svg>
