<?xml version="1.0" encoding="utf-8"?>
<!-- Generator: Adobe Illustrator 22.1.0, SVG Export Plug-In . SVG Version: 6.00 Build 0)  -->
<svg version="1.1" id="Layer_1" xmlns="http://www.w3.org/2000/svg" xmlns:xlink="http://www.w3.org/1999/xlink" x="0px" y="0px"
	 viewBox="0 0 1000 1000" style="enable-background:new 0 0 1000 1000;" xml:space="preserve">
<style type="text/css">
	.st0{fill:#FFFFFF;}
	.st1{fill:#E31837;}
	.st2{font-family:'HelveticaNeue-Bold';}
	.st3{font-size:144.181px;}
</style>
<g>
	<polygon class="st0" points="52.1,499.8 499.9,52.1 947.9,500.1 500.1,947.8 	"/>
	<path d="M499.9,54.2l445.9,445.8L500.1,945.7L54.2,499.8L499.9,54.2 M499.9,50L50,499.8l450.1,450.1L950,500.1L499.9,50L499.9,50z"
		/>
</g>
<polygon class="st1" points="50.2,500 950,500 500,949.9 "/>
<path d="M499.9,91.1l-409,409l403.7,403.7l5.2,5.2l403.7-403.7l5.2-5.2L499.9,91.1z M101.4,500.1l398.5-398.5l398.5,398.5
	L499.9,898.5L101.4,500.1z"/>
<path d="M484.7,453.1c-37.8-7-68.7-31.7-81.4-66.4c-6-16.7-4-34.9-12.1-50.8c-2.4-4.7-7.2-8.1-9.5-13.2c15.2-1,19.6,15.8,31.5,21.8
	c2.6,1.3,5.4-1.2,5.8-4.2c0.8-6.3-1.7-11.9-0.1-18.4c2.2-8.6,6-15.9,4-25.1c-2-8.8-8.8-14.8-9.4-23.7c-0.1-1.5,2.4-0.9,3.3-0.5
	c14.7,6.4,20.7,21.7,31.6,32.3c1.3,1.3,2.8-0.9,3.3-2.1c8.3-20.2,8.5-41,5.4-63.1c-0.4-3.2-1.5-6.8-4-8.1
	c-15.6-8.7-17.5-27.5-15-26.1c4,2.1,5.5,6.6,8.9,9.5c6.6,5.6,14.3,7.9,21.6,11.9c10,5.4,10.1,19.5,20.2,23.6
	c2.3,0.9,5.1-2.2,5.6-5.5c3.3-20.4-9.7-35-15.5-52.7c-3.1-9.5-2.3-19.2,0.3-28.7c2.8-10.3,6-27,18.4-26.1c0.5,0,1.6,3.9,0.6,6
	c-3.9,8.9-2.1,18.7,1.7,26.4c11.3,22.7,28.2,42.6,29.4,69c0.7,16.1-8.9,29.9-7.9,45.7c0.3,4.4,6,6.9,10.4,3.6
	c9-6.7,11.9-17.3,14.5-28c2.9-12.2-6.1-22.4-3.7-34.3c15.9,0.3,22.6,17.7,24.7,31.3c3.2,20.8-4.2,38.9-12.1,57.3
	c-2.1,4.9-5.8,13,1.3,14.3c8.9,1.7,13.7-6.5,18.7-12.4c11.2-13.2,13.8-30.6,21.6-45.5c20.7,25.1,2.6,58.2-13.9,82
	c-2.4,3.4-5.3,8-4,12.4c1.3,4.4,6.5,5.4,10,2.8c14.1-10.3,20.9-26,26.4-42.2c0.2-0.4,1.8-0.4,1.9,0.7c3.1,23.4-2.6,45.1-12.4,65.4
	c-15.1,30.9-42.5,58.3-78.2,60.4c0-1-0.3-2.5,0.2-2.8c8.7-5.6,13.8-13.7,19.1-22c8.4-13.3,11.7-27.4,14.7-43.2
	c1.1-5.5-1.1-16.9-8.4-13c-9.1,4.9-13.9,15.5-24,19.9c3.8-8.4,15.4-22.2,6.2-26.8c-4.8-2.4-9.6,7.7-16.8,8.5
	c2.8-16.6,14.7-32.2,6.8-49.5c-5.5-12-10.7-26-22.6-29.7c-6.7-2.1-9.1,11.4-6.7,18.1c2.6,7.5,8.3,13.7,9.5,21.6
	c1.1,6.8,3.2,23.4-4.1,20.6c-10-3.9-12-17.5-11.8-29.1c0-1.2-2.2-4.6-4.6-3.5c-4,1.9-6.5,5.9-7.5,10.4c-4.2,20.2,2.8,38.4,6.6,57.1
	c-13.3-9.7-12.3-28.9-17.8-43.4c-1.7-4.5-3.6-8.9-8.9-8.9c-2.5,0-5.2,1.9-5.8,4.3c-2.5,10.4,5.9,21.4,0,29.6
	c-2.2,3.1-8.9-2.1-14.1-1.9c-5.3,0.2-9.5,5-7.3,10.2c4.4,10.3,16.3,13.7,22.9,22.5c2.4,3.2,5.1,6.2,6.9,9.8
	c3.8,7.4,5.4,15.4,9.8,22.5c4.6,7.5,13.1,11.4,17.2,19.3C485.7,453.1,485.2,453.2,484.7,453.1 M507.5,284.6
	c7.7-0.9,9.8-9.8,10.9-16.9c1.7-11.4,0.2-24.6-8-32.4c-1.3-1.3-2.9,1-3.3,2.1c-3.7,13.3-9.8,25.8-8.4,39.5
	C499,280.2,503.4,285.1,507.5,284.6 M600.1,464.2H399.8v14.2h200.3V464.2z"/>
<text transform="matrix(1 0 0 1 459.8799 848.1855)" class="st2 st3">4</text>
</svg>
