<?xml version="1.0" encoding="utf-8"?>
<!-- Generator: Adobe Illustrator 22.1.0, SVG Export Plug-In . SVG Version: 6.00 Build 0)  -->
<svg version="1.1" id="Layer_1" xmlns="http://www.w3.org/2000/svg" xmlns:xlink="http://www.w3.org/1999/xlink" x="0px" y="0px"
	 viewBox="0 0 1000 1000" style="enable-background:new 0 0 1000 1000;" xml:space="preserve">
<style type="text/css">
	.st0{fill:#007DC3;}
	.st1{fill:#FFFFFF;}
</style>
<g>
	
		<rect x="181.8" y="181.8" transform="matrix(0.7071 -0.7071 0.7071 0.7071 -207.1069 499.9997)" class="st0" width="636.4" height="636.4"/>
	<path class="st1" d="M500,91.9L91.9,500l402.9,402.9l5.2,5.2l402.9-402.9l5.2-5.2L500,91.9z M102.3,500L500,102.3L897.7,500
		L500,897.7L102.3,500z"/>
	<path class="st1" d="M483.5,454.8c-37.7-7-68.6-31.7-81.2-66.3c-6-16.6-4-34.9-12.1-50.7c-2.4-4.7-7.1-8.1-9.4-13.2
		c15.2-1.1,19.5,15.7,31.4,21.7c2.6,1.3,5.3-1.2,5.7-4.2c0.9-6.3-1.7-11.8-0.1-18.3c2.2-8.6,6-15.9,4-25c-2-8.7-8.7-14.8-9.4-23.7
		c-0.1-1.5,2.4-0.9,3.3-0.5c14.6,6.4,20.7,21.7,31.6,32.2c1.3,1.3,2.8-1,3.3-2.1c8.3-20.2,8.5-40.9,5.4-63c-0.4-3.2-1.4-6.8-3.9-8.1
		c-15.6-8.7-17.5-27.4-15-26.1c4,2.1,5.5,6.5,8.9,9.4c6.6,5.6,14.3,7.9,21.6,11.9c9.9,5.4,10.1,19.4,20.1,23.6
		c2.3,0.9,5.1-2.2,5.6-5.4c3.3-20.3-9.7-34.9-15.5-52.6c-3.1-9.5-2.4-19.1,0.3-28.7c2.8-10.2,6-26.9,18.4-26c0.5,0,1.6,3.8,0.6,6
		c-3.9,8.9-2.1,18.7,1.7,26.3c11.3,22.6,28.2,42.5,29.3,68.9c0.7,16.1-8.8,29.9-7.9,45.6c0.2,4.4,6,6.8,10.3,3.6
		c9-6.7,11.9-17.3,14.5-28c2.9-12.1-6.1-22.4-3.7-34.2c15.9,0.3,22.6,17.6,24.7,31.3c3.1,20.8-4.2,38.8-12.1,57.2
		c-2.1,4.9-5.8,13,1.3,14.3c8.9,1.6,13.6-6.5,18.6-12.4c11.1-13.1,13.8-30.5,21.6-45.4c20.7,25.1,2.6,58-13.9,81.8
		c-2.4,3.5-5.3,8-4,12.4c1.3,4.4,6.5,5.4,10,2.8c14.1-10.3,20.8-25.9,26.4-42.2c0.2-0.4,1.8-0.4,1.9,0.7c3.1,23.4-2.5,45-12.4,65.2
		c-15,30.8-42.4,58.1-78,60.3c0-1-0.3-2.5,0.2-2.8c8.7-5.6,13.8-13.7,19-21.9c8.4-13.3,11.7-27.3,14.7-43.1
		c1.1-5.5-1.1-16.8-8.4-12.9c-9.1,4.9-13.9,15.5-24,19.8c3.8-8.4,15.4-22.2,6.1-26.8c-4.7-2.4-9.6,7.7-16.8,8.5
		c2.8-16.5,14.7-32.1,6.8-49.4c-5.5-12-10.7-26-22.5-29.6c-6.7-2-9,11.3-6.7,18c2.6,7.5,8.3,13.6,9.5,21.6c1.1,6.8,3.2,23.3-4,20.5
		c-10-3.9-12-17.4-11.8-29c0-1.2-2.2-4.6-4.6-3.5c-4,1.9-6.5,5.9-7.4,10.4c-4.2,20.1,2.8,38.3,6.5,57c-13.3-9.6-12.3-28.8-17.7-43.3
		c-1.7-4.5-3.5-8.9-8.9-8.9c-2.5,0-5.2,1.9-5.7,4.3c-2.5,10.3,5.9,21.4,0,29.6c-2.2,3-8.9-2.1-14.1-1.9c-5.3,0.2-9.4,5.1-7.2,10.2
		c4.4,10.3,16.3,13.6,22.9,22.5c2.4,3.2,5.1,6.2,6.9,9.8c3.7,7.4,5.4,15.3,9.7,22.5c4.6,7.5,13,11.3,17.1,19.3
		C484.5,454.8,484,454.9,483.5,454.8 M506.2,286.7c7.7-1,9.9-9.8,10.9-16.8c1.7-11.3,0.2-24.6-8-32.4c-1.3-1.3-2.9,1-3.3,2.1
		c-3.7,13.3-9.7,25.8-8.4,39.4C497.7,282.3,502.2,287.2,506.2,286.7 M598.6,465.9H398.8V480h199.9V465.9z"/>
	<path class="st1" d="M462.3,824.1v-18.7l43.7-58.7h18.3v60.6h13.4v16.8h-13.4v23.3h-19.4v-23.3H462.3z M504.5,772.3l-26,35h26.5
		v-35H504.5z"/>
</g>
</svg>
