<?xml version="1.0" encoding="utf-8"?>
<!-- Generator: Adobe Illustrator 22.1.0, SVG Export Plug-In . SVG Version: 6.00 Build 0)  -->
<svg version="1.1" id="Layer_1" xmlns="http://www.w3.org/2000/svg" xmlns:xlink="http://www.w3.org/1999/xlink" x="0px" y="0px"
	 viewBox="0 0 1000 1000" style="enable-background:new 0 0 1000 1000;" xml:space="preserve">
<style type="text/css">
	.st0{fill:#FFDD00;}
	.st1{fill-rule:evenodd;clip-rule:evenodd;}
</style>
<g>
	
		<rect x="181.8" y="181.8" transform="matrix(0.7071 -0.7071 0.7071 0.7071 -207.1075 499.9855)" class="st0" width="636.4" height="636.4"/>
	<path d="M500,91.8L91.9,500l402.9,402.9l5.2,5.2l402.9-402.9l5.2-5.2L500,91.8z M102.3,500L500,102.3L897.7,500L500,897.7
		L102.3,500z"/>
	<path class="st1" d="M584.5,366.5c0,47-38.1,85-85,85c-47,0-85-38.1-85-85c0-7.6,2.2-18.9,2.2-18.9c-9.2-3.8-10.4-16.7-11.3-19.8
		c-6.2-21.8,14.9-43.8,1.4-71.8c10.1-2.1,16.3,12.4,18.3,14.6c22-41.9,2.3-67.1,3.2-69c13.2-1.5,19.5,18.4,21.2,22.6
		c17.1-17.6,18.2-53.1,6.6-66c12-5.3,32,18.1,32.9,17.9c0,0,16.4-36.4,6.2-53.7c27.9,2,33.6,58.5,34.7,71.7c0.3,0.2,9.1-14-0.2-33.6
		c26.2,10,25.8,60.2,23.5,67.9c3.5-0.4,15.8-13.7,4.1-36.1c35.4,15.3,17.4,66.5,14.4,85.2c7.1-5.7,13.2-8.5,21.9-7.8
		c0.3,1.2-18.2,10.9-8.5,35.4c0.2,0.5,12.8,29.8-1.8,42.7C583.4,347.9,584.5,359,584.5,366.5 M548.2,288.8c2.3-4,6.1-9.1,1.8-14.2
		C548.1,277,543.2,285.8,548.2,288.8 M493.5,260.2c1.1,10.3,4.2,19.3,5.7,21.2c0.9-0.1,1.7-0.3,1.8-0.5c7.1-7.3,5.6-44.6-6.6-47.3
		C493.3,239.3,492.5,250.4,493.5,260.2 M522.6,267.3c-2.4,1.9-4.5,10.3,0.4,13.3C527.5,277.8,523.3,268.5,522.6,267.3 M557.6,305.5
		c0.4,1.3,1.9,1.3,3-0.2C559.6,304.1,558.6,304.3,557.6,305.5 M474.8,273.5c0.1,1.3,1.8,8.5,4.1,8.2c6.2-0.8,2.5-12-3-11.7
		C474.8,271.6,474.8,272.9,474.8,273.5 M449.9,278.2c-1.2,5.6,2.1,13,6.4,15.1C462.1,289.2,456.5,278,449.9,278.2 M430,313.2
		c0.2,1.5,0.6,3.6,2.5,3C434.9,314.9,433,310.5,430,313.2 M570.6,367.3c0,39.3-31.9,71.1-71.1,71.1s-71.1-31.9-71.1-71.1
		c0-39.3,31.8-71.1,71.1-71.1S570.6,328,570.6,367.3 M599.5,462.1H399.1v14.2h200.5V462.1z"/>
	<path d="M430.4,708.4l-4,22.9l0.3,0.3c2.8-2.8,5.8-4.8,8.9-6c3.2-1.2,6.8-1.8,10.8-1.8c5,0,9.4,0.9,13.2,2.7
		c3.8,1.8,7.1,4.3,9.7,7.4c2.6,3.1,4.7,6.7,6,10.8c1.4,4.2,2.1,8.6,2.1,13.3c0,5.2-1,10-3,14.4c-2,4.5-4.7,8.4-8.1,11.6
		c-3.4,3.3-7.4,5.8-11.9,7.5c-4.5,1.8-9.3,2.6-14.4,2.5c-4.9,0-9.6-0.6-14-1.9c-4.5-1.3-8.4-3.3-11.9-6c-3.4-2.7-6.2-6-8.3-10
		c-2.1-4-3.1-8.6-3.2-13.9H423c0.5,4.6,2.2,8.3,5.2,11c3,2.7,6.8,4.1,11.4,4.1c2.7,0,5.1-0.5,7.3-1.6c2.2-1.1,4-2.5,5.5-4.3
		c1.5-1.8,2.6-3.8,3.4-6.2c0.8-2.3,1.2-4.8,1.2-7.3c0-2.6-0.4-5-1.2-7.4c-0.8-2.3-1.9-4.3-3.5-6c-1.5-1.7-3.4-3.1-5.5-4
		c-2.1-1-4.6-1.4-7.3-1.4c-3.6,0-6.6,0.6-8.9,2c-2.3,1.3-4.4,3.3-6.5,6.1h-18.4l9.9-55.7h56.3v16.8H430.4z"/>
	<rect x="488.6" y="770.1" width="22.6" height="22.2"/>
	<path d="M556,792.3V727h-25.3v-15.4c3.5,0.1,7-0.2,10.3-0.8c3.3-0.6,6.3-1.7,8.9-3.3c2.6-1.6,4.9-3.7,6.7-6.3
		c1.8-2.6,3-5.8,3.6-9.6h16.3v100.7H556z"/>
</g>
</svg>
