<?xml version="1.0" encoding="utf-8"?>
<!-- Generator: Adobe Illustrator 22.1.0, SVG Export Plug-In . SVG Version: 6.00 Build 0)  -->
<svg version="1.1" id="Layer_1" xmlns="http://www.w3.org/2000/svg" xmlns:xlink="http://www.w3.org/1999/xlink" x="0px" y="0px"
	 viewBox="0 0 1000 1000" style="enable-background:new 0 0 1000 1000;" xml:space="preserve">
<style type="text/css">
	.st0{fill:#FFFFFF;}
	.st1{fill-rule:evenodd;clip-rule:evenodd;}
	.st2{fill-rule:evenodd;clip-rule:evenodd;fill:#FFFFFF;}
</style>
<path class="st0" d="M50.9,500c0.9,0.9,448.3,448.3,449.1,449.1c0.9-0.9,448.2-448.3,449.1-449.1C948.3,499.1,500.9,51.7,500,50.9
	C499.1,51.7,51.7,499.1,50.9,500"/>
<g>
	
		<rect x="183.3" y="183.3" transform="matrix(0.7071 -0.7071 0.7071 0.7071 -207.108 500.0287)" class="st0" width="633.4" height="633.4"/>
	<path d="M500,54.2L945.8,500L500,945.8L54.2,500L500,54.2 M500,50L50,500l450,450l449.1-449.1l0.9-0.9L500,50L500,50z"/>
</g>
<path d="M500,91.8L91.9,500l402.9,402.9l5.2,5.2l402.9-402.9l5.2-5.2L500,91.8z M102.3,500L500,102.3L897.7,500L500,897.7L102.3,500
	z"/>
<path class="st1" d="M568.9,345.4c8.8-2.3,18.6-7.2,26.7-12.2c2.4-1.5,9.2-6,12.2-8.3c10-7.8,13.6-18.3,22.8-26.3
	c9.2-7.3,26.9-3,27.1,4.8c0.2,7.8,1.6,15.7,3.2,16.4c8.2,3.8,19.7,42.1-6.5,42.5c-0.2,0-22.7-7.2-37.9-3.2
	c-6.9,1.8-13.1,6.7-21.5,10.5c-4.2,2-29,12-33.8,15.4c-1.4,1-1.5,2-2.4,2.7c1.3,8.7,13.6,9.2,19.2,13.3c0.1,0.1,17.1,9.3,17.3,9.4
	c8.1,4.2,18.8,6,21.7,5.8c0.4,0,7.5-1.6,11.4-2.7c16.8-4.9,26.1,2,27.1,2.7c9.1,6.9,16.1,31.7-9.5,38.6c-1.1,7.4-1.7,14.6-7.3,20.7
	c-0.2,0.2-15.7,12.5-28.8,1.3c-7-6-10.7-23.7-10.7-24.1c-1.1-10.5-11.2-14.2-20.3-19.6c-5-3-9.3-5.9-13.4-7.8
	c-0.5-0.2-14.8-7.8-24.3-8.6c-10.2-0.9-23.7,7-31,10.2c-26.2,5.1-30.4-10-44.4-9c-10.7,0.8-25.1,9.6-33.8,14.2
	c-1.3,0.7-15.6,6.9-18.9,11.8c0,0.1-9.6,11-11.7,15.7c-2.8,6-7.1,12.5-11.8,15.3c-1.5,0.9-13.7,9.6-21.6,2.4
	c-6.3-6.4-6.6-21.5-6.7-21.6c-3.9-3.5-11.3-9-12.6-12.4c-6-15.1,3.7-27.7,15.4-26.9c2.5,0.2,16.7,7.5,32.8-3.9
	c0.3-0.2,30.4-12.1,41.8-17.7c5.9-2.9,7-5.4,7.4-5.5c-11.7-8.8-26.7-15.4-41.6-20c-8.5-3-20-10.5-33.4-9.8
	c-11,0.6-27.4,8.8-38.9-0.8c-1.6-1.3-11.2-18.5,5.1-31c-0.9-9.9-6.5-13.1-6.3-21.2c0.3-10.4,19.7-17.7,32-6.7
	c4.9,4.4,11.6,10,12.7,11.4c9,12.1,39.7,30.1,43.2,32.2c6.9,2.3,14.3,6.1,20,7.5c-7.2-7-15.7-8.2-20.8-14.1c-3.2-3.7-5-12-5.9-17.7
	c-1-6.6,0.3-17,0-24c-1.6-2.9-23.1-42.3-14.1-67.9c6.9-19.8,61.6-52.9,70.3-55.7c10.2-5.2,22.8-9.6,38.1-9.8
	c11.9-0.2,43.6,19.8,51,26.3c15.3,10.6,32.9,22.8,41.6,37.3c7.9,10-0.4,40.7-0.4,40.4c0.9,0.2-11.8,27.5-9.8,39.3
	c1.3,7.4,0.3,20.4-7.1,28.7C577.9,338,572.9,340.3,568.9,345.4"/>
<path class="st2" d="M591.7,252.7c0.4-1.8,1-5.5,1.2-8.3c1.6-23.5-28.9-39.1-49.1-52.6c-1.7-1.2-28.2-19.1-44.8-17.7
	c-20.3,1.7-44.5,16.5-63.2,30.6c-3.4,2.6-11.1,7.7-16.1,11.8c-1.4,1.2-3.4,3.1-3.9,3.9c-2.9,4.5-5.6,9.2-6.7,16.1
	c-1.7,11.5,2.5,25.5,7.5,35.7c0-0.5,0.5-12.1,0.8-24.7c0.1-5.9,7.1-16.8,7.5-17.3c2.3-2.5,6.7-8.1,10.6-7.5
	c-6.1,7.6-7.6,13.7-8.6,23.6c-1.4,13.1,1.1,35.1,1.1,35.9c-0.6,7-5.1,15-5.4,20.3c-0.8,8.3-1.2,9.2,0.4,16.5
	c2.7,5.7,4.6,10.4,8.2,13.7c1.9,1.7,7.4,5.6,7.9,5.9c4.9,3.4,25.9,15.4,26.3,15.7c6.5,5.1,0.9,12.1,5.5,18c4,2.5,21.2,3.9,27.1,3.9
	c1.9,0,19.2-1.5,19.6-1.6c21.3-1.4,8.7-17.1,12.2-20.8c0.9-1,2.9-3.9,3.9-4.7c4.3-3.7,9.6-4.3,14.5-7c7.6-4.3,29-10.7,28.3-34.6
	c-0.2-5.9-2-12.3-2.8-18.1c-1.1-8.1,2.8-17.1,2.8-18.1c1.9-13.2,0.7-34.6-7.5-41.6c0-0.2-4.2-4.8-4.3-6.7c5.8,1.8,10.9,3.5,14.5,7.8
	c7.1,8.4,7.7,23,7.1,32.2c-0.1,1.6-1.2,2.7-0.1,3.8c0,0,0.1,0.1,0.1,0.1C585.7,267.3,590.7,257.6,591.7,252.7"/>
<path class="st2" d="M434.6,360.3c-6.4-2.3-11.9-6.2-18.8-8.6c-17.8-8.9-53.1-40.2-56.5-43.2c-2.1-1.8-4.4-5.2-8.2-5.9
	c-5.2-1-11.3,2.7-11.4,8.6c0,2.1,2.9,9.5,6.7,8.2c1.4-0.4,1.2-2.7,3.5-2.3c7.8,12.3-15,16.7-14.9,29.1c1.4,4.9,4.2,7.4,7.4,8.3
	c2.2,0.6,12-0.5,12.6-0.8c5.3-3,7.9-4.4,13.8-4.7c11.6-0.6,58.9,21.8,59.6,22c5.5,1.6,8.5,7.1,15,7.4c0.6-5.1,2.3-6.9,1.2-14.5
	C442.4,362.5,436.2,360.8,434.6,360.3"/>
<path class="st2" d="M662.4,343.8c0.2-1.4,0.6-10.9-2.7-11c-5.3-0.2-1.3,10.1-9,7.8c-1.9-6-0.6-14.3,0.4-23.2
	c0.3-2.9,0.1-15.3-10.6-13.3c-3.4,0.6-7,4.3-9.4,7.4c-2.8,3.6-4.3,9.5-7.5,13.8c-5.9,7.8-50.8,29.5-64.4,36.5
	c0.9,6.4-0.6,9.2,1.2,14.1c10.3-4.5,57.5-27.3,58.1-27.1c7.2-3.2,30.9,2.1,36.5,4.1C655.7,353.3,661.3,350.5,662.4,343.8"/>
<path class="st2" d="M456.6,388.4c1.3,8.4,17,20.8,29,25.7c10.6,4.3,21,3.1,28.3,0.4c-0.2,0,17.1-7.4,22-11.4
	c6.7-5.3,12.3-12.3,13.6-20.1c0-0.2,1.5-11.9,0.5-24.6c0-0.7-1.2-3-3.9-1.6c-2,16.1,0.1,25.5-13,33c-3.7,2.1-11.6,5-15.7,6.7
	c-14.8,4.2-38.2,1.3-51.4-9.4c-2.3-1.8-4-4.5-4.3-7.4c-2.2-18.4-4.5-19.9-5.9-19.3C453.4,371.9,456.5,387.7,456.6,388.4"/>
<path class="st2" d="M372.6,470.6c2.4,0.1,4.3-0.1,6.3-0.4c8.4-4.1,14.5-13.3,19.6-21.2c2.4-3.7,4.6-8.8,8.2-11.4
	c7.2-5.1,32.5-18.1,32.6-18.4c5.9-2.7,11.6-5.6,16.1-9.8c0.1-2.2-2.7-6.2-5.5-7.8c-9.7,0.9-14.8,4-23.9,7.4
	c-15.1,5.8-32.3,14.3-44.4,19.3c-5,0.2-9.3-2.9-13.7-3.5c-6.9-1.1-13.6,4.2-13,11c0.5,5,5.5,9.1,7.9,10.6c5.5,2.7,0.6-10,7.8-8.6
	C373.9,440,365.8,467.1,372.6,470.6"/>
<path class="st2" d="M646.9,443.9c1.2,0.1,2.7,0.4,3.6,0c11.9-4.4,2.7-18,2-18.9c-1-1.2-4.3-2.9-4.6-2.9
	c-10.5-2.7-23.8,2.6-31.1,3.3c-7.4,0.7-14.7-0.7-22.8-5.1c-0.2-0.1-4.6-3-5.9-3.9c-7.1-4.3-32.3-23.7-40.4-9
	c8.8,5,19.4,9.3,27.5,13.8c7.2,4,17.3,11.1,26.3,20c1.4-2.5,2.2-5.7,5.5-6.3c1.9,10,0.6,10.2,1.6,20.4c-0.5,13,8.8,16.8,9.3,16.8
	c2.3,0.2,7.6,1,10.3,0c5.3-2,8.9-9.2,9-12.8c0-0.8,1.3-10.2,1.6-14.3c0.1-2-0.5-4.4,0-6.3c1.5-5.3,10-3.8,10.2-3.5
	C648.1,438,646.7,443.8,646.9,443.9"/>
<path class="st1" d="M463.5,283.1c5.3,0.6,14.7,3,19.5,4.6c1.9,0.6,1.4,5.8,1.1,6.5c-3.8,9-12.6,23.8-25.7,23.1
	c-14.5-0.8-18.6-20.5-18.5-22.4C441.3,282.2,463.7,283.1,463.5,283.1"/>
<path class="st1" d="M565.6,293.7c3.2,7.3-5,17.2-12.1,24.1c-3.8,3.8-13.3,1.7-14.1,1.4c-13.4-5.2-24.7-17.6-22.1-27.9
	c1-3.9,12.5-4.9,13.8-5.1C532.3,286.1,561.6,284.7,565.6,293.7"/>
<path class="st1" d="M496.5,324.5c1.7-1.8,8.1-0.2,7.8-0.2c9.4,1.6,12.2,30.1,12.2,29.9c-1.2,3.2-4.8,4.2-8.6,4.3
	c-4.7,0.1-7.7-4.5-12.6-3.1c-3.9,1.1-4.5,4.5-9.4,2.3C482,347.7,487.8,330.7,496.5,324.5"/>
<path d="M511.2,763.8c-2.4-2.5-5.4-3.8-8.9-3.8c-3.7,0-6.7,1.1-9.1,3.3c-2.5,2.2-4.4,4.8-5.8,7.9c-1.5,3.1-2.5,6.4-3.2,10
	c-0.7,3.5-1.1,6.7-1.2,9.5l0.3,0.3c2.8-4,6.1-6.9,9.8-8.6c3.8-1.7,8.1-2.6,13-2.6c4.3,0,8.5,0.9,12.7,2.8c4.1,1.9,7.6,4.4,10.5,7.5
	c2.7,3.1,4.7,6.6,5.9,10.5c1.2,3.9,1.9,7.9,1.9,12c0,5.2-0.8,10-2.5,14.4c-1.7,4.5-4.1,8.4-7.2,11.7c-3.1,3.3-6.8,5.9-11.2,7.8
	c-4.3,1.9-9.1,2.8-14.4,2.8c-7.6,0-13.9-1.5-18.9-4.5c-5-3-9-7-11.9-11.9c-3-4.9-5-10.4-6.2-16.6c-1.1-6.2-1.7-12.5-1.7-18.9
	c0-6.2,0.7-12.5,2.2-18.7c1.4-6.3,3.7-11.9,6.9-16.9c3.2-5,7.2-9.1,12.2-12.3c5-3.2,11.1-4.8,18.3-4.8c4.3,0,8.3,0.6,12.1,1.9
	c3.8,1.3,7.1,3.1,10,5.4c2.9,2.3,5.2,5.2,7,8.7c1.8,3.4,3,7.4,3.6,12h-19.4C515.2,769.3,513.6,766.3,511.2,763.8 M494,796.7
	c-2.1,1-3.8,2.4-5.1,4.1c-1.4,1.7-2.3,3.7-3,6c-0.7,2.2-1,4.6-1,7.1c0,2.3,0.4,4.6,1.1,6.8c0.7,2.3,1.8,4.3,3.2,6
	c1.4,1.8,3.1,3.2,5.1,4.2c2,1.1,4.3,1.6,6.9,1.6c2.5,0,4.7-0.5,6.6-1.6c1.9-1,3.5-2.4,4.8-4.2c1.3-1.7,2.4-3.7,3-5.9
	c0.7-2.2,1-4.5,1-6.8c0-2.4-0.3-4.7-0.9-7c-0.6-2.3-1.6-4.3-2.8-6.1c-1.3-1.7-2.9-3.2-4.8-4.3c-2-1.1-4.2-1.6-6.8-1.6
	C498.5,795.2,496.1,795.7,494,796.7"/>
</svg>
