<?xml version="1.0" encoding="utf-8"?>
<!-- Generator: Adobe Illustrator 22.1.0, SVG Export Plug-In . SVG Version: 6.00 Build 0)  -->
<svg version="1.1" id="Layer_1" xmlns="http://www.w3.org/2000/svg" xmlns:xlink="http://www.w3.org/1999/xlink" x="0px" y="0px"
	 viewBox="0 0 1000 1000" style="enable-background:new 0 0 1000 1000;" xml:space="preserve">
<style type="text/css">
	.st0{fill:#FFFFFF;}
	.st1{fill-rule:evenodd;clip-rule:evenodd;}
</style>
<path class="st0" d="M50.9,500c0.9,0.9,448.3,448.2,449.1,449.1c0.9-0.9,448.3-448.2,449.1-449.1C948.3,499.2,500.9,51.8,500,50.9
	C499.2,51.8,51.8,499.2,50.9,500"/>
<g>
	<polygon class="st0" points="52.1,500 500,52.2 947.9,500.1 500,947.8 	"/>
	<path d="M500,54.3l445.8,445.8L500,945.7L54.2,500L500,54.3 M500,50L50,500L500,950l449.1-449l0.9-0.9L500,50L500,50z"/>
</g>
<g>
	<path d="M500,101.8L898.2,500l-0.3,0.3L500,898.2l-0.3-0.3L101.8,500L500,101.8 M500,91.9L91.9,500l402.9,402.8l5.2,5.2
		l402.9-402.9l5.2-5.2L500,91.9L500,91.9z"/>
</g>
<g>
	<path d="M515.8,772.6c-1.3-6.8-6.5-12.5-13.5-12.5c-14.8,0-18.7,19.4-19.3,30.6l0.3,0.3c5.6-7.9,13-11.2,22.7-11.2
		c8.6,0,17.4,4,23.2,10.4c5.3,6.2,7.8,14.5,7.8,22.4c0,20.6-14.2,36.8-35.3,36.8c-30.5,0-38.7-26.6-38.7-52.1
		c0-24.6,10.9-52.7,39.6-52.7c17.4,0,30.4,10.2,32.7,27.9H515.8z M484.9,813.9c0,9.4,6,18.7,16.3,18.7c9.8,0,15.4-9.4,15.4-18.4
		c0-9.5-4.9-19-15.4-19C490.2,795.2,484.9,804,484.9,813.9z"/>
</g>
<path class="st1" d="M399.4,293.7c0,0-5,1.6-10.3,5.1c-89.6,59.6-40.4,128.5-40.4,128.5s3.6-2.1,3.6-2.2
	c-6.5-29.4,5.5-60.9,32.3-78.1c29.5-18.9,67.3-14.2,91.3,9.2c0,0,5.1-3.2,4.7-4.2c-3.2-8.8,2.7-19.7,11.8-21.6c1.1-0.2,1-6.3,1-6.3
	c-32.7-7.6-57-36.9-57-71.9c0-31.8,20.2-59,48.4-69.3c0.1,0-0.1-4.2-0.1-4.2s-84.6-4.2-86.4,103.3
	C398.1,288.5,399.4,293.7,399.4,293.7"/>
<path class="st1" d="M504.8,462c0,0,3.8,3.5,9.6,6.4c96.4,47.8,131.5-29.3,131.5-29.3s-3.6-2-3.7-2c-22.2,20.3-55.5,25.8-83.8,11.1
	c-31.1-16.1-45.9-51.1-37.7-83.6c0,0-5.3-2.8-6-2c-6.1,7.2-18.4,7.5-24.6,0.6c-0.7-0.8-5.9,2.3-5.9,2.3c9.7,32.1-3.5,67.8-33.8,85.3
	c-27.6,15.9-61.1,12.1-84.2-7.2c-0.1-0.1-3.6,2.1-3.6,2.1s38.7,75.4,132.7,23.2C500.9,465.7,504.8,462,504.8,462"/>
<path class="st1" d="M601.3,289.6c0,0,1.2-5.1,0.7-11.5c-6.7-107.4-91.1-99.2-91.1-99.2s0.1,4.2,0.1,4.2c28.7,9,50.1,35.2,51.5,67
	c1.6,35-21.3,65.4-53.6,74.5c0,0,0.2,6,1.3,6.2c9.2,1.7,15.7,12.2,12.8,21c-0.4,1,4.9,4,4.9,4c22.9-24.5,60.5-30.9,90.8-13.4
	c27.6,15.9,41,46.9,35.8,76.6c0,0.1,3.7,2,3.7,2s46-71.2-46.3-126.5C606.5,291.1,601.3,289.6,601.3,289.6"/>
<path class="st1" d="M413.9,346.7c0-1.3,0.1-2.5,0.2-3.8l18.7,3.9c0,0-6.5,41.7,36.5,63.2c0.8,0.4-6.9,18.1-6.9,18.1
	S412.3,411.9,413.9,346.7"/>
<path class="st1" d="M548,425.3c-1.1,0.6-2.2,1.2-3.3,1.8l-6-18.2c0,0,39.4-15.3,36.4-63.3c-0.1-0.9,19.1-3.1,19.1-3.1
	S605.2,394,548,425.3"/>
<path class="st1" d="M546.4,271.4c1.1,0.6,2.2,1.2,3.3,1.8l-12.1,14.9c0,0-34.1-24.9-72.9,3.6c-0.7,0.5-12.9-14.4-12.9-14.4
	S489.2,240.2,546.4,271.4"/>
</svg>
