<?xml version="1.0" encoding="utf-8"?>
<!-- Generator: Adobe Illustrator 22.1.0, SVG Export Plug-In . SVG Version: 6.00 Build 0)  -->
<svg version="1.1" id="Layer_1" xmlns="http://www.w3.org/2000/svg" xmlns:xlink="http://www.w3.org/1999/xlink" x="0px" y="0px"
	 viewBox="0 0 1000 1000" style="enable-background:new 0 0 1000 1000;" xml:space="preserve">
<style type="text/css">
	.st0{fill:#FFFFFF;}
	.st1{fill:#FFDD00;}
	.st2{fill:none;stroke:#000000;stroke-width:1.2344;}
	.st3{fill-rule:evenodd;clip-rule:evenodd;}
</style>
<path class="st0" d="M50.9,500c0.9,0.9,448.3,448.3,449.1,449.1c0.9-0.9,448.3-448.2,449.1-449.1C948.3,499.1,500.9,51.7,500,50.9
	C499.1,51.7,51.7,499.1,50.9,500"/>
<g>
	<polygon class="st0" points="52.1,500 500,52.1 947.9,500 500,947.9 	"/>
	<path d="M500,54.2L945.8,500L500,945.8L54.2,500L500,54.2 M500,50L50,500l450,450l449.2-449.1l0.9-0.9L500,50L500,50z"/>
</g>
<polygon class="st1" points="97.4,500 903.5,500 500.3,96.5 "/>
<polygon class="st2" points="97.4,500 903.5,500 500.3,96.5 "/>
<path d="M500,91.8L91.9,500l402.9,402.9l5.2,5.2l402.9-402.9l5.2-5.2L500,91.8z M102.3,500L500,102.3L897.7,500L500,897.7L102.3,500
	z"/>
<path class="st3" d="M656,335c-33.3,0.3-66.5-0.1-99.8,0.3c-0.5-16.3-8.2-36.1-28.6-49.4c17.3-28.7,32.7-58.9,50.7-86.5
	C630.9,229,659.1,291.3,656,335"/>
<path class="st3" d="M422.1,198.7c17.1,28.3,33.1,57.4,50,86.6c-18.6,11.5-29.7,33.1-28.6,49.4c-33.2,1.1-66.3,0.3-99.5,0
	c-0.7-21.9,3-47.3,16.4-71.8C372.5,240.8,395.6,210.5,422.1,198.7"/>
<path class="st3" d="M519.4,309.2c16.3,12.8,17.5,34.7,3.8,49.1c-18.7,19.6-49.5,8.2-56-16.4c-2.3-8.6-0.3-17.2,5-25.2
	C484.3,298.8,505.6,298.3,519.4,309.2"/>
<path class="st3" d="M527.9,383.7c17.5,28.7,33.4,57.5,50.4,86.3c-50.7,28.4-104.1,28.7-155.8,0.3c6.6-14.6,15.7-28.5,23.6-43.1
	c8-14.7,16.8-29.2,25.5-43.8C490.3,393.4,509.1,392.9,527.9,383.7"/>
<g>
	<path d="M534.4,764.3c-21.2,18.4-32.7,56.3-33,83.2h-21.9c2.3-29.8,14.7-58.7,33.8-81.7h-47.8v-19h68.8V764.3z"/>
</g>
</svg>
