<?xml version="1.0" encoding="utf-8"?>
<!-- Generator: Adobe Illustrator 22.1.0, SVG Export Plug-In . SVG Version: 6.00 Build 0)  -->
<svg version="1.1" id="Layer_1" xmlns="http://www.w3.org/2000/svg" xmlns:xlink="http://www.w3.org/1999/xlink" x="0px" y="0px"
	 viewBox="0 0 1000 1000" style="enable-background:new 0 0 1000 1000;" xml:space="preserve">
<style type="text/css">
	.st0{fill:#FFFFFF;}
	.st1{fill-rule:evenodd;clip-rule:evenodd;}
	.st2{font-family:'HelveticaNeue-Bold';}
	.st3{font-size:143.8681px;}
</style>
<path class="st0" d="M51,500c0.9,0.9,448.2,448.2,449.1,449.1c0.9-0.9,448.2-448.2,449.1-449.1C948.3,499.2,500.9,51.8,500.1,51
	C499.2,51.8,51.9,499.2,51,500"/>
<g>
	<polygon class="st0" points="52.2,500 500.1,52.2 947.9,500.1 500.1,947.9 	"/>
	<path d="M500.1,54.3l445.7,445.7L500.1,945.8L54.3,500L500.1,54.3 M500.1,50.1l-450,450l450,450l449.1-449.1l0.9-0.9L500.1,50.1
		L500.1,50.1z"/>
</g>
<path d="M97.2,500c5.1,5.1,397.7,397.7,402.9,402.8c5.1-5.1,397.7-397.7,402.9-402.8c-5.1-5.1-397.7-397.8-402.9-402.9
	C494.9,102.3,102.3,494.9,97.2,500"/>
<path d="M500.1,92L92,500l402.9,402.8l5.2,5.2l402.9-402.9l5.2-5.2L500.1,92z M102.4,500l397.6-397.6L897.7,500L500.1,897.7
	L102.4,500z"/>
<polyline class="st0" points="106.2,500 893.9,500 500.1,105.9 "/>
<path class="st1" d="M678.1,347c-4.2,2.2-6.3,5.8-7.3,10.6c-0.4,2.1-0.4,4.9-1.3,7.1c-1.7,3.7-9.3,8.3-10.8,9.6
	c-1.8-0.7-3.6-6.2,0.6-9.6c4.8-2.4,1.2-7.8,1.9-11.7c0.3-1.5,8.5-10.1,8.5-10.1s1-12.1,11.6-20.5c1.5-2.1-1.2-9.3,0.7-12.8
	c1.4-2.4,4.9-4.7,7-2.2c1.1,1.3,1.3,5.7,1.6,8.7c0.4,3.6,0.9,9.7-2.2,14.2c-1.6,2.4-4.1,3.4-5.7,6c-1.8,3-1.4,7.1-3,9.3
	C679.2,346.4,677.8,347.1,678.1,347"/>
<path class="st1" d="M637.3,348.7c-3.9,1-9.1-0.9-10.8-5.7c-3.4-9.6,6.6-32.9,7.3-33.3c3.9,2.3,8.5,10.4,10.5,16.4
	c2.7,7.8,0.4,15-3.8,20.2c1.6,2.4,4.6,7.4,4.6,7.4c1.8,3.2,4.4,7.6,4.6,12.8c0.3,7.5-2.9,17.8-12.4,16.9c-3.5-0.3-6.1-3.6-7.8-7.1
	C626.2,369.7,636.9,350.8,637.3,348.7 M631.9,336.7c-0.4-2.9,1.4-7,0-10.3C628.8,329,627.1,336.8,631.9,336.7 M635.4,366.7
	c0.8,0.8,1.7,1.5,3,1.1c0.6-2.2,1.5-3,1.4-5.5C636.7,360.9,636.2,364.1,635.4,366.7"/>
<path class="st1" d="M565.1,322.5c1.8,3,1.9,9.6,5.1,11.4c0.7,0.4,2.1,0.4,3,0.8c0,0,5.2,2.7,5.7,3.3c3.7,4,5.9,17.1,6.1,17.6
	c2.3,4.6,13.5,8.6,13.8,8.8c5,1.7,4,12.9-4,8.3c-1.5-0.9-5.4-5.9-5.9-6.3c-3.1-2.3-9.2-1.2-11.1-4.6c-1.9-4.2-2.9-13.8-3.5-14.4
	c-1.7-1.8-5.5-0.7-8.2-2.5c-2.3-1.6-4.3-5.2-6-7.7c-1.6-2.3-1.7-3.9-2.2-6.8c-0.2-1.1-1.5-3.4-2.2-4.1c-0.8-1.8-4-2.8-4.6-4.9
	C553.7,314.7,563.8,320.3,565.1,322.5"/>
<path class="st1" d="M708.4,324.1c4.3,3,4,11,5.4,15.3c-0.1,5.2-5.9,7-8.4,10.3c-2.6,3.4-2.3,8.9-4.6,12.8c-2.2,9.1-10,8-17.8,12.5
	c-0.3,0.1-6.5,6.1-9.9,3.9c0,0-0.1,0-0.1-0.1c0.2-0.2,3-3.6,3-3.3c2.4-1.3,4.2-3,5.4-5.2c0.9-1.6,1.6-3.8,3-4.9
	c0.2-0.2,7.6-6.2,7.6-6c1.4-2.6,4.9-8.1,5.2-13.8c0.2-3.8,6.1-8.4,6.5-10.6c0.6-3.7-1.2-9.6,1.3-11.4
	C705.2,323.6,707.3,324,708.4,324.1"/>
<path class="st1" d="M590.7,327.5c1.6,3.1,7.8,7.6,7.7,7.6c5.5,4.1,4.2,10.9,7,15.3c0.7,1.2,3.5,4.4,3.5,4.4
	c2.8,2.7,5.3,6.1,6.2,10.7c-0.1,2.3-2.7,5.3-5.7,3.5c-4-2.9-4.7-8.8-8.4-12c-1.2-1-4.2-0.6-11.9-17.5c-0.8-1.7-3.5-3.7-3.5-3.5
	c-6.4-8.1,2.3-12.8,3.8-11.7C589.7,324.3,590.6,327.4,590.7,327.5"/>
<path class="st1" d="M414.3,361.2c0.2-0.2,0.9-11.5,3.2-14.1c2-2.3,5.9-3.3,5.9-3.3c5.8,0.7,1.1,10.8,1.1,10.6
	c-1.1,3,1.1,10.4-2.2,12.8c-3.1,1.9-9.3,8-9.5,7.9c-3.8,5.3,2.4,11.4-2.2,19.6c-4.3,3.5-7.2,6.2-9.5,10.1c-1.6,2.8-2.6,6.7-5.4,9.8
	c-4-0.2-3.7-7.9-1.9-12.3c0.4-1,12.9-12.8,8.7-17.7c-1.1-3.5,1.6-12.2,2.2-12.8C406.7,369.6,412.1,362.6,414.3,361.2"/>
<path class="st1" d="M326.6,360.4c-0.8,5.3-3.4,9.3-2.2,13.1c0.4,1.3,4,5.3,4.2,5.7c1.5,3,0.6,12.8,5,15.8c1,0.7,3.3,1,6,4.1
	c1,4.2-3.2,7.4-1.1,13.6c1.1,3.1,4.5,4.7,5.1,7.6c0.6,2.6-0.5,9-5.1,6.8c-1.3-2.2-1-3.5-2.2-5.2c-1.7-2.4-4.1-3.1-5.4-4.9
	c-0.9-1.3-1.5-4.1-1.6-5.5c-0.2-3,2.9-8.2-0.8-11.2c-1-0.8-2.7-0.9-3.5-1.4c-3.1-1.8-2.9-3.9-4.3-7.1c0.1-2.5,2.1-4.2,1.9-7.1
	c-0.3-3.8-5.2-5-7.3-8.2c-2.6-3.8-0.6-9,0.3-12.6c0.7-3-0.2-6.7,1.3-9.3C323.7,343.1,326.4,358.3,326.6,360.4"/>
<path class="st1" d="M379.6,416.3c-0.2-1.6-0.4-3.5-0.3-5.5c0.3-6.9-0.2-15.4,4.3-19.7c0-0.2,1.1-2.2,1.6-6.2
	c0.5-4,0.4-9.9,1.6-12.6c0.1-0.4,4.6-11.4,8.4-7.7c0.7,2.3,1,4.5,1.1,6.3c-0.7,3.2-3.5,5.8-4.3,9.3c-1,4.1-0.1,8.7-0.8,12
	c-0.3,0.7-1.7,3.6-1.9,3.8c-3.8,4.4-0.8,15-5.7,19.6C382.5,416.8,380.6,416.4,379.6,416.3"/>
<path class="st1" d="M299.9,367.2c0.8-0.2,1,0.3,1.6,0.3c1.2,3.1,0.5,6.7,0.3,9.6c-0.1,1.1-0.5,4-0.3,5.7c0.6,4.2,4.3,6.7,6,10.6
	c1.3,3.2,0.5,7.6,1.9,10.4c1.9,3.8,6.4,6.4,7.8,9.8c1.5,1.4,2.8,3,3.8,4.9c0.4-0.3,9.6,5.6,6.7,10.9c-3.7,1.5-12.2-3.8-12.4-4.1
	c-2.4-3-2.9-10.6-7.3-10.1c-2.5-0.7-6.9-1.9-7.6-5.7c-0.8-4.4,1.6-11.1-1.1-14.7c-1.7-2.3-9.2-4.5-8.9-9.8c0.1-1.9,1.5-2.9,2.7-4.6
	C297.2,374.4,297.6,373.3,299.9,367.2"/>
<path class="st1" d="M654.7,482c-23.7,0.4-57.6,0.9-80,0.4c-19.2-0.5-39.6-2-34.2-13.7c0,0.1,3.9-1.5,4.9-1.6
	c4.4-0.7,48.4,0.8,60.8-0.8c0-0.3-0.1-2.3-0.5-2.7c-0.8-0.8-1.8-1.4-3.2-1.1c0-0.3-74.4,0.5-78.8-1.5c-4.6-2.1-5.2-8.8-1.3-10.4
	c-0.1,0.1,73.5,1,72.7-1.1c-0.1-0.5,0.4-1.5,0-2.7c-1.7-0.5-72.1-0.8-71.6-0.8c-8.3-0.3-19.3-5.2-12.7-14.7
	c4.2-5.4,21.8-4.6,23.6-4.6c12.2-0.5,52.9-0.1,54.6,0c2.2,0.1,10.3-0.5,12.2-0.2c0.2-0.6,1.3-1.1,1.6-3.3c-1,0.1-10.1-0.2-13.5-0.2
	c-2.4-0.1-22.7-0.6-23-0.6c-11,0.1-24.9,0.6-25.4,0.8c-0.1-0.2-4-0.6-5.9-1.9c-4.9-3.2-1.2-7.9,3-10.4c7.3-4.3,63-2.3,67.9-2.2
	c1.6,0,17.1,0.1,21.1,1.6c-0.1,0,8.9,4.9,13,7.9c4.4,3.3,6.4,8.3,11.6,12c2.6,1.8,15.5,10.7,19.8,8.5c0.3-0.2,0.6-3.1-5.7-4.7
	c-2.6-1.3-10.8-6.2-12.7-7.9c0.2,0-9.9-10.8-14-14.2c0.2,0-9.5-6.5-13.8-6.8c-0.7,0.2-30.8-0.1-39-1.9c-0.5-0.2-14-12,0-15.8
	c5.3-0.9,28.6-0.8,33.5,0.3c4-0.2,11.6,9.7,16.2,9.8c0,0,22.4-0.5,25.7-10.9c1.6-5,24.9,0.2,32.4,3.5c4.2,1.4,7.8,3.9,11.4,6.5
	c1.6,1.2,6.7,4.9,8.1,5.7c3.8,2.2,9.6,5.1,14.6,5.2c1.6,0,18.8-0.8,22.4-0.5c1.3-0.6,4-1.9,2.4-3.5c-1-1.1-5.5,0-6.5-0.3
	c-0.2,0-24,3.3-34.7-7.2c-0.1-0.2-12.4-8.8-22.2-12.1c-2.3-0.8-23.2-4.9-29.1-2.8c-3.6,8.6-10,10.2-11.9,10.9
	c0.1,0-10.7,1.5-11.3,1.4c-6.4-0.6-10.9-9.3-16-10.4c0.2,0-31.2-0.5-39.1,0.9c-5.2,1.8-6.3,7.9-6.4,8.3c-1.2,5.2,2.8,8.8,5.2,12.1
	c-4.2,0.5-5.5,0.5-9.5,0.3c0.1,0-17.3-0.4-28.4,0.8c-4.7,0.5-20.4,6.3-13.5,16.4c-3,1.5-21.9-0.4-24.1,11.4
	c0-0.2-3.4,12.1,10.5,16.1c0.3,0.1-0.3,2.7-0.5,3.2c-1.4,5.1,2.3,10,7,12.3c4.6,2.2,9.7,1.7,13,3c-11.2,17.4,30.5,18.7,36.2,19.3
	l87.3-0.3c7.7-1.6,50.4-3.2,58.4-12.8c-0.1,0,3-1.4,5.1-1.9c-0.1,0,8.5-2,9.2-2.2c5-1.2,10.7,0.2,15.2,0.3c1,0,11.3,0,15.4,0
	c0.1-0.9,0.3-3.3-0.4-3.8c-1.2-1.9-24.3-1-25.8-1.1c0.2,0-19,1.6-23.3,5.5c-5.1,1.6-11.3,6.3-11.6,5.7
	C700.6,477.2,683.8,480.6,654.7,482"/>
<path class="st1" d="M603.7,484.8c0.2-0.2,0.7-0.2,0.8-0.6c0.2,0.4,0.1,0.7,0.8,0c0.2,0.4,0.1,0.7,0.8,0c0.3,0,0.2,0.3,0.3,0.6"/>
<path class="st1" d="M357.7,370.8c3,0.5,9.7,13.7,10.3,17.2c0.6,3.8,0.5,10.9-2.7,15.6c-4.2,6.1-11.9,6.1-15.7,1.1
	c-2.5-3.4-2.7-8.2-1.9-11.4C348,391.8,355.4,373.3,357.7,370.8 M354.7,386.8c-0.1,0.3-1.9,4.8-2.7,6.3c-0.2,0.8-1.3,2.4,0,4.4
	c1.2,0.3,1.4-0.1,1.9-0.3C354.8,396,356.5,387.9,354.7,386.8"/>
<path class="st1" d="M328.2,430.8c3.2,0.4,13,9.3,14.6,10.6c0.5,0.4,6.7,4.7,8.6,4.4c5.3-2.5,10.7,0.8,14.9,0.8
	c2-0.3,16.7-15.1,28.9-16.6c0.5,0.2,75.3-0.1,77.1,1.9c1.5,1.7,1.9,3.5,1.9,7.1c0,2.6,0.2,13.8,0,20.2c-0.2,6-0.4,10.5-4.6,12
	c-7.6,0.2-233.4,0.6-236.3-0.3c-5.3,0.6-6.3-2.9-6.5-7.4c-0.4-8.6-0.7-14.8-0.3-19.9c-0.3-5.2-1.2-11.4,4.3-13.1
	C234.2,429.5,326.9,430.6,328.2,430.8"/>
<path class="st1" d="M356.1,321.1c-1,8.1-7.9,19.1-7.6,27.8c0.2,4.3,3.6,10.5,7.8,10.9c9.5,0.9,14-14,10.8-23.2
	c-1.3-3.9-6.5-13.7-10.3-16.4C356.9,320.9,356.1,320.6,356.1,321.1 M354.1,337.4c0.2,2,0.4,1.8,0.4,3.4c0,1.8,0.7,2.8-1.2,2.6
	c-0.7,0-0.5-0.9-0.5-2.7C352.9,338.9,354,336.8,354.1,337.4"/>
<path class="st1" d="M473.9,276.8c-16.9,5.3-89.8,27.5-89.8,27.5s-2.6,1.6-3.6,3.7c-0.9,2.1-9.4,16.4-14.7,3.2
	c-3.2-8.1-9.5-28.1-11.3-36.6c-3-13.9,12-6.8,13.9-5.6c2,1.2,5,1.1,5,1.1s72.8-22.5,89.8-27.6C480.3,237.3,490.8,271.5,473.9,276.8
	 M362.2,279.4l84,0.7l26.9-8.2c0,0,7.6-0.5,2.7-16.1c-4.1-13.1-12.8-9.2-12.8-9.2l-101.1,31.6"/>
<path class="st1" d="M516.5,276.8c16.9,5.3,89.8,27.5,89.8,27.5s2.6,1.6,3.6,3.7c0.9,2.1,9.4,16.4,14.7,3.2
	c3.2-8.1,9.4-28.1,11.3-36.6c3-13.9-12-6.8-13.9-5.6c-2,1.2-5,1.1-5,1.1s-72.8-22.5-89.8-27.6C510.2,237.3,499.6,271.5,516.5,276.8
	 M628.2,279.4l-84,0.7l-26.9-8.2c0,0-7.6-0.5-2.7-16.1c4.1-13.1,12.8-9.2,12.8-9.2l101.1,31.6"/>
<text transform="matrix(1 0 0 1 460.0532 847.4541)" class="st0 st2 st3">8</text>
</svg>
