<?xml version="1.0" encoding="utf-8"?>
<!-- Generator: Adobe Illustrator 22.1.0, SVG Export Plug-In . SVG Version: 6.00 Build 0)  -->
<svg version="1.1" id="Layer_1" xmlns="http://www.w3.org/2000/svg" xmlns:xlink="http://www.w3.org/1999/xlink" x="0px" y="0px"
	 viewBox="0 0 1000 1000" style="enable-background:new 0 0 1000 1000;" xml:space="preserve">
<style type="text/css">
	.st0{fill:#FFFFFF;}
	.st1{fill:none;stroke:#000000;stroke-width:6.2192;stroke-miterlimit:10;}
</style>
<path class="st0" d="M50.9,500c0.9,0.9,448.3,448.2,449.1,449.1c0.9-0.9,448.3-448.3,449.1-449.1C948.3,499.1,500.9,51.7,500,50.9
	C499.1,51.7,51.8,499.1,50.9,500"/>
<g>
	<path d="M500,54.2L945.8,500L500,945.8L54.2,500L500,54.2 M500,50L50,500l450,450l449.1-449.1l0.9-0.9L500,50L500,50z"/>
</g>
<path d="M500,91.9L91.9,500l402.9,402.9l5.2,5.2l402.9-402.9l5.2-5.2L500,91.9z M102.3,500L500,102.3L897.7,500L500,897.7L102.3,500
	z"/>
<polygon points="119.2,431.4 119.2,500 51.2,500 "/>
<polygon points="188.3,361.8 188.3,500 257.6,500 257.6,292.4 "/>
<polygon points="326.9,223.8 326.9,500 396.1,500 396.1,154.6 "/>
<polygon points="500,50.9 534.5,85.5 534.5,500 465.3,500 465.3,85.3 "/>
<polygon points="672.6,223.8 672.6,500 603.4,500 603.4,154.6 "/>
<polygon points="810.5,361.8 810.5,500 741.1,500 741.1,292.4 "/>
<polygon points="880.6,431.4 880.6,500 948.7,500 "/>
<g>
	<g>
		<path d="M473.9,732c6.3-6.7,14.4-10.1,24.4-10.1c15.4,0,26,6.8,31.7,20.4c3.3,7.7,4.9,17.9,4.9,30.5c0,12.2-1.6,22.4-4.7,30.6
			c-6,15.6-16.9,23.4-32.8,23.4c-7.6,0-14.4-2.2-20.4-6.7c-6-4.5-9.5-11-10.4-19.6h19.8c0.5,3,1.7,5.4,3.8,7.3
			c2,1.9,4.8,2.8,8.2,2.8c6.6,0,11.2-3.6,13.8-10.9c1.4-4,2.3-9.8,2.7-17.5c-1.8,2.3-3.7,4-5.8,5.2c-3.7,2.2-8.3,3.3-13.7,3.3
			c-8,0-15.2-2.8-21.4-8.3c-6.2-5.6-9.3-13.6-9.3-24C464.6,747.5,467.7,738.8,473.9,732z M507.4,772.2c4.5-2.9,6.8-7.9,6.8-15
			c0-5.7-1.3-10.3-4-13.6c-2.7-3.3-6.3-5-11-5c-3.4,0-6.3,1-8.7,2.9c-3.8,3-5.7,8-5.7,15.1c0,6,1.2,10.5,3.7,13.5
			c2.4,3,6.2,4.5,11.3,4.5C502.4,774.6,505,773.8,507.4,772.2z"/>
	</g>
	<line class="st1" x1="460.3" y1="838.2" x2="539.7" y2="838.2"/>
</g>
</svg>
