<?xml version="1.0" encoding="utf-8"?>
<!-- Generator: Adobe Illustrator 22.1.0, SVG Export Plug-In . SVG Version: 6.00 Build 0)  -->
<svg version="1.1" id="Layer_1" xmlns="http://www.w3.org/2000/svg" xmlns:xlink="http://www.w3.org/1999/xlink" x="0px" y="0px"
	 viewBox="0 0 1000 1000" style="enable-background:new 0 0 1000 1000;" xml:space="preserve">
<style type="text/css">
	.st0{fill-rule:evenodd;clip-rule:evenodd;fill:#E03A3E;}
	.st1{fill-rule:evenodd;clip-rule:evenodd;fill:#FFFFFF;}
	.st2{clip-path:url(#SVGID_2_);fill:none;stroke:#000000;stroke-width:3;}
</style>
<polygon class="st0" points="50.5,500 499.9,50.5 949.4,500 500,949.5 "/>
<polygon class="st1" points="50.5,500 139.3,588.7 860.6,588.8 949.4,500 859,409.6 140.8,409.7 "/>
<path d="M203.7,441l43-0.1c25.8-0.1,45.3,19,45.4,57.9c0.1,34-14.6,59.3-45.1,59.4l-43,0.1L203.7,441z M225.9,536.6l19.5-0.1
	c12.7,0,24.8-9.2,24.8-35.2c-0.1-23.7-7.1-38.8-28.9-38.7l-15.6,0L225.9,536.6z"/>
<path d="M336.3,440.7l22.5,0l37.6,117.2l-22.8,0.1l-7.6-26.1l-37.3,0.1L321,558l-22.2,0.1L336.3,440.7z M334.4,512.7l25.8-0.1
	l-12.7-43h-0.3L334.4,512.7z"/>
<polygon points="406.7,440.6 428.5,440.5 470.3,519.1 470.6,519.1 470.4,440.4 490.9,440.4 491.2,557.6 469.3,557.7 427.6,479.3 
	427.3,479.3 427.6,557.8 407,557.8 "/>
<path d="M584.4,544.1c-7.6,11.7-17.7,16.1-27.3,16.2c-30.9,0.1-49.1-27-49.2-60.8c-0.1-34.8,18-62,48.8-62
	c20.4,0,39.7,14.7,42.1,41.3l-20.9,0c-2.6-13-10.8-19.7-21.1-19.7c-19.7,0-27,19.8-27,40.3c0.1,19.5,7.5,39.2,27.2,39.2
	c14.2,0,22.5-9.1,23.7-25.4l-22,0.1l-0.1-19.2l41.9-0.1l0.2,63.4l-14,0L584.4,544.1z"/>
<polygon points="620,440.1 694.6,439.9 694.6,461.6 642,461.7 642.1,486.8 690.4,486.7 690.4,506.8 642.1,506.9 642.2,535.6 
	695.9,535.5 696,557.2 620.3,557.4 "/>
<path d="M712.4,439.9l53.7-0.1c17.9,0,29.2,14.6,29.3,32.3c0,13.8-4.7,24.1-15.7,29.4v0.3c10.8,3.2,13.9,15.6,14.6,27.4
	c0.5,7.4,0.3,21.2,4.3,27.7l-21.9,0.1c-2.7-7.4-2.4-18.7-3.6-28.1c-1.6-12.3-5.6-17.7-16.7-17.7l-21.9,0.1l0.1,45.8l-21.9,0.1
	L712.4,439.9z M734.5,492.9l24-0.1c9.8,0,15.1-4.9,15-16.8c0-11.3-5.3-16.2-15.1-16.2l-24,0L734.5,492.9z"/>
<g>
	<defs>
		<rect id="SVGID_1_" x="50" y="50" width="900" height="900"/>
	</defs>
	<clipPath id="SVGID_2_">
		<use xlink:href="#SVGID_1_"  style="overflow:visible;"/>
	</clipPath>
	<polygon class="st2" points="949.4,500 500,949.4 50.5,500 500,50.5 	"/>
</g>
</svg>
