<?xml version="1.0" encoding="utf-8"?>
<!-- Generator: Adobe Illustrator 22.1.0, SVG Export Plug-In . SVG Version: 6.00 Build 0)  -->
<svg version="1.1" id="Layer_1" xmlns="http://www.w3.org/2000/svg" xmlns:xlink="http://www.w3.org/1999/xlink" x="0px" y="0px"
	 viewBox="0 0 1000 1000" style="enable-background:new 0 0 1000 1000;" xml:space="preserve">
<style type="text/css">
	.st0{fill:#FFFFFF;}
	.st1{fill:#231F20;}
	.st2{fill:none;stroke:#231F20;stroke-width:6;stroke-miterlimit:10;}
</style>
<g>
	
		<rect x="180.2" y="180.2" transform="matrix(0.7071 -0.7071 0.7071 0.7071 -207.1288 500.0031)" class="st0" width="639.6" height="639.6"/>
	<path class="st1" d="M500,50.6L949.4,500L500,949.5L50.5,500L500,50.6 M500,44.9l-2.8,2.8L47.7,497.2l-2.8,2.8l2.8,2.8l449.5,449.5
		l2.8,2.8l2.8-2.8l449.5-449.5l2.8-2.8l-2.8-2.8L502.8,47.7L500,44.9L500,44.9z"/>
</g>
<rect x="204.8" y="205.1" transform="matrix(0.7071 -0.7071 0.7071 0.7071 -207.049 499.3112)" class="st2" width="588.8" height="588.9"/>
<path class="st1" d="M672,517.4c0,4.4-3.5,7.9-7.9,7.9c-4.4,0-7.9-3.5-7.9-7.9c0-4.4,3.5-7.9,7.9-7.9
	C668.4,509.5,672,513.1,672,517.4"/>
<path class="st1" d="M665,460.9l-10.6,21.6c0,0-3.2,6,4,4c7.2-2,19.6-6.6,19.6-6.6s10.1-2.6,12.4-2.6c2.3,0,2,10.1,2,10.1
	s-2.8,38.7-23.5,62.4c-21.4,24.6-50.5,37.1-83,43.4c-32.5,6.3-40,5-44,18c-4,12.9-10.6,38.8-10.6,38.8s-4,16.4-17.5,2.9
	c-13.5-13.5-43.7-39.1-43.7-39.1s-19-14.1,3.7-23.6c20-8.3,51.8-9.6,56.6-23.5c5.3-15.4,14.2-41.5,20.3-50.1
	c6-8.6,24.2-35.8,64.4-43.9C650.4,465.5,665,460.9,665,460.9 M613.8,483.9c-9.8,3.2-25.6,10.9-25.6,10.9
	c-13.5,6-35.6,32.3-41.7,58.2c-2.3,9.9-6.3,19.6-11.5,25.4c-7.8,8.9-18.1,11.4-20.8,12.3c-4.6,1.4-31.4,7.7-36.2,9.7
	c-4.9,2,2.9,8.3,2.9,8.3s27.6,23.9,34,30.2c6.3,6.3,8.9-1.2,8.9-1.2s2.5-8.6,8.8-30.2c6.3-21.6,25.7-20.6,44.1-23.8
	c18.4-3.2,53.8-16,78.3-36.7c9.5-8.1,16.8-18.4,20.7-28c6.1-15.1,5.8-28.4,5.8-28.4c-3.7,0-18.7,6.6-31.9,8.9
	c-13.2,2.3-15.3-4.5-12.4-9.2c2.8-4.5,9.5-13.8,9.5-13.8S623.6,480.7,613.8,483.9z"/>
<path class="st1" d="M630.4,575.2c0,0,51.9,23.5,21.9,35.5c0,0-25.7,8.2-28.4,10.9c-2.7,2.7-9.3,8.7,8.7,6.6
	c18-2.2,56.9-12,42.6,7.7c-14.2,19.7-1.6,1.6-1.6,1.6s-13.7,12,9.6,9.6l12.8-0.3v25.1l-393,0c0,0,25.7-9.3,35-14.2
	c9.3-4.9,19.7-10.4,43.7-4.4c24,6,87.8-37.4,93.5-41l46.7,40.2l4.1-6.2l4.4-12.6l7.1-24.6l6.6-10.9l12.6-4.9c0,0,31.2-4.9,41-7.6
	C607.5,582.8,630.4,575.2,630.4,575.2"/>
<polyline class="st1" points="543,548.4 284.4,548.4 284.4,538 544.1,538 543,548.4 "/>
<path class="st1" d="M355.2,414.1c-13.1-1.1-29.7,4.1-29.7,4.1s-2.9-14.8,3.7-14.8c6.6,0,41.5-1.6,62.9,14.2
	c21.3,15.9,13-13.6,9.8-20.2c-5.2-10.9-40.6-49.2-60.1-65.7c0,0-17.1-18,1-7.7c18,10.4,31.5,26.6,34.5,29.6c3,3,17.3,14.4,15.9-8.2
	c-1.3-20.5-19.8-75.4-29.1-84.7c0,0,14.7,3,27,22.6c0,0,5.9,24.6,10.2,26.4c1.6,0.7,2.5-5.4,3.4-11.9c3.3-24.1,9.3-32.2,9.3-32.2
	s7.7,6.4,3.3,12.9c-4.4,6.6-9.9,41.2-4.4,63.6c5.5,22.4,19.1,72.2,19.1,72.2s5.5,33.3,15.9,7.1c11.8-29.8,14.2-74.3,14.2-82
	c0-7.7-2.4-50.3-2.4-54.1c0,0,2.9-14.8,8.4,12c4.1,19.9,5.6,34.8,6.2,41.1c0.2,2.2,2.6,11.1,15.7-3.9c4.8-5.5,9.5-9.7,13.8-15.1
	c9-11.5,16.1-22.9,17.9-24.8c2.7-2.7,23-21.9,4.9,10.4c-8.7,15.6-16.3,21.1-23,27.5c-7.2,6.9-13.3,14.9-18.6,34.7
	c-9,33.2-12.4,44.9-15.2,53.7c-2.7,8.7,0.8,10.9,8.2,0c7.5-11.1,21.3-10.9,35.5-10.9c14.2,0,28.4-17,41-33.3
	c8.4-10.8,35.2-32,12.6,1.1c-15.3,22.4-11.7,28.4-33,41.5c-21.3,13.1-47.9,13.1-58.9,40.5c-10.9,27.3-10.9,66.1-10.9,72.2
	c0,6-4.9,29.5,41.5,51.9l-18,9.3c0,0-32.3-16.9-39.4,8.7c0,0-7.9,24.3-10.4,26.8c-2.5,2.5-3.3-5.7-3.3-5.7s-7.4-24.6-28.7-24.6
	c-21.3,0-25.8,5.7-34.7,9c-17.1,6.4-28.4,7.7-6.6-3.3c21.9-10.9,46.5-43.7,46.5-72.7c0-29-1.6-82-16.4-96.8
	C391.6,431.4,378.1,416.1,355.2,414.1"/>
</svg>
