<?xml version="1.0" encoding="utf-8"?>
<!-- Generator: Adobe Illustrator 22.1.0, SVG Export Plug-In . SVG Version: 6.00 Build 0)  -->
<svg version="1.1" id="Placard" xmlns="http://www.w3.org/2000/svg" xmlns:xlink="http://www.w3.org/1999/xlink" x="0px" y="0px"
	 viewBox="0 0 1000 1000" style="enable-background:new 0 0 1000 1000;" xml:space="preserve">
<style type="text/css">
	.st0{fill:#E31837;}
	.st1{fill:#FFFFFF;}
</style>
<g>
	<polygon class="st0" points="500.5,950.5 50,500 500.5,49.5 951,500 	"/>
	<path class="st1" d="M500.5,91.4L91.9,500l403.4,403.4l5.2,5.2l403.4-403.4l5.2-5.2L500.5,91.4z M102.4,500l398.1-398.1L898.6,500
		L500.5,898.1L102.4,500z"/>
	<path class="st1" d="M488.3,347.4c-27-5-49-22.6-58-47.4c-4.3-11.9-2.9-24.9-8.7-36.2c-1.7-3.4-5.1-5.8-6.7-9.4
		c10.9-0.8,13.9,11.2,22.4,15.5c1.9,0.9,3.8-0.9,4.1-3c0.6-4.5-1.3-8.5-0.1-13.1c1.6-6.2,4.3-11.4,2.8-17.9
		c-1.4-6.2-6.3-10.6-6.7-16.9c-0.1-1.1,1.7-0.6,2.4-0.3c10.5,4.6,14.8,15.5,22.6,23c0.9,0.9,2-0.7,2.4-1.5
		c5.9-14.4,6.1-29.3,3.9-45.1c-0.3-2.3-1-4.8-2.8-5.8c-11.1-6.2-12.5-19.6-10.7-18.6c2.8,1.5,3.9,4.7,6.3,6.7
		c4.7,4,10.2,5.7,15.4,8.5c7.1,3.9,7.2,13.9,14.4,16.8c1.6,0.7,3.7-1.6,4-3.9c2.4-14.5-6.9-24.9-11.1-37.6
		c-2.2-6.8-1.7-13.7,0.2-20.5c2-7.3,4.3-19.2,13.2-18.6c0.3,0,1.1,2.7,0.4,4.3c-2.8,6.4-1.5,13.4,1.3,18.8
		c8.1,16.2,20.1,30.4,21,49.3c0.5,11.5-6.3,21.4-5.7,32.6c0.2,3.1,4.3,4.9,7.4,2.6c6.4-4.8,8.5-12.4,10.4-20
		c2.1-8.7-4.4-16-2.6-24.5c11.4,0.2,16.2,12.6,17.7,22.4c2.2,14.9-3,27.8-8.6,40.9c-1.5,3.5-4.2,9.3,0.9,10.2
		c6.4,1.2,9.7-4.6,13.3-8.8c8-9.4,9.9-21.8,15.4-32.5c14.8,17.9,1.9,41.5-9.9,58.5c-1.7,2.4-3.8,5.7-2.8,8.9c0.9,3.2,4.6,3.8,7.1,2
		c10.1-7.4,14.9-18.5,18.9-30.1c0.1-0.3,1.3-0.2,1.4,0.5c2.2,16.7-1.8,32.2-8.9,46.7c-10.8,22-30.3,41.6-55.8,43.1
		c0-0.7-0.2-1.8,0.1-2c6.2-4,9.9-9.8,13.6-15.7c6-9.5,8.3-19.5,10.5-30.8c0.8-3.9-0.8-12-6-9.2c-6.5,3.5-10,11.1-17.1,14.2
		c2.7-6,11-15.9,4.4-19.2c-3.4-1.7-6.8,5.5-12,6.1c2-11.8,10.5-23,4.9-35.3c-3.9-8.6-7.6-18.6-16.1-21.2c-4.8-1.5-6.5,8.1-4.8,12.9
		c1.9,5.4,5.9,9.7,6.8,15.4c0.8,4.9,2.3,16.7-2.9,14.7c-7.2-2.8-8.6-12.5-8.5-20.7c0-0.9-1.6-3.3-3.2-2.5c-2.9,1.3-4.7,4.2-5.3,7.4
		c-3,14.4,2,27.4,4.6,40.8c-9.5-6.9-8.8-20.6-12.7-30.9c-1.2-3.2-2.5-6.4-6.4-6.3c-1.7,0-3.7,1.4-4.1,3.1c-1.8,7.4,4.2,15.3,0,21.1
		c-1.6,2.2-6.4-1.5-10.1-1.4c-3.8,0.2-6.7,3.6-5.2,7.3c3.1,7.4,11.6,9.8,16.3,16.1c1.7,2.3,3.7,4.5,4.9,7c2.7,5.3,3.9,11,7,16.1
		c3.3,5.4,9.3,8.1,12.3,13.8C489.1,347.4,488.7,347.5,488.3,347.4 M504.6,227.2c5.5-0.7,7-7,7.8-12.1c1.2-8.1,0.1-17.6-5.7-23.1
		c-0.9-0.9-2.1,0.7-2.4,1.5c-2.7,9.5-7,18.4-6,28.2C498.5,224,501.7,227.5,504.6,227.2 M570.6,355.3H427.7v10.1h142.9V355.3z"/>
	<g>
		<path class="st1" d="M465.8,785.7c-0.7-23,12.4-40.7,36.6-40.7c18.4,0,34.5,11.8,34.5,31.5c0,15.1-8.1,23.5-18,30.5
			c-9.9,7-21.7,12.8-29.1,23.2h47.6v17.6h-74c0.1-23.3,14.4-33.2,31.8-45.1c8.9-6,21-12.2,21.2-24.6c0-9.5-6.3-15.5-15.1-15.5
			c-12.1,0-16,12.5-16,23.2H465.8z"/>
	</g>
	<rect x="249.7" y="383.4" class="st1" width="501.7" height="233.3"/>
</g>
</svg>
