<?xml version="1.0" encoding="utf-8"?>
<!-- Generator: Adobe Illustrator 22.1.0, SVG Export Plug-In . SVG Version: 6.00 Build 0)  -->
<svg version="1.1" id="Placard" xmlns="http://www.w3.org/2000/svg" xmlns:xlink="http://www.w3.org/1999/xlink" x="0px" y="0px"
	 viewBox="0 0 1000 1000" style="enable-background:new 0 0 1000 1000;" xml:space="preserve">
<style type="text/css">
	.st0{fill:#FFDD00;}
	.st1{fill-rule:evenodd;clip-rule:evenodd;}
	.st2{fill:#FFFFFF;}
</style>
<g>
	<polygon class="st0" points="500.1,950.5 50.2,500.6 500.1,50.8 950,500.6 	"/>
	<path d="M500.1,92.6l-408,408l402.8,402.8l5.2,5.2l402.8-402.8l5.2-5.2L500.1,92.6z M102.6,500.6l397.6-397.6l397.5,397.6
		L500.1,898.2L102.6,500.6z"/>
	<path class="st1" d="M557.1,291.1c0,33-26.8,59.7-59.7,59.7c-33,0-59.7-26.7-59.7-59.7c0-5.4,1.6-13.3,1.6-13.3
		c-6.5-2.6-7.4-11.7-7.9-13.9c-4.3-15.3,10.5-30.7,1-50.4c7.1-1.5,11.4,8.7,12.8,10.3c15.4-29.5,1.6-47.1,2.2-48.5
		c9.3-1.1,13.7,12.9,14.9,15.9c12.1-12.4,12.8-37.3,4.7-46.4c8.5-3.7,22.5,12.7,23.1,12.5c0,0,11.5-25.5,4.3-37.7
		C514,121,518,160.7,518.8,170c0.2,0.1,6.4-9.9-0.2-23.6c18.4,7,18.1,42.3,16.5,47.7c2.4-0.3,11.1-9.6,2.9-25.4
		c24.9,10.7,12.2,46.7,10.1,59.9c5-4,9.3-6,15.4-5.4c0.2,0.8-12.8,7.6-5.9,24.9c0.1,0.3,9,21-1.3,30
		C556.3,278,557.1,285.9,557.1,291.1 M531.6,236.5c1.6-2.9,4.3-6.4,1.3-10C531.5,228.3,528.1,234.4,531.6,236.5 M493.2,216.5
		c0.8,7.2,2.9,13.6,4,14.9c0.6,0,1.2-0.2,1.3-0.3c5-5.1,4-31.3-4.6-33.2C493,201.8,492.5,209.6,493.2,216.5 M513.6,221.4
		c-1.7,1.4-3.1,7.3,0.3,9.3C517.1,228.8,514.1,222.2,513.6,221.4 M538.2,248.2c0.3,0.9,1.3,0.9,2.1-0.2
		C539.6,247.3,538.9,247.4,538.2,248.2 M480.1,225.7c0.1,0.9,1.2,6,2.9,5.8c4.3-0.6,1.8-8.4-2.1-8.2
		C480.1,224.4,480,225.4,480.1,225.7 M462.6,229.1c-0.8,4,1.5,9.1,4.5,10.6C471.2,236.8,467.2,228.9,462.6,229.1 M448.6,253.7
		c0.1,1.1,0.4,2.5,1.8,2.1C452,254.8,450.7,251.8,448.6,253.7 M547.3,291.6c0,27.6-22.4,49.9-49.9,49.9c-27.6,0-49.9-22.3-49.9-49.9
		c0-27.6,22.4-49.9,49.9-49.9C524.9,241.7,547.3,264,547.3,291.6 M567.7,358.2H426.9v10h140.8V358.2z"/>
	<g>
		<path d="M465.4,786c-0.7-23,12.4-40.7,36.5-40.7c18.4,0,34.5,11.8,34.5,31.5c0,15.1-8,23.4-18,30.5c-9.9,7-21.7,12.8-29,23.1H537
			v17.5h-73.9c0.2-23.3,14.4-33.2,31.8-45c8.9-6,21-12.2,21.1-24.6c0-9.5-6.3-15.5-15.1-15.5c-12.1,0-16,12.5-16,23.1H465.4z"/>
	</g>
	<rect x="249.6" y="384.2" class="st2" width="501" height="233"/>
</g>
</svg>
