<?xml version="1.0" encoding="utf-8"?>
<!-- Generator: Adobe Illustrator 22.1.0, SVG Export Plug-In . SVG Version: 6.00 Build 0)  -->
<svg version="1.1" xmlns="http://www.w3.org/2000/svg" xmlns:xlink="http://www.w3.org/1999/xlink" x="0px" y="0px"
	 viewBox="0 0 1000 1000" style="enable-background:new 0 0 1000 1000;" xml:space="preserve">
<style type="text/css">
	.st0{fill:#008066;}
	.st1{fill:#FFFFFF;}
</style>
<g id="Placard">
	<g>
		<polygon class="st0" points="499.6,950.4 49.2,500 499.6,49.6 950,500 		"/>
		<path class="st1" d="M499.6,91.5L91.2,500l403.2,403.3l5.3,5.2l403.2-403.2l5.3-5.3L499.6,91.5z M101.6,500l398-398l398,398
			l-398,398L101.6,500z"/>
		<path class="st1" d="M637.6,256.5c1.3,4.7-2.2,7.7-4.2,8.9c-0.8,0.5-1.9,0.9-1.9,0.9l-26.3,6.8c0,0-3,0.8-4.3,2.4
			c-9.2,11.4-23.1,15.9-23.1,15.9s-198.6,54.9-204.2,54.7c-5.6-0.1-7.1-4.2-7.1-4.2l-6.4-24.1c0,0-0.8-4.3,4-7.3
			c4.8-2.9,204.2-54.7,204.2-54.7s14.3-3.1,27.9,2.3c2,0.8,4.9-0.1,4.9-0.1l26.3-7.2c0,0,1-0.2,2-0.1
			C631.9,250.8,636.4,251.7,637.6,256.5L637.6,256.5z"/>
		<g>
			<path class="st1" d="M464.9,785.7c-0.7-23,12.4-40.7,36.5-40.7c18.4,0,34.5,11.8,34.5,31.5c0,15.1-8.1,23.5-18,30.5
				c-9.9,7-21.7,12.8-29.1,23.2h47.6v17.5h-74c0.2-23.3,14.4-33.2,31.8-45c8.9-6,21-12.2,21.2-24.6c0-9.5-6.3-15.5-15.1-15.5
				c-12.1,0-16,12.5-16,23.2H464.9z"/>
		</g>
		<rect x="248.9" y="383.4" class="st1" width="501.5" height="233.3"/>
	</g>
</g>
<g id="UN_Number">
</g>
</svg>
