<?xml version="1.0" encoding="utf-8"?>
<!-- Generator: Adobe Illustrator 22.1.0, SVG Export Plug-In . SVG Version: 6.00 Build 0)  -->
<svg version="1.1" id="Placard" xmlns="http://www.w3.org/2000/svg" xmlns:xlink="http://www.w3.org/1999/xlink" x="0px" y="0px"
	 viewBox="0 0 1000 1000" style="enable-background:new 0 0 1000 1000;" xml:space="preserve">
<style type="text/css">
	.st0{fill:#FFFFFF;}
	.st1{fill-rule:evenodd;clip-rule:evenodd;}
	.st2{fill-rule:evenodd;clip-rule:evenodd;fill:#FFFFFF;}
	.st3{fill:none;stroke:#000000;stroke-width:3;}
</style>
<path class="st0" d="M50.9,500.5c0.9,0.9,448.2,448.3,449.1,449.1c0.9-0.9,448.3-448.2,449.1-449.1C948.3,499.6,500.9,52.2,500,51.4
	C499.1,52.2,51.7,499.6,50.9,500.5"/>
<g>
	<polygon class="st0" points="52.1,500.5 500,52.6 947.9,500.5 500,948.4 	"/>
	<path d="M500,54.7l445.8,445.7L500,946.3L54.2,500.5L500,54.7 M500,50.5l-450,450l450,450l449.1-449.1l0.9-0.9L500,50.5L500,50.5z"
		/>
</g>
<path d="M500,92.4L91.9,500.5l402.9,402.9l5.2,5.2l402.9-402.9l5.2-5.2L500,92.4z M102.3,500.5L500,102.8l397.7,397.7L500,898.2
	L102.3,500.5z"/>
<path class="st1" d="M544.4,283.7c6-1.5,12.7-4.9,18.2-8.3c1.6-1,6.3-4.1,8.3-5.6c6.8-5.3,9.3-12.5,15.5-17.9c6.3-5,18.3-2,18.5,3.3
	c0.2,5.3,1.1,10.7,2.2,11.1c5.6,2.6,13.4,28.7-4.4,29c-0.2,0-15.5-4.9-25.8-2.2c-4.8,1.3-8.9,4.6-14.6,7.2
	c-2.9,1.3-19.8,8.1-23.1,10.5c-1,0.7-1,1.3-1.6,1.9c0.9,5.9,9.3,6.3,13.1,9.1c0,0.1,11.7,6.3,11.8,6.4c5.5,2.9,12.8,4.1,14.8,3.9
	c0.3,0,5.1-1,7.8-1.8c11.5-3.4,17.8,1.3,18.4,1.8c6.2,4.7,11,21.6-6.5,26.3c-0.8,5.1-1.2,9.9-5,14.1c-0.2,0.2-10.7,8.5-19.6,0.9
	c-4.8-4.1-7.3-16.1-7.3-16.4c-0.7-7.1-7.6-9.6-13.8-13.3c-3.4-2-6.4-4-9.1-5.3c-0.4-0.2-10.1-5.3-16.6-5.9c-7-0.6-16.2,4.8-21.1,7
	c-17.9,3.5-20.8-6.9-30.2-6.2c-7.3,0.5-17.1,6.5-23,9.6c-0.9,0.5-10.6,4.7-12.8,8c0,0.1-6.6,7.5-8,10.7c-1.9,4.1-4.9,8.5-8,10.4
	c-1,0.7-9.3,6.6-14.7,1.6c-4.3-4.4-4.5-14.6-4.6-14.7c-2.7-2.4-7.7-6.2-8.6-8.4c-4.1-10.3,2.6-18.9,10.5-18.3
	c1.7,0.1,11.4,5.1,22.4-2.7c0.2-0.1,20.7-8.2,28.5-12.1c4-2,4.8-3.7,5.1-3.8c-8-6-18.2-10.5-28.4-13.6c-5.8-2-13.6-7.2-22.8-6.7
	c-7.5,0.4-18.7,6-26.5-0.5c-1.1-0.9-7.7-12.6,3.4-21.1c-0.6-6.8-4.4-8.9-4.3-14.5c0.2-7.1,13.5-12.1,21.9-4.6c3.4,3,7.9,6.8,8.7,7.8
	c6.1,8.2,27.1,20.5,29.5,22c4.7,1.6,9.7,4.1,13.6,5.1c-4.9-4.8-10.7-5.6-14.2-9.6c-2.2-2.5-3.4-8.2-4-12.1c-0.7-4.5,0.2-11.6,0-16.3
	c-1.1-2-15.7-28.8-9.6-46.3c4.7-13.5,42.1-36.1,47.9-38c6.9-3.6,15.5-6.5,26-6.7c8.1-0.2,29.7,13.5,34.8,17.9
	c10.4,7.2,22.4,15.5,28.4,25.5c5.4,6.8-0.3,27.7-0.3,27.6c0.6,0.2-8.1,18.7-6.7,26.8c0.9,5.1,0.2,13.9-4.9,19.6
	C550.6,278.7,547.1,280.2,544.4,283.7"/>
<path class="st2" d="M560,220.5c0.2-1.2,0.7-3.8,0.8-5.6c1.1-16.1-19.7-26.7-33.5-35.9c-1.2-0.8-19.2-13-30.5-12.1
	c-13.8,1.2-30.3,11.3-43.1,20.9c-2.3,1.7-7.5,5.2-11,8c-0.9,0.8-2.3,2.1-2.7,2.7c-2,3.1-3.9,6.2-4.6,11c-1.1,7.8,1.7,17.4,5.1,24.4
	c0-0.3,0.4-8.2,0.6-16.8c0.1-4,4.8-11.5,5.1-11.8c1.5-1.7,4.6-5.5,7.2-5.1c-4.1,5.2-5.2,9.3-5.9,16.1c-0.9,8.9,0.8,23.9,0.7,24.4
	c-0.4,4.8-3.4,10.3-3.7,13.8c-0.6,5.7-0.8,6.3,0.3,11.3c1.8,3.9,3.1,7.1,5.6,9.4c1.3,1.2,5.1,3.8,5.4,4c3.3,2.3,17.6,10.5,17.9,10.7
	c4.5,3.4,0.6,8.2,3.8,12.3c2.7,1.7,14.4,2.7,18.5,2.7c1.3,0,13.1-1,13.4-1.1c14.5-0.9,6-11.7,8.3-14.2c0.6-0.7,2-2.7,2.7-3.2
	c3-2.5,6.5-2.9,9.9-4.8c5.2-2.9,19.8-7.3,19.3-23.6c-0.1-4-1.3-8.4-1.9-12.3c-0.8-5.5,1.9-11.6,1.9-12.3c1.3-9,0.5-23.6-5.1-28.4
	c0-0.1-2.9-3.3-3-4.5c4,1.3,7.4,2.4,9.9,5.4c4.9,5.7,5.2,15.7,4.8,21.9c-0.1,1.1-0.8,1.8-0.1,2.6c0,0,0.1,0,0.1,0.1
	C555.9,230.5,559.2,223.9,560,220.5"/>
<path class="st2" d="M452.9,293.9c-4.4-1.6-8.1-4.2-12.8-5.9c-12.1-6.1-36.2-27.4-38.5-29.4c-1.4-1.3-3-3.5-5.6-4
	c-3.5-0.7-7.7,1.8-7.8,5.9c0,1.5,2,6.4,4.5,5.6c0.9-0.3,0.8-1.8,2.4-1.6c5.3,8.4-10.2,11.4-10.2,19.8c1,3.3,2.8,5,5.1,5.6
	c1.5,0.4,8.2-0.3,8.6-0.5c3.6-2,5.4-3,9.4-3.2c7.9-0.5,40.1,14.8,40.6,15c3.8,1.1,5.8,4.8,10.2,5.1c0.4-3.5,1.6-4.7,0.8-9.9
	C458.1,295.4,453.9,294.2,452.9,293.9"/>
<path class="st2" d="M608.1,282.7c0.2-1,0.4-7.4-1.9-7.5c-3.6-0.1-0.9,6.9-6.2,5.3c-1.3-4.1-0.4-9.7,0.3-15.8
	c0.2-2,0.1-10.5-7.2-9.1c-2.4,0.4-4.8,2.9-6.4,5.1c-1.9,2.4-2.9,6.5-5.1,9.4c-4,5.4-34.7,20.1-43.9,24.9c0.6,4.4-0.4,6.3,0.8,9.6
	c7-3.1,39.2-18.6,39.6-18.5c4.9-2.2,21.1,1.4,24.9,2.8C603.6,289.1,607.4,287.2,608.1,282.7"/>
<path class="st2" d="M467.9,313c0.9,5.7,11.6,14.2,19.8,17.5c7.2,2.9,14.3,2.1,19.3,0.2c-0.2,0,11.6-5.1,15-7.8
	c4.5-3.6,8.4-8.4,9.3-13.7c0-0.2,1-8.1,0.3-16.8c0-0.5-0.8-2-2.7-1.1c-1.4,11,0.1,17.4-8.8,22.5c-2.5,1.4-7.9,3.4-10.7,4.5
	c-10.1,2.9-26,0.9-35.1-6.4c-1.6-1.3-2.7-3.1-2.9-5.1c-1.5-12.5-3.1-13.6-4-13.1C465.7,301.8,467.8,312.6,467.9,313"/>
<path class="st2" d="M410.6,369.1c1.6,0.1,3-0.1,4.3-0.3c5.7-2.8,9.9-9,13.4-14.4c1.6-2.5,3.1-6,5.6-7.8
	c4.9-3.5,22.2-12.4,22.2-12.6c4.1-1.8,7.9-3.8,11-6.7c0.1-1.5-1.9-4.2-3.8-5.3c-6.6,0.6-10.1,2.7-16.3,5.1
	c-10.3,3.9-22,9.7-30.2,13.1c-3.4,0.1-6.3-2-9.4-2.4c-4.7-0.7-9.3,2.9-8.9,7.5c0.3,3.4,3.7,6.2,5.4,7.2c3.8,1.9,0.4-6.8,5.3-5.9
	C411.5,348.3,406,366.7,410.6,369.1"/>
<path class="st2" d="M597.6,350.9c0.8,0.1,1.9,0.2,2.5,0c8.1-3,1.8-12.3,1.3-12.8c-0.7-0.8-3-2-3.1-2c-7.2-1.8-16.2,1.8-21.2,2.3
	c-5,0.5-10-0.5-15.5-3.5c-0.1-0.1-3.1-2-4-2.7c-4.9-2.9-22.1-16.2-27.6-6.1c6,3.4,13.2,6.3,18.7,9.4c4.9,2.7,11.8,7.5,17.9,13.6
	c1-1.7,1.5-3.8,3.8-4.3c1.3,6.8,0.4,7,1.1,13.9c-0.3,8.9,6,11.5,6.3,11.5c1.6,0.1,5.2,0.7,7,0c3.6-1.4,6-6.3,6.2-8.7
	c0-0.5,0.9-6.9,1-9.7c0.1-1.4-0.3-3,0-4.3c1-3.7,6.8-2.6,7-2.4C598.4,346.9,597.5,350.9,597.6,350.9"/>
<path class="st1" d="M472.6,241.3c3.6,0.4,10,2,13.2,3.1c1.3,0.5,1,4,0.8,4.4c-2.6,6.2-8.6,16.3-17.5,15.7
	c-9.9-0.5-12.7-13.9-12.6-15.2C457.4,240.7,472.7,241.3,472.6,241.3"/>
<path class="st1" d="M542.2,248.5c2.2,4.9-3.4,11.7-8.3,16.4c-2.6,2.6-9.1,1.2-9.6,1c-9.2-3.5-16.9-12-15.1-19
	c0.7-2.7,8.5-3.4,9.4-3.5C519.5,243.3,539.4,242.4,542.2,248.5"/>
<path class="st1" d="M495,269.5c1.2-1.2,5.5-0.2,5.4-0.1c6.4,1.1,8.3,20.5,8.3,20.3c-0.8,2.2-3.3,2.9-5.9,3
	c-3.2,0.1-5.3-3.1-8.6-2.1c-2.7,0.7-3.1,3-6.4,1.6C485.2,285.3,489.2,273.7,495,269.5"/>
<g>
	<path d="M465.3,785.9c-0.7-23,12.4-40.7,36.5-40.7c18.4,0,34.5,11.8,34.5,31.5c0,15.1-8.1,23.4-18,30.5c-9.9,7-21.7,12.8-29,23.1
		h47.6v17.5H463c0.1-23.3,14.4-33.2,31.8-45c8.9-6,21-12.2,21.1-24.6c0-9.5-6.3-15.5-15.1-15.5c-12.1,0-16,12.5-16,23.1H465.3z"/>
</g>
<rect x="249.5" y="384" class="st0" width="501.1" height="233.1"/>
<rect x="249.5" y="384" class="st3" width="501.1" height="233.1"/>
</svg>
