<?xml version="1.0" encoding="utf-8"?>
<!-- Generator: Adobe Illustrator 22.1.0, SVG Export Plug-In . SVG Version: 6.00 Build 0)  -->
<svg version="1.1" id="Placard" xmlns="http://www.w3.org/2000/svg" xmlns:xlink="http://www.w3.org/1999/xlink" x="0px" y="0px"
	 viewBox="0 0 1000 1000" style="enable-background:new 0 0 1000 1000;" xml:space="preserve">
<style type="text/css">
	.st0{fill-rule:evenodd;clip-rule:evenodd;fill:#DA1A32;}
	.st1{fill:#FFFFFF;}
	.st2{fill:#DA1A32;}
	.st3{fill-rule:evenodd;clip-rule:evenodd;fill:#FFFFFF;}
</style>
<g>
	
		<rect x="180.8" y="182.3" transform="matrix(0.7071 -0.7071 0.7071 0.7071 -207.7617 499.4183)" class="st0" width="636.4" height="636.4"/>
	<path class="st1" d="M91.8,500.5L499,907.8l407.3-407.3L499,93.3L91.8,500.5z M897,500.5L752.2,645.3l-506.5-0.1L101.1,500.5
		L499,102.6L897,500.5z"/>
	<g>
		<path class="st2" d="M490,799.9l3.8,0c7.3,0,20.5-0.6,20.5-13.8c0-3.7-2.1-13.1-15.4-13.1c-16.6,0-16.6,13.1-16.6,16.7l-22.4,0
			c0-19.1,12.9-32.8,40.6-32.8c16.4,0,38,6.9,38,28.5c0,10.4-7.8,16.8-14.7,19.4l0,0.3c4.3,1,18.5,6.3,18.5,23.7
			c0,19.3-17.1,32.9-41.8,32.9c-11.6,0-42.6-2.2-42.6-34.1l23.7,0l-0.2,0.1c0,5.5,1.7,17.8,18,17.8c9.7,0,18.1-5.5,18.1-16.8
			c0-14-16.2-14.5-27.5-14.5V799.9z"/>
	</g>
	<path class="st1" d="M517,216.7c0.7-8.1-0.4-19.1-6.1-24.5c-1-1-2.2,0.7-2.5,1.6c-2.9,10.2-7.4,19.7-6.5,30.1
		c0.2,2.5,3.6,6.3,6.7,5.9C513.8,229.1,516,221.6,517,216.7l3.7,1.4c-0.7,3.2-1.6,8.3-1.4,11.6c0.2,3.3,4.6,5.2,7.9,2.8
		c6.8-5.1,9.1-13.2,11.1-21.4c2.2-9.3-4.7-17.1-2.8-26.1c12.2,0.2,17.2,13.5,18.8,23.9c2.4,15.9-3.2,29.7-9.2,43.7
		c-1.6,3.7-4.4,9.9,1,10.9c6.8,1.3,10.4-5,14.2-9.5c8.5-10,10.5-23.3,16.5-34.7c15.8,19.2,2,44.3-10.6,62.5c-1.8,2.6-4.1,6.1-3,9.5
		c1,3.4,5,4.1,7.6,2.1c10.8-7.9,15.9-19.8,20.2-32.2c0.1-0.3,1.3-0.3,1.4,0.5c2.4,17.9-1.9,34.4-9.5,49.8
		c-11.5,23.5-32.4,44.4-59.6,46.1c0-0.8-0.2-1.9,0.1-2.1c6.6-4.3,10.6-10.5,14.5-16.8c6.4-10.1,8.9-20.9,11.2-32.9
		c0.8-4.2-0.9-12.9-6.4-9.9c-7,3.7-10.6,11.9-18.3,15.2c2.9-6.4,11.7-16.9,4.7-20.5c-3.6-1.8-7.3,5.9-12.8,6.5
		c2.1-12.6,11.2-24.5,5.2-37.8c-4.2-9.2-8.2-19.9-17.2-22.6c-5.1-1.6-6.9,8.6-5.1,13.8c2,5.7,6.3,10.4,7.3,16.5
		c0.8,5.2,2.5,17.8-3.1,15.7c-7.6-3-9.2-13.3-9-22.2c0-0.9-1.7-3.5-3.5-2.7c-3.1,1.4-5,4.5-5.7,7.9c-3.2,15.4,2.1,29.2,5,43.6
		c-10.2-7.4-9.4-22-13.6-33.1c-1.3-3.5-2.7-6.8-6.8-6.8c-1.9,0-3.9,1.5-4.4,3.3c-1.9,7.9,4.5,16.3,0,22.6c-1.7,2.3-6.8-1.6-10.8-1.5
		c-4.1,0.2-7.2,3.9-5.5,7.8c3.4,7.9,12.4,10.4,17.5,17.2c1.9,2.5,3.9,4.8,5.3,7.5c2.9,5.6,4.1,11.7,7.4,17.2
		c3.5,5.7,10,8.6,13.1,14.7c-0.4,0-0.8,0-1.2,0c-28.8-5.4-52.4-24.2-62-50.6c-4.6-12.7-3.1-26.6-9.3-38.7c-1.8-3.6-5.5-6.2-7.2-10.1
		c11.6-0.8,14.9,12,24,16.6c2,1,4.1-0.9,4.4-3.2c0.6-4.8-1.3-9-0.1-14c1.7-6.6,4.6-12.1,3-19.1c-1.5-6.7-6.7-11.3-7.2-18.1
		c-0.1-1.2,1.8-0.7,2.5-0.4c11.2,4.9,15.8,16.5,24.1,24.6c1,1,2.2-0.7,2.5-1.6c6.3-15.4,6.5-31.3,4.1-48.2c-0.3-2.4-1.6-4.5-3-6.2
		c-4.9-5.7-12.3-9.9-13.1-18.2c1.2,0-0.2-2.7,1.7-1.7c3,1.6,4.2,5,6.8,7.2c5,4.3,10.9,6.1,16.5,9.1c7.6,4.1,7.7,14.8,15.4,18
		c1.7,0.7,3.9-1.7,4.3-4.2c2.5-15.5-7.4-26.6-11.8-40.2c-2.4-7.2-1.8-14.6,0.2-21.9c2.1-7.8,4.6-20.5,14.1-19.9c0.4,0,1.2,3,0.5,4.6
		c-3,6.8-1.6,14.3,1.3,20.1c8.6,17.3,21.5,32.5,22.4,52.6c0.3,7.5-2.7,16.3-4.7,23.2L517,216.7L517,216.7z"/>
	<rect x="412.7" y="372.7" class="st1" width="189.9" height="9.9"/>
	<path class="st3" d="M241.8,388l511.4,0l0,247.1H241.8L241.8,388z M549.3,859.1"/>
</g>
</svg>
