<?xml version="1.0" encoding="utf-8"?>
<!-- Generator: Adobe Illustrator 22.1.0, SVG Export Plug-In . SVG Version: 6.00 Build 0)  -->
<svg version="1.1" id="Placard" xmlns="http://www.w3.org/2000/svg" xmlns:xlink="http://www.w3.org/1999/xlink" x="0px" y="0px"
	 viewBox="0 0 1000 1000" style="enable-background:new 0 0 1000 1000;" xml:space="preserve">
<style type="text/css">
	.st0{fill:#FFFFFF;}
	.st1{fill:#E31837;}
	.st2{fill:none;stroke:#000000;stroke-width:3;}
</style>
<g>
	<polygon class="st0" points="53.1,500.8 499.9,53.5 947,501 500.2,948.4 	"/>
	<path d="M499.9,55.6L944.8,501L500.2,946.3L55.2,500.8L499.9,55.6 M499.9,51.4L51,500.8l449.2,449.7L949.1,501L499.9,51.4
		L499.9,51.4z"/>
</g>
<polygon class="st1" points="51.1,501 949,501 500,950.5 "/>
<path d="M102.3,501L500,899.2L897.7,501L500,102.9L102.3,501z M494.8,904.4L91.9,501L500,92.4L908.1,501l-5.2,5.2L500,909.6
	L494.8,904.4z"/>
<path d="M489.2,348.4c-26.9-5-49-22.6-58-47.4c-4.3-11.9-2.9-24.9-8.6-36.2c-1.7-3.4-5.1-5.8-6.8-9.4c10.9-0.7,13.9,11.2,22.4,15.5
	c1.9,0.9,3.8-0.9,4.1-3c0.6-4.5-1.2-8.4-0.1-13.1c1.6-6.2,4.3-11.4,2.8-17.9c-1.4-6.2-6.2-10.6-6.7-16.9c-0.1-1.1,1.7-0.6,2.4-0.3
	c10.5,4.6,14.8,15.5,22.5,23c0.9,0.9,2-0.7,2.4-1.5c5.9-14.4,6-29.3,3.8-45.1c-0.3-2.2-1-4.8-2.8-5.8c-11.1-6.2-12.5-19.6-10.7-18.6
	c2.8,1.5,3.9,4.7,6.3,6.8c4.7,4,10.2,5.7,15.4,8.5c7.1,3.9,7.2,13.9,14.4,16.8c1.6,0.7,3.7-1.6,4-3.9c2.4-14.5-6.9-24.9-11.1-37.6
	c-2.2-6.8-1.7-13.7,0.2-20.5c2-7.3,4.3-19.2,13.1-18.6c0.4,0,1.1,2.8,0.5,4.3c-2.7,6.4-1.5,13.3,1.3,18.8
	c8.1,16.2,20.1,30.4,20.9,49.3c0.5,11.5-6.3,21.4-5.7,32.6c0.2,3.1,4.3,4.9,7.4,2.6c6.4-4.8,8.5-12.4,10.3-20
	c2.1-8.7-4.3-16-2.6-24.5c11.4,0.2,16.1,12.6,17.6,22.4c2.2,14.9-3,27.8-8.6,40.9c-1.5,3.5-4.2,9.3,0.9,10.2
	c6.4,1.2,9.7-4.6,13.3-8.9c7.9-9.4,9.8-21.8,15.4-32.5c14.8,17.9,1.9,41.5-9.9,58.5c-1.7,2.5-3.8,5.7-2.9,8.9c0.9,3.2,4.6,3.8,7.1,2
	c10.1-7.4,14.9-18.5,18.8-30.1c0.1-0.3,1.3-0.2,1.3,0.5c2.2,16.7-1.8,32.2-8.9,46.6c-10.8,22-30.3,41.6-55.7,43.1
	c0-0.7-0.2-1.8,0.1-2c6.2-4,9.9-9.8,13.6-15.7c6-9.5,8.3-19.5,10.5-30.8c0.8-3.9-0.8-12.1-6-9.3c-6.5,3.5-9.9,11.1-17.1,14.2
	c2.7-6,11-15.9,4.4-19.2c-3.4-1.7-6.8,5.5-12,6.1c2-11.8,10.5-23,4.9-35.3c-3.9-8.6-7.6-18.6-16.1-21.2c-4.8-1.5-6.4,8.1-4.8,12.9
	c1.9,5.4,5.9,9.8,6.8,15.4c0.8,4.9,2.3,16.7-2.9,14.7c-7.1-2.7-8.6-12.5-8.5-20.7c0-0.9-1.6-3.3-3.2-2.5c-2.9,1.4-4.6,4.2-5.3,7.4
	c-3,14.4,2,27.3,4.6,40.8c-9.5-6.9-8.7-20.6-12.6-30.9c-1.2-3.2-2.5-6.4-6.4-6.3c-1.8,0-3.7,1.4-4.1,3.1c-1.8,7.4,4.2,15.3,0,21.1
	c-1.6,2.2-6.4-1.5-10.1-1.4c-3.8,0.2-6.7,3.6-5.2,7.3c3.1,7.3,11.6,9.8,16.3,16.1c1.7,2.3,3.7,4.5,4.9,7c2.7,5.3,3.8,11,7,16.1
	c3.3,5.4,9.3,8.1,12.3,13.7C489.9,348.4,489.5,348.5,489.2,348.4 M505.4,228.2c5.5-0.7,7-7,7.8-12c1.2-8.1,0.1-17.6-5.7-23.2
	c-0.9-0.9-2.1,0.7-2.3,1.5c-2.7,9.5-7,18.4-6,28.2C499.3,225,502.5,228.5,505.4,228.2 M571.4,356.3H428.6v10.1h142.8V356.3z"/>
<g>
	<path d="M504.9,825.5h-42.6v-18.7L506,748h18.3v60.7h13.4v16.9h-13.4v23.4h-19.4V825.5z M504.9,773.6h-0.4l-26.1,35h26.5V773.6z"/>
</g>
<rect x="249.5" y="384.4" class="st0" width="501.1" height="233.3"/>
<rect x="249.5" y="384.4" class="st2" width="501.1" height="233.3"/>
</svg>
