<?xml version="1.0" encoding="utf-8"?>
<!-- Generator: Adobe Illustrator 22.1.0, SVG Export Plug-In . SVG Version: 6.00 Build 0)  -->
<svg version="1.1" id="Placard" xmlns="http://www.w3.org/2000/svg" xmlns:xlink="http://www.w3.org/1999/xlink" x="0px" y="0px"
	 viewBox="0 0 1000 1000" style="enable-background:new 0 0 1000 1000;" xml:space="preserve">
<style type="text/css">
	.st0{fill:#FFDD00;}
	.st1{fill-rule:evenodd;clip-rule:evenodd;}
	.st2{fill:#FFFFFF;}
</style>
<g>
	<polygon class="st0" points="500.5,950 51,500.5 500.5,51 950,500.5 	"/>
	<path d="M500.5,92.9L92.8,500.5l402.5,402.5l5.2,5.2L903,505.7l5.2-5.2L500.5,92.9z M103.3,500.5l397.2-397.2l397.2,397.2
		L500.5,897.7L103.3,500.5z"/>
	<path class="st1" d="M556.9,285.8c0,32.4-26.3,58.7-58.7,58.7c-32.4,0-58.7-26.2-58.7-58.7c0-5.2,1.5-13,1.5-13
		c-6.4-2.6-7.2-11.6-7.8-13.7c-4.2-15.1,10.3-30.2,0.9-49.5c7-1.5,11.3,8.6,12.6,10.1c15.1-28.9,1.6-46.3,2.2-47.6
		c9.1-1,13.5,12.7,14.7,15.6c11.8-12.2,12.5-36.6,4.6-45.6c8.3-3.7,22.1,12.5,22.7,12.3c0,0,11.3-25.1,4.3-37.1
		c19.3,1.4,23.2,40.4,24,49.5c0.2,0.1,6.3-9.7-0.2-23.2c18.1,6.9,17.8,41.5,16.2,46.8c2.4-0.2,10.9-9.4,2.8-24.9
		c24.4,10.5,12,45.9,9.9,58.8c4.9-4,9.1-5.9,15.1-5.4c0.2,0.8-12.5,7.5-5.8,24.4c0.1,0.3,8.8,20.6-1.2,29.5
		C556.1,273,556.9,280.7,556.9,285.8 M531.8,232.2c1.6-2.8,4.2-6.3,1.2-9.8C531.7,224.1,528.4,230.1,531.8,232.2 M494.1,212.5
		c0.8,7.1,2.9,13.4,4,14.6c0.6,0,1.2-0.2,1.2-0.3c4.9-5,3.9-30.8-4.6-32.6C493.9,198.1,493.4,205.7,494.1,212.5 M514.2,217.4
		c-1.7,1.3-3.1,7.1,0.3,9.1C517.6,224.7,514.7,218.2,514.2,217.4 M538.3,243.7c0.3,0.9,1.3,0.9,2-0.2
		C539.7,242.8,539,242.9,538.3,243.7 M481.2,221.6c0.1,0.9,1.2,5.9,2.8,5.7c4.3-0.5,1.8-8.3-2-8
		C481.2,220.3,481.2,221.3,481.2,221.6 M464,224.9c-0.8,3.9,1.4,8.9,4.4,10.4C472.4,232.5,468.6,224.8,464,224.9 M450.3,249.1
		c0.1,1.1,0.4,2.5,1.7,2.1C453.6,250.2,452.3,247.2,450.3,249.1 M547.3,286.4c0,27.1-22,49.1-49.1,49.1c-27.1,0-49.1-22-49.1-49.1
		c0-27.1,22-49.1,49.1-49.1C525.3,237.3,547.3,259.3,547.3,286.4 M567.2,351.8H428.9v9.8h138.3V351.8z"/>
	<g>
		<path d="M472.4,708.8h-41.5l-4,22.8l0.3,0.3c5.5-5.6,11.8-7.7,19.7-7.7c19.8,0,31,15.4,31,34.2c0,20.7-17.1,36.6-37.3,36.2
			c-19.5,0-37.1-10.8-37.3-31.9h20.4c1,8.9,7.6,15.1,16.5,15.1c10.6,0,17.4-9.3,17.4-19.4c0-10.5-6.5-18.8-17.4-18.8
			c-7.3,0-11.4,2.6-15.4,8h-18.4l9.9-55.6h56.2V708.8z"/>
		<path d="M489.1,770.4h22.6v22.1h-22.6V770.4z"/>
		<path d="M576.8,792.5h-20.4v-65.2h-25.3v-15.4c14.2,0.3,27.3-4.6,29.4-19.9h16.2V792.5z"/>
	</g>
	<rect x="250.2" y="384.1" class="st2" width="500.5" height="232.8"/>
</g>
</svg>
