<?xml version="1.0" encoding="utf-8"?>
<!-- Generator: Adobe Illustrator 22.1.0, SVG Export Plug-In . SVG Version: 6.00 Build 0)  -->
<svg version="1.1" id="Layer_1" xmlns="http://www.w3.org/2000/svg" xmlns:xlink="http://www.w3.org/1999/xlink" x="0px" y="0px"
	 viewBox="0 0 1000 1000" style="enable-background:new 0 0 1000 1000;" xml:space="preserve">
<style type="text/css">
	.st0{fill:#FFDD00;}
	.st1{fill:#E31837;}
	.st2{fill:#FFFFFF;}
	.st3{fill:none;stroke:#000000;stroke-width:3;}
</style>
<g>
	<polygon class="st0" points="500,950 50,500 500,50 950,500 	"/>
	<g>
		<path d="M471.9,708.5h-41.6l-4,22.9l0.3,0.3c5.5-5.6,11.8-7.8,19.7-7.8c19.8,0,31.1,15.4,31.1,34.2c0,20.7-17.1,36.7-37.4,36.2
			c-19.5,0-37.1-10.8-37.4-31.9H423c1,8.9,7.6,15.1,16.5,15.1c10.6,0,17.4-9.3,17.4-19.4c0-10.5-6.5-18.8-17.4-18.8
			c-7.3,0-11.4,2.6-15.4,8.1h-18.4l9.9-55.6h56.2V708.5z"/>
		<path d="M488.7,770.2h22.6v22.1h-22.6V770.2z"/>
		<path d="M525.3,730.3c-0.7-23,12.4-40.7,36.5-40.7c18.4,0,34.5,11.8,34.5,31.5c0,15.1-8,23.4-18,30.5c-9.9,7.1-21.7,12.8-29,23.2
			h47.6v17.5h-73.9c0.1-23.3,14.4-33.2,31.8-45c8.9-6,21-12.2,21.1-24.6c0-9.5-6.3-15.5-15.1-15.5c-12.1,0-16,12.5-16,23.2H525.3z"
			/>
	</g>
	<polygon class="st1" points="50,500 500,50 950,500 	"/>
	<path class="st2" d="M487.8,347.6c-26.9-5-49-22.6-58-47.3c-4.3-11.9-2.8-24.9-8.6-36.2c-1.7-3.4-5.1-5.8-6.7-9.4
		c10.9-0.8,13.9,11.2,22.4,15.5c1.9,0.9,3.8-0.9,4.1-3c0.6-4.5-1.3-8.5-0.1-13.1c1.6-6.1,4.3-11.3,2.8-17.9
		c-1.4-6.3-6.3-10.6-6.7-16.9c-0.1-1.1,1.7-0.6,2.4-0.4c10.5,4.6,14.8,15.5,22.5,23c0.9,0.9,2-0.7,2.4-1.6c5.9-14.4,6-29.2,3.8-45
		c-0.3-2.2-1-4.8-2.8-5.8c-11.1-6.2-12.5-19.6-10.7-18.6c2.8,1.5,3.9,4.7,6.3,6.7c4.7,4,10.2,5.7,15.4,8.5
		c7.1,3.9,7.2,13.9,14.3,16.8c1.6,0.6,3.7-1.6,4.1-3.9c2.4-14.5-6.9-24.9-11.1-37.6c-2.2-6.7-1.7-13.7,0.2-20.4
		c2-7.3,4.3-19.2,13.2-18.6c0.4,0,1.1,2.8,0.5,4.3c-2.8,6.3-1.5,13.3,1.2,18.8c8.1,16.1,20.1,30.3,21,49.2
		c0.5,11.5-6.3,21.4-5.7,32.6c0.2,3.1,4.3,4.9,7.4,2.6c6.4-4.8,8.5-12.4,10.3-20c2.1-8.7-4.3-16-2.6-24.4
		c11.4,0.2,16.1,12.6,17.6,22.3c2.3,14.9-3,27.7-8.6,40.8c-1.5,3.5-4.2,9.2,0.9,10.2c6.3,1.2,9.7-4.6,13.3-8.9
		c8-9.4,9.9-21.8,15.4-32.4c14.7,17.9,1.9,41.4-9.9,58.4c-1.7,2.4-3.8,5.7-2.9,8.9c0.9,3.1,4.6,3.8,7.1,2
		c10.1-7.4,14.9-18.5,18.8-30.1c0.1-0.3,1.3-0.2,1.4,0.5c2.2,16.7-1.8,32.2-8.9,46.6c-10.7,22-30.2,41.5-55.7,43.1
		c0-0.7-0.2-1.8,0.1-2c6.2-4,9.9-9.8,13.6-15.7c6-9.5,8.3-19.5,10.5-30.8c0.8-3.9-0.8-12-6-9.2c-6.5,3.5-9.9,11.1-17.1,14.2
		c2.7-6,11-15.8,4.4-19.1c-3.4-1.7-6.8,5.5-12,6.1c2-11.8,10.5-22.9,4.9-35.3c-3.9-8.6-7.6-18.6-16.1-21.1
		c-4.8-1.5-6.4,8.1-4.8,12.8c1.9,5.4,5.9,9.8,6.8,15.4c0.8,4.9,2.3,16.7-2.9,14.7c-7.1-2.8-8.6-12.5-8.4-20.8c0-0.9-1.6-3.3-3.3-2.5
		c-2.9,1.3-4.6,4.2-5.3,7.4c-3,14.4,2,27.3,4.7,40.7c-9.5-6.9-8.8-20.6-12.7-30.9c-1.2-3.2-2.5-6.3-6.4-6.3c-1.7,0-3.7,1.3-4.1,3.1
		c-1.8,7.4,4.2,15.3,0,21.1c-1.5,2.2-6.3-1.5-10.1-1.4c-3.8,0.2-6.7,3.6-5.2,7.3c3.1,7.4,11.6,9.8,16.4,16.1c1.7,2.3,3.6,4.5,4.9,7
		c2.7,5.2,3.9,11,7,16.1c3.3,5.4,9.3,8.1,12.2,13.7C488.6,347.6,488.2,347.7,487.8,347.6 M504.1,227.5c5.5-0.7,7-7,7.8-12
		c1.2-8.1,0.1-17.5-5.7-23.1c-0.9-0.9-2.1,0.7-2.3,1.5c-2.7,9.5-7,18.4-6,28.1C498,224.3,501.2,227.9,504.1,227.5 M570.1,355.5
		H427.3v10.1h142.8V355.5z"/>
	<path d="M500,91.9L91.9,500l402.9,402.9l5.3,5.2l402.9-402.9l5.2-5.2L500,91.9z M102.3,500L500,102.4L897.7,500L500,897.6
		L102.3,500z"/>
	<rect x="249.5" y="383.5" class="st2" width="501.1" height="233.1"/>
	<rect x="249.5" y="383.5" class="st3" width="501.1" height="233.1"/>
</g>
</svg>
