<?xml version="1.0" encoding="utf-8"?>
<!-- Generator: Adobe Illustrator 22.1.0, SVG Export Plug-In . SVG Version: 6.00 Build 0)  -->
<svg version="1.1" id="Placard" xmlns="http://www.w3.org/2000/svg" xmlns:xlink="http://www.w3.org/1999/xlink" x="0px" y="0px"
	 viewBox="0 0 1000 1000" style="enable-background:new 0 0 1000 1000;" xml:space="preserve">
<style type="text/css">
	.st0{fill:#FFFFFF;}
	.st1{fill:#FFDD00;}
	.st2{fill:none;stroke:#000000;stroke-width:3;}
	.st3{fill-rule:evenodd;clip-rule:evenodd;}
</style>
<g>
	<path class="st0" d="M50.9,500.5c0.9,0.9,448.2,448.2,449.1,449.1c0.9-0.9,448.2-448.2,449.1-449.1c-0.9-0.9-448.2-448.2-449.1-449
		C499.1,52.3,51.8,499.6,50.9,500.5"/>
	<g>
		<polygon class="st0" points="52.2,500.5 500,52.7 947.8,500.5 500,948.3 		"/>
		<path d="M500,54.8l445.7,445.7L500,946.2L54.3,500.5L500,54.8 M500,50.6L50.1,500.5L500,950.4l449.1-449.1l0.9-0.9L500,50.6
			L500,50.6z"/>
	</g>
	<polygon class="st1" points="97.4,500.5 903.4,500.5 500.3,97.1 	"/>
	<polygon class="st2" points="97.4,500.5 903.4,500.5 500.3,97.1 	"/>
	<path d="M500,92.4L91.9,500.5l402.9,402.9l5.2,5.2l402.9-402.8l5.2-5.2L500,92.4z M102.4,500.5L500,102.9l397.6,397.6L500,898.1
		L102.4,500.5z"/>
	<path class="st3" d="M608.1,267.7c-23.1,0.2-46.2-0.1-69.3,0.2c-0.4-11.3-5.7-25.1-19.9-34.3c12-19.9,22.7-40.9,35.2-60.1
		C590.7,194.1,610.2,237.4,608.1,267.7"/>
	<path class="st3" d="M445.8,173c11.8,19.7,23,39.9,34.7,60.1c-12.9,8-20.6,22.9-19.9,34.3c-23,0.8-46,0.2-69.1,0
		c-0.5-15.2,2.1-32.8,11.4-49.8C411.3,202.3,427.4,181.3,445.8,173"/>
	<path class="st3" d="M513.3,249.8c11.3,8.9,12.2,24.1,2.6,34.1c-13,13.6-34.4,5.7-38.9-11.4c-1.6-6-0.2-12,3.5-17.5
		C488.9,242.6,503.7,242.2,513.3,249.8"/>
	<path class="st3" d="M519.2,301.5c12.2,20,23.2,39.9,35,59.9c-35.2,19.7-72.3,19.9-108.2,0.2c4.6-10.2,10.9-19.8,16.4-30
		c5.6-10.2,11.6-20.3,17.7-30.4C493.1,308.3,506.2,307.9,519.2,301.5"/>
	<g>
		<path d="M534.3,764.8c-21.1,18.4-32.6,56.2-32.9,83.1h-21.8c2.3-29.8,14.7-58.6,33.8-81.7h-47.7v-19h68.7V764.8z"/>
	</g>
	<rect x="249.5" y="384" class="st0" width="501" height="233"/>
	<rect x="249.5" y="384" class="st2" width="501" height="233"/>
</g>
</svg>
