<?xml version="1.0" encoding="utf-8"?>
<!-- Generator: Adobe Illustrator 22.1.0, SVG Export Plug-In . SVG Version: 6.00 Build 0)  -->
<svg version="1.1" xmlns="http://www.w3.org/2000/svg" xmlns:xlink="http://www.w3.org/1999/xlink" x="0px" y="0px"
	 viewBox="0 0 1000 1000" style="enable-background:new 0 0 1000 1000;" xml:space="preserve">
<style type="text/css">
	.st0{fill:#FFFFFF;}
	.st1{fill-rule:evenodd;clip-rule:evenodd;}
	.st2{fill:none;stroke:#000000;stroke-width:1.2373;}
</style>
<g id="Placard">
	<g>
		<path class="st0" d="M49.8,500c0.9,0.9,449.3,449.3,450.2,450.2c0.9-0.9,449.3-449.3,450.2-450.2C949.3,499.1,500.9,50.7,500,49.8
			C499.1,50.7,50.7,499.1,49.8,500"/>
		<path d="M500,49L49,500L500,951l450.2-450.2l0.9-0.9L500,49z M50.7,500L500,50.7L949.3,500L500,949.3L50.7,500z"/>
		<path d="M96.1,500c5.1,5.1,398.7,398.7,403.8,403.9c5.1-5.2,398.7-398.7,403.9-403.9c-5.2-5.1-398.7-398.7-403.9-403.8
			C494.8,101.3,101.3,494.8,96.1,500"/>
		<path d="M500,90.9L90.9,500l403.9,403.9l5.2,5.2l403.9-403.8l5.2-5.3L500,90.9z M101.4,500L500,101.4L898.6,500L500,898.6
			L101.4,500z"/>
		<polyline class="st0" points="105.1,500 894.8,500 500,104.9 		"/>
		<g>
			<path class="st0" d="M500.1,745.4c25.1,0,33.7,17.3,33.7,27.1c0,9.9-5.2,18-14.7,21.5v-0.3v0.2v0.1c12,2.8,18.9,12,18.9,24.7
				c0,21.2-19,31.7-37.8,31.7c-19.5,0-38.3-9.8-38.3-31.5c0-12.8,7.2-21.9,19-24.8v-0.3c-9.8-2.8-14.8-10.8-14.8-20.8
				C466.1,754.7,483.7,745.4,500.1,745.4z M500.2,834.8c9.8,0,17.3-6.9,17.3-17c0-9.6-7.8-16.1-17.3-16.1c-9.9,0-17.9,5.6-17.9,16
				C482.4,828.1,490.4,834.8,500.2,834.8z M500.1,788c8.3,0,15.1-4.6,15.1-13.2c0-5.2-2.4-14-15.1-14c-8.2,0-15.4,5-15.4,14
				C484.7,783.5,491.9,788,500.1,788z"/>
		</g>
		<path class="st1" d="M618.2,272.6c-2.8,1.5-4.3,3.9-5,7.3c-0.3,1.4-0.2,3.3-0.9,4.9c-1.1,2.5-6.4,5.7-7.4,6.5
			c-1.3-0.5-2.5-4.2,0.4-6.5c3.3-1.6,0.9-5.4,1.3-8c0.2-1,5.8-6.9,5.8-6.9s0.7-8.3,7.9-14c1-1.5-0.8-6.4,0.5-8.7
			c0.9-1.7,3.3-3.2,4.8-1.5c0.8,0.9,0.9,3.9,1.1,6c0.3,2.5,0.6,6.6-1.5,9.7c-1.1,1.6-2.8,2.3-3.9,4.1c-1.3,2-1,4.8-2,6.3
			C619,272.2,618,272.7,618.2,272.6"/>
		<path class="st1" d="M590.3,273.8c-2.7,0.7-6.2-0.6-7.4-3.9c-2.3-6.6,4.5-22.5,5-22.8c2.7,1.6,5.8,7.1,7.2,11.2
			c1.8,5.3,0.3,10.3-2.6,13.8c1.1,1.7,3.2,5,3.2,5c1.2,2.2,3,5.2,3.2,8.8c0.2,5.1-2,12.2-8.5,11.6c-2.4-0.2-4.2-2.4-5.4-4.8
			C582.8,288.1,590.1,275.2,590.3,273.8 M586.6,265.6c-0.3-2,0.9-4.8,0-7.1C584.6,260.4,583.3,265.6,586.6,265.6 M589,286.1
			c0.6,0.5,1.1,1.1,2,0.8c0.4-1.5,1-2.1,0.9-3.7C589.9,282.2,589.6,284.3,589,286.1"/>
		<path class="st1" d="M541,255.9c1.2,2,1.3,6.6,3.5,7.8c0.5,0.2,1.4,0.3,2,0.6c0,0,3.5,1.8,3.9,2.2c2.5,2.8,4,11.7,4.2,12.1
			c1.6,3.2,9.2,5.9,9.4,6c3.4,1.2,2.8,8.8-2.7,5.6c-1-0.6-3.7-4-4-4.3c-2.1-1.6-6.3-0.8-7.6-3.2c-1.3-2.9-2-9.5-2.4-9.9
			c-1.1-1.2-3.8-0.5-5.6-1.7c-1.6-1-2.9-3.5-4.1-5.2c-1.1-1.6-1.2-2.7-1.5-4.7c-0.1-0.7-1-2.3-1.5-2.8c-0.5-1.3-2.7-1.9-3.2-3.4
			C533.2,250.6,540.1,254.4,541,255.9"/>
		<path class="st1" d="M638.9,257c3,2,2.7,7.5,3.7,10.5c-0.1,3.5-4,4.8-5.8,7.1c-1.7,2.4-1.6,6.1-3.1,8.8c-1.6,6.2-6.9,5.5-12.2,8.6
			c-0.2,0.1-4.4,4.2-6.8,2.7c0,0-0.1,0-0.1,0c0.1-0.2,2-2.4,2-2.2c1.7-0.9,2.8-2,3.7-3.6c0.6-1.1,1.1-2.6,2-3.3
			c0.2-0.2,5.2-4.2,5.2-4.1c0.9-1.8,3.3-5.5,3.6-9.4c0.2-2.7,4.2-5.8,4.4-7.2c0.4-2.5-0.9-6.6,0.9-7.8
			C636.7,256.6,638.2,256.9,638.9,257"/>
		<path class="st1" d="M558.4,259.3c1.1,2.1,5.4,5.2,5.3,5.2c3.8,2.8,2.9,7.5,4.8,10.4c0.5,0.8,2.4,3,2.4,3c1.9,1.9,3.6,4.1,4.3,7.3
			c-0.1,1.6-1.9,3.6-3.9,2.4c-2.8-2-3.2-6.1-5.8-8.2c-0.8-0.7-2.8-0.4-8.1-11.9c-0.5-1.2-2.4-2.5-2.4-2.4c-4.4-5.5,1.5-8.7,2.6-8
			C557.8,257.1,558.4,259.2,558.4,259.3"/>
		<path class="st1" d="M437.9,282.3c0.2-0.1,0.6-7.9,2.2-9.6c1.4-1.6,4-2.3,4.1-2.3c4,0.5,0.7,7.4,0.7,7.3c-0.7,2,0.7,7.1-1.5,8.7
			c-2.1,1.3-6.4,5.5-6.5,5.4c-2.6,3.6,1.7,7.8-1.5,13.4c-2.9,2.4-4.9,4.2-6.5,6.9c-1.1,1.9-1.7,4.5-3.7,6.7
			c-2.7-0.1-2.5-5.4-1.3-8.4c0.3-0.7,8.8-8.7,5.9-12.1c-0.7-2.4,1.1-8.4,1.5-8.8C432.7,288.1,436.4,283.3,437.9,282.3"/>
		<path class="st1" d="M377.9,281.8c-0.6,3.6-2.3,6.4-1.5,9c0.3,0.9,2.7,3.6,2.9,3.9c1,2,0.5,8.8,3.4,10.8c0.7,0.5,2.3,0.7,4.1,2.8
			c0.7,2.9-2.2,5.1-0.7,9.3c0.7,2.1,3.1,3.2,3.5,5.2c0.4,1.8-0.4,6.1-3.5,4.6c-0.9-1.5-0.7-2.4-1.5-3.5c-1.2-1.6-2.8-2.1-3.7-3.4
			c-0.6-0.9-1-2.8-1.1-3.7c-0.2-2,2-5.6-0.6-7.7c-0.7-0.5-1.9-0.6-2.4-0.9c-2.1-1.2-2-2.7-3-4.9c0.1-1.7,1.4-2.9,1.3-4.8
			c-0.2-2.6-3.5-3.5-5-5.6c-1.7-2.6-0.4-6.1,0.2-8.6c0.5-2.1-0.1-4.6,0.9-6.4C376,270,377.8,280.4,377.9,281.8"/>
		<path class="st1" d="M414.2,320c-0.1-1.1-0.3-2.4-0.2-3.7c0.2-4.7-0.1-10.5,3-13.4c0-0.1,0.8-1.5,1.1-4.3c0.3-2.7,0.3-6.7,1.1-8.6
			c0-0.2,3.1-7.8,5.7-5.2c0.5,1.5,0.7,3,0.7,4.3c-0.5,2.2-2.4,3.9-2.9,6.3c-0.7,2.8-0.1,6-0.6,8.2c-0.2,0.5-1.2,2.5-1.3,2.6
			c-2.6,3-0.5,10.2-3.9,13.4C416.1,320.3,414.9,320.1,414.2,320"/>
		<path class="st1" d="M359.6,286.5c0.6-0.2,0.7,0.2,1.1,0.2c0.9,2.1,0.4,4.5,0.2,6.5c-0.1,0.8-0.4,2.7-0.2,3.9
			c0.4,2.8,3,4.6,4.1,7.3c0.9,2.2,0.3,5.2,1.3,7.1c1.3,2.6,4.4,4.4,5.4,6.7c1,1,1.9,2,2.6,3.4c0.3-0.2,6.6,3.9,4.6,7.5
			c-2.5,1-8.3-2.6-8.5-2.8c-1.7-2-2-7.2-5-6.9c-1.7-0.5-4.7-1.3-5.2-3.9c-0.5-3,1.1-7.6-0.7-10.1c-1.2-1.6-6.3-3.1-6.1-6.7
			c0.1-1.3,1-2,1.8-3.2C357.8,291.4,358.1,290.6,359.6,286.5"/>
		<path class="st1" d="M602.2,364.9c-16.2,0.3-39.4,0.6-54.7,0.2c-13.1-0.3-27.1-1.3-23.4-9.4c0,0.1,2.7-1,3.3-1.1
			c3-0.5,33.1,0.5,41.6-0.6c0-0.2-0.1-1.6-0.3-1.8c-0.6-0.5-1.2-0.9-2.2-0.7c0-0.2-50.9,0.4-53.9-1c-3.1-1.5-3.5-6.1-0.9-7.1
			c-0.1,0,50.3,0.7,49.7-0.7c-0.1-0.3,0.3-1,0-1.9c-1.2-0.3-49.3-0.6-49-0.6c-5.7-0.2-13.2-3.5-8.7-10.1c2.9-3.6,14.9-3.1,16.1-3.2
			c8.3-0.3,36.2,0,37.3,0c1.5,0.1,7-0.3,8.3-0.2c0.1-0.4,0.9-0.7,1.1-2.3c-0.7,0.1-6.9-0.2-9.2-0.2c-1.7,0-15.5-0.4-15.7-0.4
			c-7.5,0.1-17,0.4-17.4,0.6c-0.1-0.2-2.8-0.4-4.1-1.3c-3.3-2.2-0.8-5.4,2-7.1c5-2.9,43.1-1.6,46.4-1.5c1.1,0,11.7,0.1,14.4,1.1
			c-0.1,0,6.1,3.3,8.9,5.4c3,2.2,4.4,5.7,8,8.2c1.8,1.3,10.6,7.3,13.6,5.8c0.2-0.1,0.4-2.1-3.9-3.2c-1.8-0.9-7.4-4.3-8.7-5.4
			c0.1,0-6.8-7.4-9.6-9.7c0.1,0-6.5-4.5-9.4-4.7c-0.5,0.1-21-0.1-26.6-1.3c-0.3-0.1-9.5-8.2,0-10.8c3.6-0.6,19.6-0.6,22.9,0.2
			c2.8-0.2,8,6.6,11.1,6.7c0,0,15.3-0.4,17.5-7.5c1.1-3.4,17.1,0.2,22.2,2.4c2.8,1,5.4,2.7,7.7,4.5c1.1,0.8,4.6,3.4,5.6,3.9
			c2.6,1.5,6.6,3.5,10,3.5c1.1,0,12.9-0.6,15.4-0.4c0.9-0.4,2.8-1.3,1.7-2.4c-0.7-0.7-3.7,0-4.4-0.2c-0.2,0-16.4,2.3-23.7-4.9
			c-0.1-0.1-8.4-6-15.1-8.3c-1.6-0.5-15.8-3.3-19.9-1.9c-2.4,5.9-6.8,7-8.1,7.5c0.1,0-7.3,1-7.7,1c-4.3-0.4-7.5-6.4-11-7.1
			c0.1,0-21.3-0.4-26.7,0.6c-3.6,1.3-4.3,5.4-4.3,5.7c-0.9,3.5,1.9,6,3.5,8.3c-2.9,0.3-3.8,0.3-6.5,0.2c0.1,0-11.8-0.3-19.4,0.5
			c-3.2,0.3-13.9,4.3-9.2,11.2c-2.1,1.1-15-0.2-16.5,7.8c0-0.1-2.3,8.3,7.2,11c0.2,0-0.2,1.8-0.3,2.2c-0.9,3.5,1.6,6.9,4.8,8.4
			c3.1,1.5,6.6,1.2,8.9,2c-7.6,11.9,20.9,12.8,24.7,13.2l59.7-0.2c5.3-1.1,34.5-2.2,39.9-8.7c-0.1,0,2-1,3.5-1.3
			c-0.1,0,5.8-1.4,6.3-1.5c3.4-0.8,7.3,0.2,10.3,0.2c0.7,0,7.7,0,10.5,0c0.1-0.6,0.2-2.3-0.2-2.6c-0.8-1.3-16.6-0.7-17.7-0.8
			c0.1,0-13,1.1-15.9,3.7c-3.5,1.1-7.8,4.3-8,3.9C633.6,361.6,622.2,364,602.2,364.9"/>
		<path class="st1" d="M567.4,366.8c0.2-0.2,0.5-0.1,0.6-0.4c0.1,0.3,0.1,0.5,0.6,0c0.1,0.3,0.1,0.5,0.6,0c0.2,0,0.1,0.2,0.2,0.4"/>
		<path class="st1" d="M399.2,288.9c2,0.3,6.6,9.3,7,11.7c0.4,2.6,0.3,7.5-1.9,10.6c-2.9,4.2-8.1,4.2-10.7,0.8
			c-1.7-2.3-1.8-5.6-1.3-7.8C392.5,303.3,397.6,290.6,399.2,288.9 M397.1,299.9c-0.1,0.2-1.3,3.2-1.9,4.3c-0.1,0.5-0.9,1.7,0,3
			c0.8,0.2,0.9,0,1.3-0.2C397.2,306.1,398.4,300.6,397.1,299.9"/>
		<path class="st1" d="M379,329.9c2.2,0.3,8.9,6.4,10,7.3c0.3,0.3,4.6,3.2,5.9,3c3.6-1.7,7.3,0.6,10.2,0.6
			c1.4-0.2,11.4-10.3,19.8-11.4c0.4,0.1,51.5-0.1,52.7,1.3c1.1,1.2,1.3,2.4,1.3,4.9c0,1.8,0.2,9.5,0,13.8c-0.2,4.1-0.3,7.2-3.2,8.2
			c-5.2,0.1-159.6,0.4-161.5-0.2c-3.6,0.4-4.3-2-4.4-5c-0.2-5.9-0.5-10.1-0.2-13.6c-0.2-3.6-0.8-7.8,3-9
			C314.8,329,378.1,329.8,379,329.9"/>
		<path class="st1" d="M398.1,254.9c-0.7,5.6-5.4,13.1-5.2,19c0.1,2.9,2.5,7.2,5.4,7.5c6.5,0.6,9.5-9.6,7.4-15.8
			c-0.9-2.7-4.5-9.4-7-11.2C398.7,254.8,398.1,254.6,398.1,254.9 M396.7,266.1c0.1,1.3,0.3,1.3,0.3,2.4c0,1.3,0.5,1.9-0.8,1.8
			c-0.5,0-0.3-0.6-0.3-1.9C395.9,267.1,396.7,265.6,396.7,266.1"/>
		<path class="st1" d="M478.6,224.6c-11.6,3.6-61.4,18.8-61.4,18.8s-1.8,1.1-2.4,2.5c-0.6,1.4-6.4,11.2-10,2.1
			c-2.2-5.5-6.5-19.2-7.7-25c-2.1-9.5,8.2-4.6,9.5-3.8c1.3,0.8,3.5,0.7,3.5,0.7s49.8-15.4,61.4-18.9
			C483,197.6,490.2,221,478.6,224.6 M402.3,226.4l57.4,0.5l18.4-5.6c0,0,5.2-0.4,1.9-11c-2.8-9-8.7-6.3-8.7-6.3L402,225.6"/>
		<path class="st1" d="M507.8,224.6c11.6,3.6,61.4,18.8,61.4,18.8s1.8,1.1,2.4,2.5c0.6,1.4,6.4,11.2,10,2.1c2.2-5.5,6.5-19.2,7.7-25
			c2-9.5-8.2-4.6-9.5-3.8c-1.3,0.8-3.5,0.7-3.5,0.7s-49.8-15.4-61.4-18.9C503.4,197.6,496.2,221,507.8,224.6 M584.1,226.4l-57.4,0.5
			l-18.4-5.6c0,0-5.2-0.4-1.8-11c2.8-9,8.7-6.3,8.7-6.3l69.1,21.6"/>
		<rect x="248.9" y="383.2" class="st0" width="502.2" height="233.6"/>
		<rect x="248.9" y="383.2" class="st2" width="502.2" height="233.6"/>
	</g>
</g>
<g id="UN_Number">
</g>
</svg>
