<?xml version="1.0" encoding="utf-8"?>
<!-- Generator: Adobe Illustrator 22.1.0, SVG Export Plug-In . SVG Version: 6.00 Build 0)  -->
<svg version="1.1" id="Placard" xmlns="http://www.w3.org/2000/svg" xmlns:xlink="http://www.w3.org/1999/xlink" x="0px" y="0px"
	 viewBox="0 0 1000 1000" style="enable-background:new 0 0 1000 1000;" xml:space="preserve">
<style type="text/css">
	.st0{fill:#FFFFFF;}
	.st1{fill:none;stroke:#000000;stroke-width:3;}
</style>
<path class="st0" d="M50.9,500c0.9,0.9,447.6,447.6,448.5,448.5c0.9-0.9,447.6-447.6,448.5-448.5C947,499.1,500.2,52.4,499.4,51.5
	C498.5,52.4,51.7,499.1,50.9,500"/>
<g>
	<path d="M499.4,54.9L944.5,500L499.4,945.1L54.2,500L499.4,54.9 M499.4,50.6L50,500l449.4,449.4l448.5-448.5l0.9-0.9L499.4,50.6
		L499.4,50.6z"/>
</g>
<path d="M499.4,92.4L91.8,500l402.3,402.3l5.2,5.2l402.3-402.3l5.2-5.2L499.4,92.4z M102.3,500l397.1-397.1L896.5,500L499.4,897.1
	L102.3,500z"/>
<polygon points="119.1,431.5 119.1,500 51.2,500 "/>
<polygon points="188,362 188,500 257.3,500 257.3,292.7 "/>
<polygon points="326.5,224.2 326.5,500 395.6,500 395.6,155 "/>
<polygon points="499.3,51.6 533.8,86.1 533.8,500 464.8,500 464.8,85.9 "/>
<polygon points="671.8,224.2 671.8,500 602.6,500 602.6,155 "/>
<polygon points="809.4,362 809.4,500 740.1,500 740.1,292.7 "/>
<polygon points="879.4,431.5 879.4,500 947.4,500 "/>
<rect x="249.2" y="383.6" class="st0" width="500.4" height="232.7"/>
<rect x="249.2" y="383.6" class="st1" width="500.4" height="232.7"/>
<g>
	<path d="M491.4,810.1c0,7.4,2.4,11.8,9,11.8c10.6,0,12.2-10.6,12.2-25v-4.7h-0.3c-3.3,5-9.9,8.3-18.5,8.3
		c-17.5,0-24.1-13.1-24.1-30.7c0-22.5,9.9-35.2,31.9-35.2c27.5,0,31,22,31,46c0,28-0.6,54.4-33.1,54.4c-14.2,0-27.1-6-27.4-24.9
		H491.4z M500.7,785.7c7.9,0,11-5.3,11-18.6c-0.1-11.3-1.7-19.5-11-19.5c-9.7,0-10.8,8.3-10.8,19.5
		C489.8,780.4,492.9,785.7,500.7,785.7z"/>
</g>
<rect x="468.8" y="843.8" transform="matrix(1 -3.770532e-03 3.770532e-03 1 -3.1936 1.8942)" width="64" height="8.2"/>
</svg>
