<?xml version="1.0" encoding="utf-8"?>
<!-- Generator: Adobe Illustrator 22.1.0, SVG Export Plug-In . SVG Version: 6.00 Build 0)  -->
<svg version="1.1" id="Layer_1" xmlns="http://www.w3.org/2000/svg" xmlns:xlink="http://www.w3.org/1999/xlink" x="0px" y="0px"
	 viewBox="0 0 639 202.3" style="enable-background:new 0 0 639 202.3;" xml:space="preserve">
<style type="text/css">
	.st0{fill:#007DC3;}
	.st1{fill:#FFFFFF;}
	.st2{fill:#E31837;}
	.st3{fill:#008066;}
	.st4{fill:#231F20;}
	.st5{fill:none;stroke:#231F20;stroke-width:1.2373;}
</style>
<g>
	
		<rect x="249.3" y="31.1" transform="matrix(0.7071 -0.7071 0.7071 0.7071 21.7492 256.075)" class="st0" width="141.4" height="141.4"/>
	<path class="st1" d="M320,11.1l-90.7,90.7l89.5,89.5l1.2,1.2l89.5-89.5l1.2-1.2L320,11.1z M231.6,101.8L320,13.4l88.4,88.4
		L320,190.2L231.6,101.8z"/>
	<path class="st1" d="M317.3,67.9c-6-1.1-10.9-5-12.9-10.5c-1-2.6-0.6-5.5-1.9-8c-0.4-0.7-1.1-1.3-1.5-2.1c2.4-0.2,3.1,2.5,5,3.4
		c0.4,0.2,0.8-0.2,0.9-0.7c0.1-1-0.3-1.9,0-2.9c0.3-1.4,1-2.5,0.6-4c-0.3-1.4-1.4-2.4-1.5-3.8c0-0.2,0.4-0.1,0.5-0.1
		c2.3,1,3.3,3.4,5,5.1c0.2,0.2,0.4-0.1,0.5-0.3c1.3-3.2,1.3-6.5,0.9-10c-0.1-0.5-0.2-1.1-0.6-1.3c-2.5-1.4-2.8-4.3-2.4-4.1
		c0.6,0.3,0.9,1,1.4,1.5c1.1,0.9,2.3,1.3,3.4,1.9c1.6,0.9,1.6,3.1,3.2,3.7c0.4,0.1,0.8-0.3,0.9-0.9c0.5-3.2-1.5-5.5-2.5-8.3
		c-0.5-1.5-0.4-3,0-4.5c0.4-1.6,1-4.3,2.9-4.1c0.1,0,0.3,0.6,0.1,1c-0.6,1.4-0.3,3,0.3,4.2c1.8,3.6,4.5,6.7,4.7,10.9
		c0.1,2.6-1.4,4.7-1.3,7.2c0,0.7,0.9,1.1,1.6,0.6c1.4-1.1,1.9-2.7,2.3-4.4c0.5-1.9-1-3.6-0.6-5.4c2.5,0,3.6,2.8,3.9,5
		c0.5,3.3-0.7,6.2-1.9,9.1c-0.3,0.8-0.9,2.1,0.2,2.3c1.4,0.3,2.2-1,3-2c1.8-2.1,2.2-4.8,3.4-7.2c3.3,4,0.4,9.2-2.2,13
		c-0.4,0.5-0.8,1.3-0.6,2c0.2,0.7,1,0.8,1.6,0.4c2.2-1.6,3.3-4.1,4.2-6.7c0-0.1,0.3-0.1,0.3,0.1c0.5,3.7-0.4,7.2-2,10.4
		c-2.4,4.9-6.7,9.2-12.4,9.6c0-0.2,0-0.4,0-0.4c1.4-0.9,2.2-2.2,3-3.5c1.3-2.1,1.9-4.3,2.3-6.8c0.2-0.9-0.2-2.7-1.3-2.1
		c-1.5,0.8-2.2,2.5-3.8,3.2c0.6-1.3,2.4-3.5,1-4.2c-0.8-0.4-1.5,1.2-2.7,1.3c0.4-2.6,2.3-5.1,1.1-7.8c-0.9-1.9-1.7-4.1-3.6-4.7
		c-1.1-0.3-1.4,1.8-1.1,2.9c0.4,1.2,1.3,2.2,1.5,3.4c0.2,1.1,0.5,3.7-0.6,3.3c-1.6-0.6-1.9-2.8-1.9-4.6c0-0.2-0.3-0.7-0.7-0.5
		c-0.6,0.3-1,0.9-1.2,1.6c-0.7,3.2,0.4,6.1,1,9.1c-2.1-1.5-1.9-4.6-2.8-6.9c-0.3-0.7-0.6-1.4-1.4-1.4c-0.4,0-0.8,0.3-0.9,0.7
		c-0.4,1.6,0.9,3.4,0,4.7c-0.3,0.5-1.4-0.3-2.2-0.3c-0.8,0-1.5,0.8-1.2,1.6c0.7,1.6,2.6,2.2,3.6,3.6c0.4,0.5,0.8,1,1.1,1.5
		c0.6,1.2,0.9,2.4,1.5,3.6c0.7,1.2,2.1,1.8,2.7,3.1C317.5,67.9,317.4,68,317.3,67.9 M320.9,41.2c1.2-0.1,1.6-1.5,1.7-2.7
		c0.3-1.8,0-3.9-1.3-5.1c-0.2-0.2-0.5,0.2-0.5,0.3c-0.6,2.1-1.5,4.1-1.3,6.2C319.6,40.5,320.3,41.3,320.9,41.2 M335.6,69.7h-31.7
		v2.2h31.7V69.7z"/>
	<g>
		<path class="st1" d="M321.1,173.8h-9.5v-4.2l9.7-13h4.1V170h3v3.7h-3v5.2h-4.3L321.1,173.8L321.1,173.8z M321.1,162.3L321.1,162.3
			l-5.9,7.8h5.9V162.3z"/>
	</g>
	<rect x="264.3" y="75.9" class="st1" width="111.4" height="51.8"/>
</g>
<g>
	
		<rect x="139.3" y="31.1" transform="matrix(0.7071 -0.7071 0.7071 0.7071 -10.4678 178.2964)" class="st2" width="141.4" height="141.4"/>
	<path class="st1" d="M210,11.1l-90.7,90.7l89.5,89.5l1.2,1.2l89.5-89.5l1.2-1.2L210,11.1z M121.6,101.8L210,13.4l88.4,88.4
		L210,190.2L121.6,101.8z"/>
	<path class="st1" d="M207.3,67.9c-6-1.1-10.9-5-12.9-10.5c-1-2.6-0.6-5.5-1.9-8c-0.4-0.8-1.1-1.3-1.5-2.1c2.4-0.2,3.1,2.5,5,3.4
		c0.4,0.2,0.9-0.2,0.9-0.7c0.1-1-0.3-1.9,0-2.9c0.3-1.4,1-2.5,0.6-4c-0.3-1.4-1.4-2.4-1.5-3.8c0-0.2,0.4-0.1,0.5-0.1
		c2.3,1,3.3,3.4,5,5.1c0.2,0.2,0.5-0.2,0.5-0.3c1.3-3.2,1.3-6.5,0.9-10c-0.1-0.5-0.2-1.1-0.6-1.3c-2.5-1.4-2.8-4.3-2.4-4.1
		c0.6,0.3,0.9,1,1.4,1.5c1,0.9,2.3,1.3,3.4,1.9c1.6,0.9,1.6,3.1,3.2,3.7c0.4,0.1,0.8-0.3,0.9-0.9c0.5-3.2-1.5-5.5-2.5-8.3
		c-0.5-1.5-0.4-3,0-4.5c0.4-1.6,1-4.3,2.9-4.1c0.1,0,0.2,0.6,0.1,1c-0.6,1.4-0.3,3,0.3,4.2c1.8,3.6,4.5,6.7,4.7,10.9
		c0.1,2.6-1.4,4.7-1.3,7.2c0,0.7,1,1.1,1.6,0.6c1.4-1.1,1.9-2.7,2.3-4.4c0.5-1.9-1-3.6-0.6-5.4c2.5,0,3.6,2.8,3.9,5
		c0.5,3.3-0.7,6.2-1.9,9.1c-0.3,0.8-0.9,2.1,0.2,2.3c1.4,0.3,2.2-1,3-2c1.8-2.1,2.2-4.8,3.4-7.2c3.3,4,0.4,9.2-2.2,13
		c-0.4,0.5-0.8,1.3-0.6,2s1,0.8,1.6,0.4c2.2-1.6,3.3-4.1,4.2-6.7c0-0.1,0.3-0.1,0.3,0.1c0.5,3.7-0.4,7.2-2,10.4
		c-2.4,4.9-6.7,9.2-12.4,9.6c0-0.2,0-0.4,0-0.4c1.4-0.9,2.2-2.2,3-3.5c1.3-2.1,1.9-4.3,2.3-6.8c0.2-0.9-0.2-2.7-1.3-2.1
		c-1.5,0.8-2.2,2.5-3.8,3.2c0.6-1.3,2.4-3.5,1-4.2c-0.8-0.4-1.5,1.2-2.7,1.4c0.4-2.6,2.3-5.1,1.1-7.8c-0.9-1.9-1.7-4.1-3.6-4.7
		c-1.1-0.3-1.4,1.8-1.1,2.9c0.4,1.2,1.3,2.2,1.5,3.4c0.2,1.1,0.5,3.7-0.6,3.3c-1.6-0.6-1.9-2.8-1.9-4.6c0-0.2-0.3-0.7-0.7-0.6
		c-0.6,0.3-1,0.9-1.2,1.6c-0.7,3.2,0.4,6.1,1,9c-2.1-1.5-1.9-4.6-2.8-6.9c-0.3-0.7-0.6-1.4-1.4-1.4c-0.4,0-0.8,0.3-0.9,0.7
		c-0.4,1.6,0.9,3.4,0,4.7c-0.3,0.5-1.4-0.3-2.2-0.3s-1.5,0.8-1.2,1.6c0.7,1.6,2.6,2.2,3.6,3.6c0.4,0.5,0.8,1,1.1,1.6
		c0.6,1.2,0.9,2.4,1.5,3.6c0.7,1.2,2.1,1.8,2.7,3.1C207.5,67.9,207.4,68,207.3,67.9 M210.9,41.3c1.2-0.2,1.6-1.5,1.7-2.7
		c0.3-1.8,0-3.9-1.3-5.1c-0.2-0.2-0.5,0.2-0.5,0.3c-0.6,2.1-1.5,4.1-1.3,6.3C209.6,40.6,210.3,41.3,210.9,41.3 M225.6,69.7h-31.7
		v2.2h31.7V69.7z"/>
	<g>
		<path class="st1" d="M208.4,165.7c2,0.2,4.8-0.2,4.8-2.8c0-1.9-1.5-3-3.2-3c-2.3,0-3.5,1.7-3.5,4h-4.3c0.2-4.6,3.1-7.7,7.7-7.7
			c3.6,0,7.5,2.2,7.5,6.2c0,2.1-1.1,4-3.1,4.6v0.1c2.5,0.5,4,2.6,4,5.1c0,4.7-3.9,7.4-8.3,7.4c-5,0-8.4-3-8.3-8.2h4.3
			c0.1,2.4,1.3,4.4,3.9,4.4c2,0,3.6-1.4,3.6-3.5c0-3.4-3-3.3-5.2-3.3v-3.3H208.4z"/>
	</g>
	<rect x="154.3" y="75.9" class="st1" width="111.4" height="51.8"/>
</g>
<g>
	<polygon class="st3" points="100.3,201.8 0.2,101.8 100.3,1.8 200.2,101.8 	"/>
	<path class="st1" d="M100.3,11.1L9.6,101.8l89.5,89.5l1.2,1.2l89.5-89.5l1.2-1.2L100.3,11.1z M11.9,101.8l88.4-88.4l88.4,88.4
		l-88.4,88.4L11.9,101.8z"/>
	<path class="st1" d="M130.9,47.8c0.3,1-0.5,1.7-0.9,2c-0.2,0.1-0.4,0.2-0.4,0.2l-5.8,1.5c0,0-0.7,0.2-0.9,0.5
		c-2,2.5-5.1,3.5-5.1,3.5S73.5,67.7,72.3,67.7s-1.6-0.9-1.6-0.9l-1.4-5.3c0,0-0.2-1,0.9-1.6s45.3-12.1,45.3-12.1s3.2-0.7,6.2,0.5
		c0.4,0.2,1.1,0,1.1,0l5.8-1.6c0,0,0.2,0,0.4,0C129.6,46.5,130.6,46.7,130.9,47.8L130.9,47.8z"/>
	<g>
		<path class="st1" d="M92.5,165.2c-0.2-5.1,2.8-9,8.1-9c4.1,0,7.7,2.6,7.7,7c0,3.4-1.8,5.2-4,6.8s-4.8,2.8-6.5,5.1h10.6v3.9H92
			c0-5.2,3.2-7.4,7.1-10c2-1.3,4.7-2.7,4.7-5.5c0-2.1-1.4-3.5-3.4-3.5c-2.7,0-3.5,2.8-3.5,5.1L92.5,165.2L92.5,165.2z"/>
	</g>
	<rect x="44.6" y="75.9" class="st1" width="111.4" height="51.8"/>
</g>
<g>
	
		<rect x="356.4" y="31.2" transform="matrix(0.7071 -0.7071 0.7071 0.7071 53.0411 331.6777)" class="st1" width="141.1" height="141.2"/>
	<polygon class="st2" points="342.4,86.6 342.4,117.1 326.9,101.8 	"/>
	<polygon class="st2" points="357.6,71.3 373.1,55.9 373.1,147.8 357.6,132.4 	"/>
	<polygon class="st2" points="388.4,40.4 403.8,25.1 403.8,178.6 388.4,163.2 	"/>
	<polygon class="st2" points="419.2,9.7 427,2.1 434.6,9.8 434.6,193.9 426.9,201.6 419.2,193.8 	"/>
	<polygon class="st2" points="465.1,40.4 449.8,25.1 449.8,178.6 465.1,163.2 	"/>
	<polygon class="st2" points="495.8,71.3 480.3,55.9 480.3,147.8 495.8,132.4 	"/>
	<polygon class="st2" points="511.5,86.6 511.5,117.1 526.9,101.8 	"/>
	<g>
		<path d="M426.9,2.8l99,99l-99,99l-99-99L426.9,2.8 M426.9,1.8l-100,100l100,100l99.8-99.8l0.2-0.2L426.9,1.8L426.9,1.8z"/>
	</g>
	<path d="M423.3,89.6c-8.4-1.6-15.2-7-18-14.7c-1.4-3.7-0.9-7.7-2.7-11.3c-0.5-1-1.6-1.8-2.1-2.9c3.4-0.2,4.3,3.5,7,4.8
		c0.6,0.3,1.2-0.3,1.3-1c0.2-1.4-0.4-2.6,0-4.1c0.5-1.9,1.3-3.5,0.9-5.6c-0.4-2-2-3.3-2.1-5.3c0-0.3,0.5-0.2,0.7-0.1
		c3.3,1.4,4.6,4.8,7,7.2c0.3,0.3,0.6-0.2,0.7-0.5c1.8-4.5,1.9-9.1,1.2-14c-0.1-0.7-0.3-1.5-0.9-1.8c-3.5-1.9-3.9-6.1-3.3-5.8
		c0.9,0.5,1.2,1.4,2,2.1c1.5,1.3,3.2,1.8,4.8,2.6c2.2,1.2,2.2,4.3,4.5,5.2c0.5,0.2,1.1-0.5,1.2-1.2c0.7-4.5-2.2-7.7-3.4-11.7
		c-0.7-2.1-0.5-4.3,0.1-6.4c0.6-2.3,1.3-6,4.1-5.8c0.1,0,0.4,0.9,0.1,1.3c-0.9,2-0.5,4.1,0.4,5.9c2.5,5,6.3,9.4,6.5,15.3
		c0.2,3.6-2,6.7-1.8,10.1c0.1,1,1.3,1.5,2.3,0.8c2-1.5,2.6-3.8,3.2-6.2c0.6-2.7-1.4-5-0.8-7.6c3.5,0.1,5,3.9,5.5,6.9
		c0.7,4.6-0.9,8.6-2.7,12.7c-0.5,1.1-1.3,2.9,0.3,3.2c2,0.4,3-1.4,4.1-2.7c2.5-2.9,3.1-6.8,4.8-10.1c4.6,5.6,0.6,12.9-3.1,18.2
		c-0.5,0.8-1.2,1.8-0.9,2.7c0.3,1,1.4,1.2,2.2,0.6c3.1-2.3,4.6-5.8,5.9-9.4c0-0.1,0.4-0.1,0.4,0.2c0.7,5.2-0.6,10-2.7,14.5
		c-3.3,6.8-9.4,12.9-17.3,13.4c0-0.2-0.1-0.6,0-0.6c1.9-1.2,3.1-3,4.2-4.9c1.9-2.9,2.6-6.1,3.3-9.6c0.2-1.2-0.2-3.7-1.9-2.9
		c-2,1.1-3.1,3.5-5.3,4.4c0.8-1.9,3.4-4.9,1.4-6c-1.1-0.5-2.1,1.7-3.7,1.9c0.6-3.7,3.3-7.1,1.5-11c-1.2-2.7-2.4-5.8-5-6.6
		c-1.5-0.5-2,2.5-1.5,4c0.6,1.7,1.8,3,2.1,4.8c0.2,1.5,0.7,5.2-0.9,4.6c-2.2-0.9-2.7-3.9-2.6-6.5c0-0.3-0.5-1-1-0.8
		c-0.9,0.4-1.4,1.3-1.7,2.3c-0.9,4.5,0.6,8.5,1.4,12.7c-2.9-2.2-2.7-6.4-3.9-9.6c-0.4-1-0.8-2-2-2c-0.6,0-1.2,0.4-1.3,1
		c-0.6,2.3,1.3,4.7,0,6.6c-0.5,0.7-2-0.5-3.1-0.4c-1.2,0-2.1,1.1-1.6,2.3c1,2.3,3.6,3,5.1,5c0.5,0.7,1.1,1.4,1.5,2.2
		c0.8,1.6,1.2,3.4,2.2,5c1,1.7,2.9,2.5,3.8,4.3C423.5,89.6,423.4,89.6,423.3,89.6 M428.3,52.2c1.7-0.2,2.2-2.2,2.4-3.7
		c0.4-2.5,0-5.5-1.8-7.2c-0.3-0.3-0.6,0.2-0.7,0.5c-0.8,2.9-2.2,5.7-1.9,8.8C426.4,51.2,427.4,52.3,428.3,52.2 M448.8,92h-44.4v3.1
		h44.4V92z"/>
	<path d="M426.9,11.1l-90.7,90.7l89.5,89.5l1.2,1.2l89.5-89.5l1.2-1.2L426.9,11.1z M338.6,101.8l88.4-88.4l88.4,88.4l-88.4,88.4
		L338.6,101.8z"/>
	<g>
		<path d="M428,173.8h-9.5v-4.1l9.7-13h4.1v13.5h3v3.7h-3v5.2H428L428,173.8L428,173.8z M428,162.3L428,162.3l-5.9,7.8h5.9V162.3z"
			/>
	</g>
</g>
<g>
	<path class="st1" d="M439.1,101.8c0.2,0.2,99.6,99.6,99.8,99.8c0.2-0.2,99.6-99.6,99.8-99.8c-0.2-0.2-99.6-99.6-99.8-99.8
		C538.8,2.2,439.3,101.6,439.1,101.8"/>
	<path class="st4" d="M538.9,1.8l-100,100l100,100l99.8-99.8l0.2-0.2L538.9,1.8z M439.3,101.8l99.6-99.6l99.6,99.6l-99.6,99.6
		L439.3,101.8z"/>
	<path class="st4" d="M449.4,101.8c1.1,1.1,88.4,88.4,89.5,89.5c1.1-1.1,88.4-88.4,89.5-89.5c-1.1-1.1-88.4-88.4-89.5-89.5
		C537.8,13.4,450.6,100.7,449.4,101.8"/>
	<path class="st4" d="M538.9,11.1l-90.7,90.7l89.5,89.5l1.2,1.2l89.5-89.5l1.2-1.2L538.9,11.1z M450.6,101.8L539,13.4l88.4,88.4
		L539,190.2L450.6,101.8z"/>
	<polyline class="st1" points="451.4,101.8 626.5,101.8 538.9,14.2 	"/>
	<g>
		<path class="st1" d="M539,156.2c5.6,0,7.5,3.8,7.5,6s-1.1,4-3.3,4.8v-0.1l0,0l0,0c2.7,0.6,4.2,2.7,4.2,5.5c0,4.7-4.2,7-8.4,7
			c-4.3,0-8.5-2.2-8.5-7c0-2.8,1.6-4.9,4.2-5.5v-0.1c-2.2-0.6-3.3-2.4-3.3-4.6C531.4,158.3,535.3,156.2,539,156.2z M539,176.1
			c2.2,0,3.8-1.5,3.8-3.8c0-2.1-1.7-3.6-3.8-3.6c-2.2,0-4,1.2-4,3.5C535,174.6,536.8,176.1,539,176.1z M539,165.7
			c1.9,0,3.4-1,3.4-2.9c0-1.2-0.5-3.1-3.4-3.1c-1.8,0-3.4,1.1-3.4,3.1C535.6,164.7,537.2,165.7,539,165.7z"/>
	</g>
	<path class="st4" d="M565.2,51.4c-0.6,0.3-1,0.9-1.1,1.6c-0.1,0.3-0.1,0.7-0.2,1.1c-0.3,0.5-1.4,1.3-1.6,1.4
		c-0.3-0.1-0.5-0.9,0.1-1.4c0.7-0.4,0.2-1.2,0.3-1.8c0-0.2,1.3-1.5,1.3-1.5s0.2-1.8,1.8-3.1c0.2-0.3-0.2-1.4,0.1-1.9
		c0.2-0.4,0.7-0.7,1.1-0.3c0.2,0.2,0.2,0.9,0.2,1.3c0.1,0.6,0.1,1.5-0.3,2.2c-0.3,0.4-0.6,0.5-0.9,0.9c-0.3,0.4-0.2,1.1-0.4,1.4
		C565.3,51.3,565.1,51.4,565.2,51.4"/>
	<path class="st4" d="M559,51.7c-0.6,0.1-1.4-0.1-1.6-0.9c-0.5-1.5,1-5,1.1-5c0.6,0.3,1.3,1.6,1.6,2.5c0.4,1.2,0.1,2.3-0.6,3.1
		c0.2,0.4,0.7,1.1,0.7,1.1c0.3,0.5,0.7,1.2,0.7,1.9c0,1.1-0.4,2.7-1.9,2.6c-0.5,0-0.9-0.5-1.2-1.1C557.3,54.8,558.9,52,559,51.7
		 M558.2,49.8c-0.1-0.4,0.2-1.1,0-1.6C557.7,48.7,557.4,49.9,558.2,49.8 M558.7,54.4c0.1,0.1,0.2,0.2,0.4,0.2
		c0.1-0.3,0.2-0.5,0.2-0.8C558.9,53.5,558.8,54,558.7,54.4"/>
	<path class="st4" d="M548,47.7c0.3,0.5,0.3,1.5,0.8,1.7c0.1,0.1,0.3,0.1,0.5,0.1c0,0,0.8,0.4,0.9,0.5c0.6,0.6,0.9,2.6,0.9,2.7
		c0.3,0.7,2,1.3,2.1,1.3c0.8,0.3,0.6,2-0.6,1.2c-0.2-0.1-0.8-0.9-0.9-0.9c-0.5-0.4-1.4-0.2-1.7-0.7c-0.3-0.6-0.4-2.1-0.5-2.2
		c-0.3-0.3-0.8-0.1-1.2-0.4c-0.4-0.2-0.7-0.8-0.9-1.2s-0.3-0.6-0.3-1c0-0.2-0.2-0.5-0.3-0.6c-0.1-0.3-0.6-0.4-0.7-0.7
		C546.3,46.5,547.8,47.4,548,47.7"/>
	<path class="st4" d="M569.8,47.9c0.7,0.5,0.6,1.7,0.8,2.3c0,0.8-0.9,1.1-1.3,1.6c-0.4,0.5-0.3,1.3-0.7,1.9
		c-0.3,1.4-1.5,1.2-2.7,1.9c0,0-1,0.9-1.5,0.6l0,0l0.5-0.5c0.4-0.2,0.6-0.5,0.8-0.8c0.1-0.2,0.2-0.6,0.4-0.7l1.1-0.9
		c0.2-0.4,0.7-1.2,0.8-2.1c0-0.6,0.9-1.3,1-1.6c0.1-0.5-0.2-1.5,0.2-1.7C569.3,47.9,569.6,47.9,569.8,47.9"/>
	<path class="st4" d="M551.9,48.4c0.2,0.5,1.2,1.1,1.2,1.1c0.8,0.6,0.6,1.7,1.1,2.3c0.1,0.2,0.5,0.7,0.5,0.7
		c0.4,0.4,0.8,0.9,0.9,1.6c0,0.4-0.4,0.8-0.9,0.5c-0.6-0.4-0.7-1.3-1.3-1.8c-0.2-0.2-0.6-0.1-1.8-2.6c-0.1-0.3-0.5-0.6-0.5-0.5
		c-1-1.2,0.3-1.9,0.6-1.8C551.8,48,551.9,48.4,551.9,48.4"/>
	<path class="st4" d="M525.2,53.6c0,0,0.1-1.7,0.5-2.1c0.3-0.3,0.9-0.5,0.9-0.5c0.9,0.1,0.2,1.6,0.2,1.6c-0.2,0.4,0.2,1.6-0.3,1.9
		c-0.5,0.3-1.4,1.2-1.4,1.2c-0.6,0.8,0.4,1.7-0.3,3c-0.7,0.5-1.1,0.9-1.4,1.5c-0.2,0.4-0.4,1-0.8,1.5c-0.6,0-0.6-1.2-0.3-1.9
		c0.1-0.1,2-1.9,1.3-2.7c-0.2-0.5,0.2-1.9,0.3-1.9C524,54.8,524.8,53.8,525.2,53.6"/>
	<path class="st4" d="M511.9,53.4c-0.1,0.8-0.5,1.4-0.3,2c0.1,0.2,0.6,0.8,0.6,0.9c0.2,0.5,0.1,1.9,0.8,2.4c0.1,0.1,0.5,0.2,0.9,0.6
		c0.2,0.6-0.5,1.1-0.2,2.1c0.2,0.5,0.7,0.7,0.8,1.2c0.1,0.4-0.1,1.4-0.8,1c-0.2-0.3-0.1-0.5-0.3-0.8c-0.3-0.4-0.6-0.5-0.8-0.7
		c-0.1-0.2-0.2-0.6-0.2-0.8c0-0.5,0.4-1.2-0.1-1.7c-0.1-0.1-0.4-0.1-0.5-0.2c-0.5-0.3-0.4-0.6-0.7-1.1c0-0.4,0.3-0.6,0.3-1.1
		c0-0.6-0.8-0.8-1.1-1.2c-0.4-0.6-0.1-1.4,0-1.9s0-1,0.2-1.4C511.5,50.8,511.9,53.1,511.9,53.4"/>
	<path class="st4" d="M519.9,61.9c0-0.2-0.1-0.5,0-0.8c0.1-1,0-2.3,0.7-3c0,0,0.2-0.3,0.2-0.9c0.1-0.6,0.1-1.5,0.3-1.9
		c0-0.1,0.7-1.7,1.3-1.2c0.1,0.3,0.2,0.7,0.2,0.9c-0.1,0.5-0.5,0.9-0.7,1.4c-0.1,0.6,0,1.3-0.1,1.8c0,0.1-0.3,0.5-0.3,0.6
		c-0.6,0.7-0.1,2.3-0.9,3C520.4,62,520.1,61.9,519.9,61.9"/>
	<path class="st4" d="M507.8,54.5c0.1,0,0.1,0,0.2,0c0.2,0.5,0.1,1,0,1.4c0,0.2-0.1,0.6,0,0.9c0.1,0.6,0.7,1,0.9,1.6
		c0.2,0.5,0.1,1.2,0.3,1.6c0.3,0.6,1,1,1.2,1.5c0.2,0.2,0.4,0.5,0.6,0.7c0.1,0,1.5,0.9,1,1.7c-0.6,0.2-1.9-0.6-1.9-0.6
		c-0.4-0.5-0.4-1.6-1.1-1.5c-0.4-0.1-1-0.3-1.1-0.9c-0.1-0.7,0.3-1.7-0.2-2.2c-0.3-0.3-1.4-0.7-1.3-1.5c0-0.3,0.2-0.4,0.4-0.7
		C507.4,55.6,507.5,55.4,507.8,54.5"/>
	<path class="st4" d="M561.6,71.9C558,72,552.9,72,549.5,72c-2.9-0.1-6-0.3-5.2-2.1c0,0,0.6-0.2,0.7-0.2c0.7-0.1,7.3,0.1,9.2-0.1
		c0-0.1,0-0.4-0.1-0.4c-0.1-0.1-0.3-0.2-0.5-0.2c0,0-11.3,0.1-11.9-0.2c-0.7-0.3-0.8-1.3-0.2-1.6c0,0,11.1,0.2,11-0.2
		c0-0.1,0.1-0.2,0-0.4c-0.3-0.1-10.9-0.1-10.9-0.1c-1.3,0-2.9-0.8-1.9-2.2c0.6-0.8,3.3-0.7,3.6-0.7c1.9-0.1,8,0,8.3,0s1.6-0.1,1.8,0
		c0-0.1,0.2-0.2,0.2-0.5c-0.1,0-1.5,0-2,0c-0.4,0-3.4-0.1-3.5-0.1c-1.7,0-3.8,0.1-3.9,0.1c0,0-0.6-0.1-0.9-0.3
		c-0.7-0.5-0.2-1.2,0.4-1.6c1.1-0.7,9.6-0.4,10.3-0.3c0.2,0,2.6,0,3.2,0.3c0,0,1.3,0.7,2,1.2s1,1.3,1.8,1.8c0.4,0.3,2.4,1.6,3,1.3
		c0,0,0.1-0.5-0.9-0.7c-0.4-0.2-1.6-0.9-1.9-1.2c0,0-1.5-1.6-2.1-2.1c0,0-1.4-1-2.1-1c-0.1,0-4.7,0-5.9-0.3c-0.1,0-2.1-1.8,0-2.4
		c0.8-0.1,4.3-0.1,5.1,0c0.6,0,1.8,1.5,2.5,1.5c0,0,3.4-0.1,3.9-1.7c0.2-0.8,3.8,0,4.9,0.5c0.6,0.2,1.2,0.6,1.7,1
		c0.2,0.2,1,0.7,1.2,0.9c0.6,0.3,1.5,0.8,2.2,0.8c0.2,0,2.9-0.1,3.4-0.1c0.2-0.1,0.6-0.3,0.4-0.5c-0.2-0.2-0.8,0-1,0
		c0,0-3.6,0.5-5.3-1.1c0,0-1.9-1.3-3.4-1.8c-0.4-0.1-3.5-0.7-4.4-0.4c-0.5,1.3-1.5,1.5-1.8,1.7c0,0-1.6,0.2-1.7,0.2
		c-1-0.1-1.7-1.4-2.4-1.6c0,0-4.7-0.1-5.9,0.1c-0.8,0.3-1,1.2-1,1.3c-0.2,0.8,0.4,1.3,0.8,1.8c-0.6,0.1-0.8,0.1-1.4,0
		c0,0-2.6-0.1-4.3,0.1c-0.7,0.1-3.1,1-2,2.5c-0.5,0.2-3.3-0.1-3.6,1.7c0,0-0.5,1.8,1.6,2.4c0,0-0.1,0.4-0.1,0.5
		c-0.2,0.8,0.4,1.5,1.1,1.9c0.7,0.3,1.5,0.3,2,0.5c-1.7,2.6,4.6,2.8,5.5,2.9h13.2c1.2-0.2,7.6-0.5,8.9-1.9c0,0,0.5-0.2,0.8-0.3
		c0,0,1.3-0.3,1.4-0.3c0.8-0.2,1.6,0,2.3,0c0.1,0,1.7,0,2.3,0c0-0.1,0-0.5,0-0.6c-0.2-0.3-3.7-0.2-3.9-0.2c0,0-2.9,0.2-3.5,0.8
		c-0.8,0.2-1.7,1-1.8,0.9C568.6,71.1,566,71.7,561.6,71.9"/>
	<path class="st4" d="M553.9,72.3C553.9,72.3,554,72.3,553.9,72.3c0.1,0,0.1,0,0.2-0.1c0,0.1,0,0.1,0.1,0v0.1"/>
	<path class="st4" d="M516.6,55c0.4,0.1,1.5,2.1,1.6,2.6c0.1,0.6,0.1,1.7-0.4,2.4c-0.6,0.9-1.8,0.9-2.4,0.2
		c-0.4-0.5-0.4-1.2-0.3-1.7C515.1,58.2,516.3,55.4,516.6,55 M516.1,57.4c0,0-0.3,0.7-0.4,0.9c0,0.1-0.2,0.4,0,0.7c0.2,0,0.2,0,0.3,0
		C516.2,58.8,516.4,57.6,516.1,57.4"/>
	<path class="st4" d="M512.1,64.1c0.5,0.1,2,1.4,2.2,1.6c0.1,0.1,1,0.7,1.3,0.7c0.8-0.4,1.6,0.1,2.3,0.1c0.3,0,2.5-2.3,4.4-2.5
		c0.1,0,11.4,0,11.7,0.3c0.2,0.3,0.3,0.5,0.3,1.1c0,0.4,0,2.1,0,3.1c0,0.9-0.1,1.6-0.7,1.8c-1.2,0-35.4,0.1-35.8,0
		c-0.8,0.1-1-0.4-1-1.1c-0.1-1.3-0.1-2.2,0-3c0-0.8-0.2-1.7,0.7-2C497.9,63.9,511.9,64.1,512.1,64.1"/>
	<path class="st4" d="M516.4,47.5c-0.1,1.2-1.2,2.9-1.1,4.2c0,0.7,0.5,1.6,1.2,1.7c1.4,0.1,2.1-2.1,1.6-3.5c-0.2-0.6-1-2.1-1.6-2.5
		C516.5,47.4,516.4,47.4,516.4,47.5 M516.1,50c0,0.3,0.1,0.3,0.1,0.5c0,0.3,0.1,0.4-0.2,0.4c-0.1,0-0.1-0.1-0.1-0.4
		C515.9,50.2,516,49.9,516.1,50"/>
	<path class="st4" d="M534.2,40.8c-2.6,0.8-13.6,4.2-13.6,4.2s-0.4,0.2-0.5,0.6c-0.1,0.3-1.4,2.5-2.2,0.5c-0.5-1.2-1.4-4.3-1.7-5.5
		c-0.5-2.1,1.8-1,2.1-0.8s0.8,0.2,0.8,0.2s11-3.4,13.6-4.2C535.2,34.8,536.8,40,534.2,40.8 M517.3,41.2l12.7,0.1l4.1-1.2
		c0,0,1.2-0.1,0.4-2.4c-0.6-2-1.9-1.4-1.9-1.4L517.2,41"/>
	<path class="st4" d="M540.7,40.8c2.6,0.8,13.6,4.2,13.6,4.2s0.4,0.2,0.5,0.6c0.1,0.3,1.4,2.5,2.2,0.5c0.5-1.2,1.4-4.3,1.7-5.5
		c0.5-2.1-1.8-1-2.1-0.8s-0.8,0.2-0.8,0.2s-11-3.4-13.6-4.2C539.7,34.8,538.1,40,540.7,40.8 M557.6,41.2l-12.7,0.1l-4.1-1.2
		c0,0-1.2-0.1-0.4-2.4c0.6-2,1.9-1.4,1.9-1.4l15.3,4.8"/>
	<rect x="483.3" y="75.9" class="st1" width="111.3" height="51.8"/>
	<rect x="483.3" y="75.9" class="st5" width="111.3" height="51.8"/>
</g>
</svg>
