<?xml version="1.0" encoding="utf-8"?>
<!-- Generator: Adobe Illustrator 22.1.0, SVG Export Plug-In . SVG Version: 6.00 Build 0)  -->
<svg version="1.1" id="Layer_1" xmlns="http://www.w3.org/2000/svg" xmlns:xlink="http://www.w3.org/1999/xlink" x="0px" y="0px"
	 viewBox="0 0 639 202.3" style="enable-background:new 0 0 639 202.3;" xml:space="preserve">
<style type="text/css">
	.st0{fill:#007DC3;}
	.st1{fill:#FFFFFF;}
	.st2{fill:#E31837;}
	.st3{font-family:'HelveticaNeue-Bold';}
	.st4{font-size:31.974px;}
	.st5{fill:#008066;}
	.st6{font-size:31.9745px;}
	.st7{fill:#231F20;stroke:#231F20;stroke-width:0.5;stroke-miterlimit:10;}
	.st8{fill:#FFDD00;}
	.st9{fill:none;stroke:#231F20;stroke-width:1.2344;}
	.st10{fill:#231F20;}
	.st11{fill-rule:evenodd;clip-rule:evenodd;fill:#231F20;}
	.st12{font-size:31.9734px;}
</style>
<g>
	
		<rect x="248.8" y="30.9" transform="matrix(0.7071 -0.7071 0.7071 0.7071 21.7607 255.6812)" class="st0" width="141.4" height="141.4"/>
	<path class="st1" d="M319.5,10.9l-90.7,90.7l89.5,89.5l1.2,1.2l89.5-89.5l1.2-1.2L319.5,10.9z M231.1,101.6l88.4-88.4l88.4,88.4
		l-88.4,88.4L231.1,101.6z"/>
	<path class="st1" d="M315.8,91.5c-8.4-1.6-15.2-7-18-14.7c-1.3-3.7-0.9-7.7-2.7-11.3c-0.5-1-1.6-1.8-2.1-2.9c3.4-0.2,4.3,3.5,7,4.8
		c0.6,0.3,1.2-0.3,1.3-0.9c0.2-1.4-0.4-2.6,0-4.1c0.5-1.9,1.3-3.5,0.9-5.6c-0.4-1.9-1.9-3.3-2.1-5.3c0-0.3,0.5-0.2,0.7-0.1
		c3.3,1.4,4.6,4.8,7,7.2c0.3,0.3,0.6-0.2,0.7-0.5c1.8-4.5,1.9-9.1,1.2-14c-0.1-0.7-0.3-1.5-0.9-1.8c-3.5-1.9-3.9-6.1-3.3-5.8
		c0.9,0.5,1.2,1.5,2,2.1c1.5,1.3,3.2,1.8,4.8,2.6c2.2,1.2,2.2,4.3,4.5,5.2c0.5,0.2,1.1-0.5,1.3-1.2c0.7-4.5-2.1-7.7-3.4-11.7
		c-0.7-2.1-0.5-4.3,0.1-6.4c0.6-2.3,1.3-6,4.1-5.8c0.1,0,0.3,0.9,0.1,1.3c-0.9,2-0.5,4.1,0.4,5.8c2.5,5,6.3,9.4,6.5,15.3
		c0.2,3.6-2,6.6-1.8,10.1c0.1,1,1.3,1.5,2.3,0.8c2-1.5,2.6-3.8,3.2-6.2c0.7-2.7-1.4-5-0.8-7.6c3.5,0.1,5,3.9,5.5,6.9
		c0.7,4.6-0.9,8.6-2.7,12.7c-0.5,1.1-1.3,2.9,0.3,3.2c2,0.4,3-1.4,4.1-2.8c2.5-2.9,3.1-6.8,4.8-10.1c4.6,5.6,0.6,12.9-3.1,18.2
		c-0.5,0.8-1.2,1.8-0.9,2.8c0.3,1,1.4,1.2,2.2,0.6c3.1-2.3,4.6-5.8,5.9-9.4c0-0.1,0.4-0.1,0.4,0.2c0.7,5.2-0.6,10-2.8,14.5
		c-3.3,6.8-9.4,12.9-17.3,13.4c0-0.2-0.1-0.6,0-0.6c1.9-1.2,3.1-3,4.2-4.9c1.9-2.9,2.6-6.1,3.3-9.6c0.2-1.2-0.3-3.7-1.9-2.9
		c-2,1.1-3.1,3.4-5.3,4.4c0.8-1.9,3.4-4.9,1.4-6c-1.1-0.5-2.1,1.7-3.7,1.9c0.6-3.7,3.3-7.1,1.5-11c-1.2-2.7-2.4-5.8-5-6.6
		c-1.5-0.5-2,2.5-1.5,4c0.6,1.7,1.8,3,2.1,4.8c0.2,1.5,0.7,5.2-0.9,4.6c-2.2-0.9-2.7-3.9-2.6-6.4c0-0.3-0.5-1-1-0.8
		c-0.9,0.4-1.4,1.3-1.7,2.3c-0.9,4.5,0.6,8.5,1.5,12.7c-3-2.1-2.7-6.4-3.9-9.6c-0.4-1-0.8-2-2-2c-0.5,0-1.1,0.4-1.3,1
		c-0.5,2.3,1.3,4.8,0,6.6c-0.5,0.7-2-0.5-3.1-0.4c-1.2,0.1-2.1,1.1-1.6,2.3c1,2.3,3.6,3,5.1,5c0.5,0.7,1.1,1.4,1.5,2.2
		c0.8,1.6,1.2,3.4,2.2,5c1,1.7,2.9,2.5,3.8,4.3C316.1,91.5,316,91.5,315.8,91.5 M320.9,54.2c1.7-0.2,2.2-2.2,2.4-3.7
		c0.4-2.5,0-5.5-1.8-7.2c-0.3-0.3-0.7,0.2-0.7,0.5c-0.8,3-2.2,5.7-1.9,8.8C319,53.2,320,54.3,320.9,54.2 M341.4,94H297v3.1h44.4V94z
		"/>
	<path class="st1" d="M311.1,173.6v-4.2l9.7-13h4.1v13.5h3v3.7h-3v5.2h-4.3v-5.2H311.1z M320.5,162.1l-5.8,7.8h5.9L320.5,162.1
		L320.5,162.1z"/>
</g>
<g>
	
		<rect x="138.8" y="30.9" transform="matrix(0.7071 -0.7071 0.7071 0.7071 -10.4583 177.8996)" class="st2" width="141.4" height="141.4"/>
	<path class="st1" d="M209.5,10.9l-90.7,90.7l89.5,89.5l1.2,1.2l89.5-89.5l1.2-1.2L209.5,10.9z M121.1,101.6l88.4-88.4l88.4,88.4
		l-88.4,88.4L121.1,101.6z"/>
	<path class="st1" d="M205.8,89.7c-8.4-1.6-15.2-7-18-14.7c-1.3-3.7-0.9-7.7-2.7-11.3c-0.5-1-1.6-1.8-2.1-2.9c3.4-0.2,4.3,3.5,7,4.8
		c0.6,0.3,1.2-0.3,1.3-0.9c0.2-1.4-0.4-2.6,0-4.1c0.5-1.9,1.3-3.5,0.9-5.6c-0.4-1.9-1.9-3.3-2.1-5.3c0-0.3,0.5-0.2,0.7-0.1
		c3.3,1.4,4.6,4.8,7,7.2c0.3,0.3,0.6-0.2,0.7-0.5c1.8-4.5,1.9-9.1,1.2-14c-0.1-0.7-0.3-1.5-0.9-1.8c-3.5-1.9-3.9-6.1-3.3-5.8
		c0.9,0.5,1.2,1.4,2,2.1c1.5,1.3,3.2,1.8,4.8,2.7c2.2,1.2,2.2,4.3,4.5,5.2c0.5,0.2,1.1-0.5,1.2-1.2c0.7-4.5-2.1-7.8-3.4-11.7
		c-0.7-2.1-0.5-4.3,0.1-6.4c0.6-2.3,1.3-6,4.1-5.8c0.1,0,0.4,0.9,0.1,1.3c-0.9,2-0.5,4.1,0.4,5.8c2.5,5,6.3,9.5,6.5,15.3
		c0.2,3.6-2,6.6-1.8,10.1c0.1,1,1.3,1.5,2.3,0.8c2-1.5,2.7-3.8,3.2-6.2c0.7-2.7-1.4-5-0.8-7.6c3.5,0.1,5,3.9,5.5,6.9
		c0.7,4.6-0.9,8.6-2.7,12.7c-0.5,1.1-1.3,2.9,0.3,3.2c2,0.4,3-1.4,4.1-2.7c2.5-2.9,3.1-6.8,4.8-10.1c4.6,5.6,0.6,12.9-3.1,18.2
		c-0.5,0.8-1.2,1.8-0.9,2.8c0.3,1,1.4,1.2,2.2,0.6c3.1-2.3,4.6-5.8,5.9-9.4c0-0.1,0.4-0.1,0.4,0.2c0.7,5.2-0.6,10-2.8,14.5
		c-3.3,6.8-9.4,12.9-17.3,13.4c0-0.2-0.1-0.6,0-0.6c1.9-1.2,3.1-3,4.2-4.9c1.9-2.9,2.6-6.1,3.3-9.6c0.2-1.2-0.3-3.7-1.9-2.9
		c-2,1.1-3.1,3.5-5.3,4.4c0.8-1.9,3.4-4.9,1.4-6c-1.1-0.5-2.1,1.7-3.7,1.9c0.6-3.7,3.3-7.1,1.5-11c-1.2-2.7-2.4-5.8-5-6.6
		c-1.5-0.5-2,2.5-1.5,4c0.6,1.7,1.8,3,2.1,4.8c0.2,1.5,0.7,5.2-0.9,4.6c-2.2-0.9-2.7-3.9-2.6-6.4c0-0.3-0.5-1-1-0.8
		c-0.9,0.4-1.4,1.3-1.7,2.3c-0.9,4.5,0.6,8.5,1.5,12.7c-3-2.1-2.7-6.4-3.9-9.6c-0.4-1-0.8-2-2-2c-0.5,0-1.1,0.4-1.3,1
		c-0.5,2.3,1.3,4.8,0,6.6c-0.5,0.7-2-0.5-3.1-0.4c-1.2,0.1-2.1,1.1-1.6,2.3c1,2.3,3.6,3,5.1,5c0.5,0.7,1.1,1.4,1.5,2.2
		c0.8,1.6,1.2,3.4,2.2,5c1,1.7,2.9,2.5,3.8,4.3C206.1,89.7,206,89.7,205.8,89.7 M210.9,52.3c1.7-0.2,2.2-2.2,2.4-3.7
		c0.4-2.5,0-5.5-1.8-7.2c-0.3-0.3-0.7,0.2-0.7,0.5c-0.8,3-2.2,5.7-1.9,8.8C209,51.4,210,52.4,210.9,52.3 M231.4,92.2H187v3.1h44.4
		V92.2z"/>
	<text transform="matrix(1 0 0 1 200.6257 178.779)" class="st1 st3 st4">3</text>
</g>
<g>
	<polygon class="st5" points="100,201.6 0,101.6 100,1.6 200,101.6 	"/>
	<path class="st1" d="M100,10.9L9.3,101.6l89.5,89.5l1.2,1.2l89.5-89.5l1.2-1.2L100,10.9z M11.6,101.6L100,13.2l88.4,88.4L100,189.9
		L11.6,101.6z"/>
	<path class="st1" d="M134.5,53.2c0.4,1.4-0.7,2.4-1.3,2.8c-0.2,0.2-0.6,0.3-0.6,0.3l-8.1,2.1c0,0-0.9,0.2-1.3,0.7
		c-2.8,3.5-7.1,4.9-7.1,4.9S54.7,81,52.9,80.9c-1.7-0.1-2.2-1.3-2.2-1.3l-2-7.4c0,0-0.2-1.3,1.3-2.2C51.5,69,113.1,53,113.1,53
		s4.4-0.9,8.6,0.7c0.6,0.2,1.5,0,1.5,0l8.1-2.2c0,0,0.3-0.1,0.6,0C132.8,51.4,134.1,51.7,134.5,53.2L134.5,53.2z"/>
	<text transform="matrix(1 0 0 1 91.1098 178.7752)" class="st1 st3 st6">2</text>
</g>
<g>
	<path class="st1" d="M327.7,101.6c0.2,0.2,99.6,99.6,99.8,99.8c0.2-0.2,99.6-99.6,99.8-99.8c-0.2-0.2-99.6-99.6-99.8-99.8
		C427.3,2,327.9,101.4,327.7,101.6"/>
	<path class="st7" d="M427.5,1.6l-100,100l100,100l99.8-99.8l0.2-0.2L427.5,1.6z M327.9,101.6L427.5,2l99.6,99.6l-99.6,99.6
		L327.9,101.6z"/>
	<polygon class="st8" points="338,101.6 517.2,101.6 427.6,11.9 	"/>
	<polygon class="st9" points="338,101.6 517.2,101.6 427.6,11.9 	"/>
	<path class="st10" d="M427.5,10.9l-90.7,90.7l89.5,89.5l1.2,1.2l89.5-89.5l1.2-1.2L427.5,10.9z M339.1,101.6l88.4-88.4l88.4,88.4
		l-88.4,88.4L339.1,101.6z"/>
	<path class="st11" d="M462.2,64.9c-7.4,0.1-14.8,0-22.2,0.1c-0.1-3.6-1.8-8-6.4-11c3.8-6.4,7.3-13.1,11.3-19.2
		C456.6,41.4,462.9,55.2,462.2,64.9"/>
	<path class="st11" d="M410.2,34.6c3.8,6.3,7.4,12.8,11.1,19.2c-4.1,2.6-6.6,7.3-6.4,11c-7.4,0.3-14.7,0.1-22.1,0
		c-0.2-4.9,0.7-10.5,3.6-16C399.2,44,404.3,37.2,410.2,34.6"/>
	<path class="st11" d="M431.8,59.2c3.6,2.8,3.9,7.7,0.8,10.9c-4.1,4.3-11,1.8-12.5-3.6c-0.5-1.9-0.1-3.8,1.1-5.6
		C424,56.9,428.8,56.7,431.8,59.2"/>
	<path class="st11" d="M433.7,75.7c3.9,6.4,7.4,12.8,11.2,19.2c-11.3,6.3-23.1,6.4-34.6,0.1c1.5-3.2,3.5-6.3,5.2-9.6
		c1.8-3.3,3.7-6.5,5.7-9.7C425.4,77.9,429.5,77.8,433.7,75.7"/>
	<text transform="matrix(1 0 0 1 418.6277 178.785)" class="st10 st3 st6">7</text>
</g>
<g>
	<path class="st1" d="M438.8,101.6c0.2,0.2,99.6,99.6,99.8,99.8c0.2-0.2,99.6-99.6,99.8-99.8c-0.2-0.2-99.6-99.6-99.8-99.8
		C538.4,2,439,101.4,438.8,101.6"/>
	<path class="st7" d="M538.6,1.6l-100,100l100,100l99.8-99.8l0.2-0.2L538.6,1.6z M439,101.6L538.6,2l99.6,99.6l-99.6,99.6L439,101.6
		z"/>
	<path class="st10" d="M449.1,101.6c1.1,1.1,88.4,88.4,89.5,89.5c1.1-1.1,88.4-88.4,89.5-89.5c-1.1-1.1-88.4-88.4-89.5-89.5
		C537.5,13.2,450.2,100.4,449.1,101.6"/>
	<path class="st10" d="M538.6,10.9l-90.7,90.7l89.5,89.5l1.2,1.2l89.5-89.5l1.2-1.2L538.6,10.9z M450.2,101.6l88.4-88.4l88.4,88.4
		l-88.4,88.4L450.2,101.6z"/>
	<polyline class="st1" points="451.1,101.6 626.2,101.6 538.6,14 	"/>
	<path class="st11" d="M578.2,67.6c-0.9,0.5-1.4,1.3-1.6,2.4c-0.1,0.5-0.1,1.1-0.3,1.6c-0.4,0.8-2.1,1.9-2.4,2.1
		c-0.4-0.2-0.8-1.4,0.1-2.1c1.1-0.5,0.3-1.7,0.4-2.6c0.1-0.3,1.9-2.2,1.9-2.2s0.2-2.7,2.6-4.6c0.3-0.5-0.3-2.1,0.2-2.8
		c0.3-0.5,1.1-1,1.6-0.5c0.3,0.3,0.3,1.3,0.4,1.9c0.1,0.8,0.2,2.1-0.5,3.2c-0.4,0.5-0.9,0.8-1.3,1.3c-0.4,0.7-0.3,1.6-0.7,2.1
		C578.4,67.4,578.1,67.6,578.2,67.6"/>
	<path class="st11" d="M569.1,67.9c-0.9,0.2-2-0.2-2.4-1.3c-0.7-2.1,1.5-7.3,1.6-7.4c0.9,0.5,1.9,2.3,2.3,3.6
		c0.6,1.7,0.1,3.3-0.8,4.5c0.3,0.5,1,1.6,1,1.6c0.4,0.7,1,1.7,1,2.8c0.1,1.7-0.7,4-2.8,3.8c-0.8-0.1-1.4-0.8-1.7-1.6
		C566.7,72.6,569,68.4,569.1,67.9 M567.9,65.3c-0.1-0.6,0.3-1.6,0-2.3C567.2,63.6,566.8,65.3,567.9,65.3 M568.7,71.9
		c0.2,0.2,0.4,0.3,0.7,0.2c0.1-0.5,0.3-0.7,0.3-1.2C569,70.7,568.9,71.4,568.7,71.9"/>
	<path class="st11" d="M553.1,62.1c0.4,0.7,0.4,2.1,1.1,2.5c0.2,0.1,0.5,0.1,0.7,0.2c0,0,1.1,0.6,1.3,0.7c0.8,0.9,1.3,3.8,1.4,3.9
		c0.5,1,3,1.9,3.1,1.9c1.1,0.4,0.9,2.9-0.9,1.8c-0.3-0.2-1.2-1.3-1.3-1.4c-0.7-0.5-2-0.3-2.5-1c-0.4-0.9-0.6-3.1-0.8-3.2
		c-0.4-0.4-1.2-0.2-1.8-0.5c-0.5-0.4-0.9-1.1-1.3-1.7c-0.4-0.5-0.4-0.9-0.5-1.5c0-0.2-0.3-0.8-0.5-0.9c-0.2-0.4-0.9-0.6-1-1.1
		C550.5,60.4,552.8,61.6,553.1,62.1"/>
	<path class="st11" d="M584.9,62.5c1,0.7,0.9,2.4,1.2,3.4c0,1.1-1.3,1.6-1.9,2.3c-0.6,0.8-0.5,2-1,2.9c-0.5,2-2.2,1.8-4,2.8
		c-0.1,0-1.4,1.4-2.2,0.9c0,0,0,0,0,0c0-0.1,0.7-0.8,0.7-0.7c0.5-0.3,0.9-0.7,1.2-1.2c0.2-0.4,0.4-0.8,0.7-1.1
		c0.1,0,1.7-1.4,1.7-1.3c0.3-0.6,1.1-1.8,1.2-3.1c0.1-0.9,1.4-1.9,1.4-2.3c0.1-0.8-0.3-2.1,0.3-2.5
		C584.2,62.4,584.7,62.5,584.9,62.5"/>
	<path class="st11" d="M558.8,63.2c0.3,0.7,1.7,1.7,1.7,1.7c1.2,0.9,0.9,2.4,1.6,3.4c0.2,0.3,0.8,1,0.8,1c0.6,0.6,1.2,1.3,1.4,2.4
		c0,0.5-0.6,1.2-1.3,0.8c-0.9-0.6-1-2-1.9-2.7c-0.3-0.2-0.9-0.1-2.6-3.9c-0.2-0.4-0.8-0.8-0.8-0.8c-1.4-1.8,0.5-2.8,0.8-2.6
		C558.5,62.5,558.7,63.2,558.8,63.2"/>
	<path class="st11" d="M519.5,70.7c0,0,0.2-2.6,0.7-3.1c0.5-0.5,1.3-0.7,1.3-0.7c1.3,0.2,0.2,2.4,0.2,2.4c-0.2,0.7,0.2,2.3-0.5,2.8
		c-0.7,0.4-2.1,1.8-2.1,1.8c-0.8,1.2,0.5,2.5-0.5,4.4c-1,0.8-1.6,1.4-2.1,2.2c-0.4,0.6-0.6,1.5-1.2,2.2c-0.9,0-0.8-1.7-0.4-2.7
		c0.1-0.2,2.9-2.8,1.9-3.9c-0.2-0.8,0.4-2.7,0.5-2.8C517.9,72.6,519.1,71,519.5,70.7"/>
	<path class="st11" d="M500.1,70.5c-0.2,1.2-0.8,2.1-0.5,2.9c0.1,0.3,0.9,1.2,0.9,1.3c0.3,0.7,0.1,2.9,1.1,3.5
		c0.2,0.1,0.7,0.2,1.3,0.9c0.2,0.9-0.7,1.7-0.2,3c0.2,0.7,1,1,1.1,1.7c0.1,0.6-0.1,2-1.1,1.5c-0.3-0.5-0.2-0.8-0.5-1.2
		c-0.4-0.5-0.9-0.7-1.2-1.1c-0.2-0.3-0.3-0.9-0.4-1.2c-0.1-0.7,0.6-1.8-0.2-2.5c-0.2-0.2-0.6-0.2-0.8-0.3c-0.7-0.4-0.7-0.9-1-1.6
		c0-0.6,0.5-0.9,0.4-1.6c-0.1-0.8-1.1-1.1-1.6-1.8c-0.6-0.8-0.1-2,0.1-2.8c0.2-0.7,0-1.5,0.3-2.1C499.4,66.7,500,70.1,500.1,70.5"/>
	<path class="st11" d="M511.8,83c0-0.3-0.1-0.8-0.1-1.2c0.1-1.5,0-3.4,1-4.4c0,0,0.2-0.5,0.4-1.4c0.1-0.9,0.1-2.2,0.4-2.8
		c0-0.1,1-2.5,1.9-1.7c0.2,0.5,0.2,1,0.2,1.4c-0.2,0.7-0.8,1.3-1,2.1c-0.2,0.9,0,1.9-0.2,2.7c-0.1,0.2-0.4,0.8-0.4,0.8
		c-0.8,1-0.2,3.3-1.3,4.4C512.5,83.1,512.1,83,511.8,83"/>
	<path class="st11" d="M494.1,72.1c0.2,0,0.2,0.1,0.4,0.1c0.3,0.7,0.1,1.5,0.1,2.1c0,0.3-0.1,0.9-0.1,1.3c0.1,0.9,1,1.5,1.3,2.4
		c0.3,0.7,0.1,1.7,0.4,2.3c0.4,0.8,1.4,1.4,1.7,2.2c0.3,0.3,0.6,0.7,0.8,1.1c0.1-0.1,2.1,1.2,1.5,2.4c-0.8,0.3-2.7-0.8-2.8-0.9
		c-0.5-0.7-0.6-2.3-1.6-2.2c-0.6-0.2-1.5-0.4-1.7-1.3c-0.2-1,0.4-2.5-0.2-3.3c-0.4-0.5-2-1-2-2.2c0-0.4,0.3-0.7,0.6-1
		C493.5,73.7,493.6,73.4,494.1,72.1"/>
	<path class="st11" d="M573,97.6c-5.3,0.1-12.8,0.2-17.8,0.1c-4.3-0.1-8.8-0.4-7.6-3c0,0,0.9-0.3,1.1-0.4c1-0.1,10.8,0.2,13.5-0.2
		c0-0.1,0-0.5-0.1-0.6c-0.2-0.2-0.4-0.3-0.7-0.2c0-0.1-16.5,0.1-17.5-0.3c-1-0.5-1.2-2-0.3-2.3c0,0,16.3,0.2,16.2-0.2
		c0-0.1,0.1-0.3,0-0.6c-0.4-0.1-16-0.2-15.9-0.2c-1.9-0.1-4.3-1.2-2.8-3.3c0.9-1.2,4.9-1,5.2-1c2.7-0.1,11.8,0,12.1,0
		c0.5,0,2.3-0.1,2.7-0.1c0-0.1,0.3-0.2,0.4-0.7c-0.2,0-2.2,0-3-0.1c-0.5,0-5-0.1-5.1-0.1c-2.4,0-5.5,0.1-5.6,0.2
		c0,0-0.9-0.1-1.3-0.4c-1.1-0.7-0.3-1.8,0.7-2.3c1.6-0.9,14-0.5,15.1-0.5c0.4,0,3.8,0,4.7,0.4c0,0,2,1.1,2.9,1.8
		c1,0.7,1.4,1.8,2.6,2.7c0.6,0.4,3.5,2.4,4.4,1.9c0.1,0,0.1-0.7-1.3-1c-0.6-0.3-2.4-1.4-2.8-1.8c0,0-2.2-2.4-3.1-3.2
		c0,0-2.1-1.4-3.1-1.5c-0.2,0-6.8,0-8.7-0.4c-0.1,0-3.1-2.7,0-3.5c1.2-0.2,6.4-0.2,7.4,0.1c0.9-0.1,2.6,2.1,3.6,2.2
		c0,0,5-0.1,5.7-2.4c0.4-1.1,5.5,0.1,7.2,0.8c0.9,0.3,1.7,0.9,2.5,1.5c0.4,0.3,1.5,1.1,1.8,1.3c0.8,0.5,2.1,1.1,3.2,1.2
		c0.4,0,4.2-0.2,5-0.1c0.3-0.1,0.9-0.4,0.5-0.8c-0.2-0.2-1.2,0-1.4-0.1c-0.1,0-5.3,0.7-7.7-1.6c0,0-2.7-2-4.9-2.7
		c-0.5-0.2-5.2-1.1-6.5-0.6c-0.8,1.9-2.2,2.3-2.6,2.4c0,0-2.4,0.3-2.5,0.3c-1.4-0.1-2.4-2.1-3.6-2.3c0,0-6.9-0.1-8.7,0.2
		c-1.2,0.4-1.4,1.8-1.4,1.8c-0.3,1.1,0.6,2,1.1,2.7c-0.9,0.1-1.2,0.1-2.1,0.1c0,0-3.8-0.1-6.3,0.2c-1,0.1-4.5,1.4-3,3.6
		c-0.7,0.3-4.9-0.1-5.3,2.5c0,0-0.8,2.7,2.3,3.6c0.1,0-0.1,0.6-0.1,0.7c-0.3,1.1,0.5,2.2,1.6,2.7c1,0.5,2.1,0.4,2.9,0.7
		c-2.5,3.9,6.8,4.2,8.1,4.3l19.4-0.1c1.7-0.4,11.2-0.7,13-2.8c0,0,0.7-0.3,1.1-0.4c0,0,1.9-0.4,2-0.5c1.1-0.3,2.4,0.1,3.4,0.1
		c0.2,0,2.5,0,3.4,0c0-0.2,0.1-0.7-0.1-0.8c-0.3-0.4-5.4-0.2-5.7-0.2c0,0-4.2,0.4-5.2,1.2c-1.1,0.4-2.5,1.4-2.6,1.3
		C583.2,96.5,579.5,97.2,573,97.6"/>
	<path class="st11" d="M561.7,98.2c0-0.1,0.2,0,0.2-0.1c0,0.1,0,0.2,0.2,0c0,0.1,0,0.2,0.2,0c0.1,0,0,0.1,0.1,0.1"/>
	<path class="st11" d="M507,72.8c0.7,0.1,2.2,3,2.3,3.8c0.1,0.8,0.1,2.4-0.6,3.5c-0.9,1.4-2.6,1.4-3.5,0.2c-0.6-0.7-0.6-1.8-0.4-2.5
		C504.8,77.5,506.5,73.4,507,72.8 M506.3,76.4c0,0.1-0.4,1.1-0.6,1.4c0,0.2-0.3,0.5,0,1c0.3,0.1,0.3,0,0.4-0.1
		C506.3,78.4,506.7,76.7,506.3,76.4"/>
	<path class="st11" d="M500.4,86.2c0.7,0.1,2.9,2.1,3.2,2.4c0.1,0.1,1.5,1,1.9,1c1.2-0.6,2.4,0.2,3.3,0.2c0.4-0.1,3.7-3.4,6.4-3.7
		c0.1,0,16.7,0,17.1,0.4c0.3,0.4,0.4,0.8,0.4,1.6c0,0.6,0,3.1,0,4.5c0,1.3-0.1,2.3-1,2.7c-1.7,0-51.9,0.1-52.5-0.1
		c-1.2,0.1-1.4-0.6-1.4-1.6c-0.1-1.9-0.2-3.3-0.1-4.4c-0.1-1.2-0.3-2.5,1-2.9C479.5,85.9,500.1,86.1,500.4,86.2"/>
	<path class="st11" d="M506.6,61.8c-0.2,1.8-1.8,4.2-1.7,6.2c0,1,0.8,2.3,1.7,2.4c2.1,0.2,3.1-3.1,2.4-5.2c-0.3-0.9-1.5-3-2.3-3.6
		C506.8,61.8,506.6,61.7,506.6,61.8 M506.2,65.4c0,0.4,0.1,0.4,0.1,0.8c0,0.4,0.2,0.6-0.3,0.6c-0.2,0-0.1-0.2-0.1-0.6
		C505.9,65.8,506.2,65.3,506.2,65.4"/>
	<path class="st11" d="M532.8,52c-3.8,1.2-20,6.1-20,6.1s-0.6,0.4-0.8,0.8c-0.2,0.5-2.1,3.6-3.3,0.7c-0.7-1.8-2.1-6.2-2.5-8.1
		c-0.7-3.1,2.7-1.5,3.1-1.2c0.4,0.3,1.1,0.2,1.1,0.2s16.2-5,20-6.1C534.2,43.2,536.6,50.8,532.8,52 M508,52.5l18.7,0.1l6-1.8
		c0,0,1.7-0.1,0.6-3.6c-0.9-2.9-2.8-2-2.8-2l-22.5,7"/>
	<path class="st11" d="M542.3,52c3.8,1.2,20,6.1,20,6.1s0.6,0.4,0.8,0.8c0.2,0.5,2.1,3.6,3.3,0.7c0.7-1.8,2.1-6.2,2.5-8.1
		c0.7-3.1-2.7-1.5-3.1-1.2c-0.4,0.3-1.1,0.2-1.1,0.2s-16.2-5-20-6.1C540.9,43.2,538.5,50.8,542.3,52 M567.1,52.5l-18.7,0.1l-6-1.8
		c0,0-1.7-0.1-0.6-3.6c0.9-2.9,2.8-2,2.8-2l22.5,7"/>
	<text transform="matrix(1 0 0 1 529.7244 178.7816)" class="st1 st3 st12">8</text>
</g>
</svg>
